<mxfile host="65bd71144e">
    <diagram id="lreoJOoGN-SyQmm5be6z" name="Page-1">
        <mxGraphModel dx="997" dy="527" grid="1" gridSize="10" guides="1" tooltips="1" connect="1" arrows="1" fold="1" page="1" pageScale="1" pageWidth="850" pageHeight="1100" math="0" shadow="0">
            <root>
                <mxCell id="0"/>
                <mxCell id="1" parent="0"/>
                <mxCell id="7" style="edgeStyle=none;html=1;entryX=1;entryY=0;entryDx=0;entryDy=0;entryPerimeter=0;" edge="1" parent="1" source="3" target="4">
                    <mxGeometry relative="1" as="geometry"/>
                </mxCell>
                <mxCell id="18" style="edgeStyle=none;html=1;exitX=1;exitY=0.75;exitDx=0;exitDy=0;entryX=0.75;entryY=0;entryDx=0;entryDy=0;" edge="1" parent="1" source="3" target="9">
                    <mxGeometry relative="1" as="geometry"/>
                </mxCell>
                <mxCell id="3" value="" style="shape=image;verticalLabelPosition=bottom;labelBackgroundColor=default;verticalAlign=top;aspect=fixed;imageAspect=0;image=data:image/png,iVBORw0KGgoAAAANSUhEUgAAAawAAAGZCAYAAADVfwWyAAAAAXNSR0IArs4c6QAAAARnQU1BAACxjwv8YQUAAAAJcEhZcwAAEnQAABJ0Ad5mH3gAANwwSURBVHhe7P1nuGXHdSUIruOue/699A7ekAQJkaAFvURRoryXqlSqUs9UtZvqr7vn7/zpMd/M19M9XV93z9ddU1UqI1XJsURVkRItSNCCIAGQILwlkN7ny+euO27W2nHOey8TIJEgM5n33RcrM949/t4TsWOvvSN2RAQlAQ8PDw8PjxFHWH16eHh4eHiMNDxheXh4eHhsCXjC8vDw8PDYEvCE5eHh4eGxJeAJy8PDw8NjS8ATloeHh4fHloAnLA8PDw+PLQFPWB4eHh4eWwKesDw8PDw8tgQ8YXl4eHh4bAl4wvLw8PDw2BLwhOXh4eHhsSXgCcvDw8PDY0vAE5aHh4eHx5aAJywPDw8Pjy0BT1geHh4eHlsCnrA8PDw8PLYEPGF5eHh4eGwJeMLy8PDw8NgS8ITl4eHh4bEl4AnLw8PDw2NLwBOWh4eHh8eWgCcsDw8PD48tAU9YHh4eHh5bAp6wPDw8PDy2BDxheXh4eHhsCXjC8vDw8PDYEvCE5eHh4eGxJeAJy8PDw8NjS8ATloeHh4fHloAnLA8PDw+PLQFPWB4eHh4eWwKesDw8PDw8tgQ8YXl4eHh4bAl4wvLw8PDw2BLwhOXh4eHhsSXgCcvDw8PDY0vAE5aHh4eHx5aAJywPDw8Pjy0BT1geHh4eHlsCnrA8PDw8PLYEPGF5eHh4eGwJeMLy8PDw8NgS8ITl4eHh4bEl4AnLw8PDw2NLwBOWh4eHh8eWQFAS1baHxzZEUX0Kgfsoq8/N2HRoc4V5xZU6+Sq31/e4U5fuvRI8b5fU1/EzkG35g6738Nge8B6WxzaGCEGEpaRtppojhOrQ5lOvltZR72w6UW++yinD5efXEdRH+duCzaTq4bF94T0sj20LCX7uNi/Bq1WIiKm27i4/f4nf80NPVqiv4bmaimrKFPS58ZjSzjV5sbcuPbY7PGF5bG9cqfSbx+PwWre8voY7Xq0H1jfVD9f+5i96fQ/18BhLeMLy8KhhNaGqDuu1otoQYfwA0qgvrT9f3RPizevPrHD589bPVyc2X/9Dvt/DY7vAE5bHtoUEP0NhPFCTTGD/KrwWwWyCLq0vXyesS+5/lZt5SJcEr/iiy6AqakEXHh7bG56wPLYxSv5zvVhl1ZlUliSsQOTiqEubChqs+7pcLAT/iEO0HwYobLdEYQRUItJ5dxBRGPKa0D1fN5B3eNj6pSL+sefpOFHwnpIXhnFkz9E/O86LEutF8/DY3vCE5bGtkQ2HRlChiEVeDAkoS1NShYhIBEKC4Z+wEfGawGjDiEq1xp00QhMBiWAKppjbYUV660mX6hp+j8gv03aWI0jp4fG5gn5DElfkRrij/NSGd7A8PDxheWxf1B6MIwZHPsYWIiH+Cwq37VLKa0Q1ZA4xiLlTup+f7gHVp45V/pg2zT3TBhHx3oiUJ4+LJCXSy8sQET0qNfmV8rD4ECNOffKffTX3eIuHx7aHJyyPbYNXijoJoszlVLntgh5PTt+Hn+h2gYuLSM+fw9rSMoYXziBbWcag28NgeQ2DtS7y/hApPTQ9VVRjrYBkoUZCXiLpJHGCJIpRMgXcjjsdtGdm0JmbRmtiCuX0FKKdC2hNzwBTTM0WmYnkJZKL+BA+IydnZiTOZtLQj/Tw2NbwhOWxLSAxv1zUQ3lQ5y8Aa8vo8nNw7hywvIRodQXJ2hrK5RXk3E/XeoiyFQRpH9kgRUGiKpmClMQmliL07CJQg2CAOOInPTUdC0sSED2ogkRUNppIJiYQT7URNpskqA7K9hRCHg+mJhHPLyCcm0U+M4twdg7J/BwwPQ3wPBImaxv08Ni+8ITlcQ0gxW2NW85b0Cf/q2tGqYZauUKJnySwUsZ1gINdx+OJDlP5B2pWC9R0xn2m+roNyMPhXfa4Ag31SYlMcl416LvUWwMOv4TVF17C2WNH0T93Fjh+hF9WOPLi9aG8rCxHzGeE2td38+n6nWH169WUZ8n2Xg08eRmUG/rNSu6JAXK+c0kvyloXua19ERvdMnpkTWT8kqjRwAzJa/4d70C8dx9w6CCwYwdA4gO9NkRN3hszL0J6Yu43JcxYeWUqA/WL8Wn6dpTMC/tmuZR635D3Czqo33yJKtBv42+q9mI7x9/Ha3VMeyo//lp7tsFdUv/x8Ljq8ITlcdUhRVkTliMtHqw+ap0mhS+UgVOJNo+DkZvxhl0kDrPrKhGVupXnouOhTqjpLku5z20dzDIgTQF5ShfOIz1zFmunTqN35pSR0/DCOQQkrUZ/gITXRukQiZoAL8P1rhIWKUjiyvnb9Fta7Q7O00tL6WUVzRZCel3Jwk7MHLoR0/sOItlDIpudB9oksXYLmOGnSElZwnwR1doOXyuyrHL9ZS4wpDrlMpqbjpTtIJOO2J4ITs+p7lFRVVv2V6hMFA+PawZPWB5XHRIo0VClJteVmI7btjak//iZxlTK/Bfzav0zE76Gzhsh8T56HRkVbcQb5f2UOY+TcERS5dISguPH0Tt6FIunT2P49OMoSVrDtTWEJLCQz4ipkBsU9bDM0OJ3K3C8oNc2HNG+IQViFHSZMnlFzIC4QT/JiEaEzgwJG1geDEGfEdHMLFo7d2Bu727Ee/YgvO02TNx0I7BAEuu0AXppRanw+gbfmkTovgKJykGJ2W5Ri/wnwuK3VOWmk5vAZ7hU7YvkVMh2l/PG5HHZIQ+PawBPWB7XBOs6jan2uGrbnarTkh0I+ccu5n5ltutDCjQVMVXXS802MAD6XXpQF5GdOAGcPI1zTzyJ6Px55PSkFCChYImkpW/LeBeJMKDip4gr1W5dHIoeeTbX86ViRwsFPUd5WCIqVU95XGmS8XeHiMUKwxwRf3sYJyijCD3mTY95VSR8q6DNLJ1Ce88uJPv3oH3zjWjdfDNw4CAwTwKbmkI/bpD8EzT5qM1vz2xfh0or1zPtn65zZRa5kuMFyk9XdI7eHE1pa/NzPDyuJjxheVwjOFXmFJvblhVe9QiZ2jPltkn6RFT1blEM6UnlprCDpWWS00ngxHGk9KJOvfACLhx+GYOzZzHNJ7aKDG2mVgymGCtU5kPrr6GCNcKSV+L4UX1GiQIgeE1B76uhDh87swEXVn59kfP3qamzJq2CxGS5WLhc1IDkInO+UkzvUy+ofzEpZSJuYYXvtszzg0aLJDWLXquNvXfdhT1vfStw603Ajp083kFJ0iP98U7XG6UysWbDuiAEHkz1W7hZE5y+S4QmiMpkAtiuFaod9vC46vCE5XENYKrVpc3iJeVLbaY+lVqnaXSTXUHd2zClSN8qH9KL6AOHjyL9/ku48NJhDI++jPyFZ5H2+tYUqGs1g3lMD80ao0hYCrpQmHoZNY2gNP5J4eXyC7Sr1saABGZegv20jAR2KVmNAtQcmFdkJBjn5/zVNoaLb8v3zC2vHP0HJLeYBG1+Iy/pFz16XzHfNWE+RMj44kWUoEuiHrYaSHbMY27fPky85S1o3ngjgkM3AHP0vuSxgQTGeyzUn1kTKuPIRWoJVCZaufGP0SN/g3xUnVpvzrUfpIs8PK4+PGF5XCNIrJhqt4lklZJowohqVQNoCXIMlnqrNPRbVJO8aDgAzp5C/4nHsPL9F9B76WUMDx9DtLxKL2rIawbr+tDpRJGf/vFZ1KyiHg3IVSujXSOFq8vsOv0MHa19PAdF120FNHJF9JHOq/fMq59t78IDEUks5mfBnUE8tOPyfEKSSMSkfYskZP4opby/F7UQzu3A9E03YvbNb0LzTXe5psPONB/Y4AMUeWiFZ+OdRfKyJew73c9h0q9x12zkqofHtYEnLI9rB0pWzVfyF9QvZb1S9II0355CyRvZAOX58wgOH8aFJ5/E+ScfR3rqBJKVi2h21zDJyztUxllUYrUhpSgFbY191JUuYNu+xJSlPulNBEMSVxXCTX1aUsnrNzhSU1ABr+aBgPcFRRXavUWg97BP44baY3XvJ0R8p1amEPnSSE3zEIpp5I25u1kC3NfWTNpAkZZY5nZ/ahrBgf1o3XwLyesuNG69BcG+XcimJqHGWXleynP6bUx8JF3j9ZZTswxcr6H82Q3/2cPj6sITlsfVxyaJou5cV5Vp2sOktJ1CyRU8cf4cBl/8Cla//xJOv/giyosX0OG5qUSewZDKlB4Z7y/V3JcWaMUde45STm2pcUJOYTPpOlOUVKgKWhAhVmdzJil4+Val3JH6ShKfa9AafeiXut8tj8kdq2HEVL1bUIQ8n1jrXC6irjwgG1NmV+lZQoF+mSFKGkiY5O0OWVhrtCwGzQ4mbrkJs3fdidm73wTcdqsLmw9j9EhUFrDRaMLiK+238LeZMaDfJ7py3+DhcbXhCcvj2oBidcnAU22lJKkzp4EXXsDF7z2KM08/ifTIEcTpAA0q1Db1nJoGNUWSIuNqrykM1KciRexUolPQzksQEUmZi3wEbTu1rn9S4O4aXUtdTjhx13HdsVUIy+WF+82stHKaDCIh4wxCnqTlQBlVBG571T0uCWo21NEy0tmC9gPZKlMgR0TyavF4guU0Q5cENblnJzr7D2L+He9BeOedAL0wjfcaJk37RbI/3Bcp3903esLyuFbwhLXN4ZSM1EwNt7VZKOyI00UGd05/63vrezYISo2Apsw0uFcBFD2S1ROP4ejXvorT334ErcVF7GnSRo9yFEVK5VdRB0lJY1QV1q0juSnSGDGVaFYM1r/VKWenqs2T0j36ZMp4r87UpCTUpCXomDtXq/PRh8sdR1p6b3uH6o0cMeucy4/cIibcefeuFhJhZ3XZ+ucgQxLRGEiUX/xH4iqY+fKRmiSunEZAyvwfMj9XW1MI9+zGjR94P5rvfx+wewfQmeRPUnOh+11GiPbV3LBm2grcrOVMeC1CW3+McMmOx3aHJ6xtDi1gKGVi/RKmZJzykcMixaY944ZacVTHc+uxUDc+76f2k9IqwsSi/rQ4hzyqyQFJ6uhRZI88hOXvfgdLTz6Ftgby5vSgyGOK6kusfcuL4CjDiC9nWdGrWmNxRXv3YMf73o3g3e9AceAmYGE/0pJGxYDXSmBiyoV5vEoEPTnNsyhJ0zHX8+jotrrCUItZDZNEiYfgxNJjm8MT1jZHXfiuU14Q+YiQHIywtKGDQcZPqpg6qQ+JJ0VQaZkhJgE1eQzdNeD4Caw89BCOPfwtpC+9hObSReyg5a856aSqjOrUjGQay4vgqKMINeNIhIwF1icZrfIz2X8IO+9+Gxbeey9wi/q5ZigHEVIaLkksWtKN8tyGaDTMJGJJ12YOXB/Y5qKXWFWbwiWiYTse2x2esLY7LtEQjrSqhiTbdkpDFymRxsRQtJEFNSsp8q/Mh2iSsNAnUb30MroPP4zFh76N5ZOn0BgOMEl3Ku71aXjT/+I9RUhSjJhIYPK0PEYbohktO5lSGGSclPVYNrQwaDQxmJvF9F1vxJ577wHu+CkS124r39QMGvpSFJ2GDBmJED/UoKlit6mhhPrTidz65+WHPTw8YW13XKIVNrGHdfrUqkIXKWmfqSYqpihLESqY4vRJ5N/4Ol78xjeQHX4J04MemlFkkX7q0Ne0Qqaz7LFUZGom4rEwdfToMboQNcXDHHkzxJBGzbDIkbAME1kspK5hEKKnOQvnpjF59z3Y9Z4PALffCUzP2EwamgNSZbweoCHoQL1doxYxQbLCj/pQfdhje8MT1jbH5sJfD5kwTUEPiIQl61i8ZWTDpDB1nbYGHnpWwdnT6H/tqzjyxS+gefwYWoM1RPKkeF1ekIxojQe0tmVVb3S886S2w5KE5/Y8RhfqbwoHGnRM+dBUViz8QTGERgg0Qvpa/CwH9KKDGEvtJtZ27MCut70DCx/+iCOuzhTvdU3L6/2hUjs0Wl6BWkQIyZt2dZWXEQ/BE9Y2h+kOJos0q9WDaYpKRfBDNJbxVI8ap1kUaIuQzp4BHv0unviLP0fr/FlMDl2TX0HfS/a0lq5QvFkhb4qf5kfxv8ZHBaWbEVyNQ96/Gn2oDAdRTI+KBgbLX4O+1XysEnTlp/KMbHxYXgyQJREuRi0S1x7c8jM/h+mf/mlg5y6gRS+MBoxmm5cBlDPZ7CexG7agJ8U1Swna1EG36eHhCWu7wxW+1M6GllBP1iAnzajJjppCyiIgGUW5wtN7wNPPYPH++3HhkYfQXF1GS2HpvF6Up2UsQiozEZKa/vSsS/iP4makZVfrnno6VY9RhUprSK9KhBTZAOQNM0NesxGXhdLzeDZAgx51HjSwVAToT06h3L8fN5G0Wu94J7D7EB/SQq+MbLJixQ7Ka9f8iJpZX/NpWHi8kh5Zf5GHB+EJa9uj0g4mBdQOJBmFpquPSoqpUWRu3amUZHXiMNa+/FUcfuABJKdPY1ZExSQJKtT0V8Y0vPWZ05DWOlfrT6dC01/Rl1ArPJLWFpsaabtCBob1P3JbSeVnk4YQrnxVmi44Q1NuaV7DkLKQJzFWGxEutDuYvuftOPSBn0V4508Bk7MUMspIq2Fkp4Um9UyZL5cPo/DwqOEJa9ujKn5TPtQOVDyOsAo00gG9KlLXmbPAo9/B6b/9KwxOnUaxtoaWKRK3xEQZRohoMcdFSIJTf1WBPBTlCa5fzCm72hp3X8cPRFkV/uwxspAn3Chy64dSSLpmGlE5qvwcp9AAYYFaGZN8bPBxltPzDqybSiP2+kmCc3GC4e69OHDPu7HjXe8F7nwrwOOahTBv6bOap9CEZP3hHh7r8IS1zVHrBWMQgTsa82leksLUH38SJ77wRZz/zsNYuHiUCognw2oKVLXz5dZTJUGiV8WH8JDpGxIYN2lli7AqEaNCs2ZDbjgCC3hef70IjjJUOimLW31YMVlLE+yKVNKIBovKu/KerakwV3mzRGPeECSOfLKShg+9rmaCFXpVKb2q5v4DaP7Gf4bZt74NmO2giDVZrxtU7HqzKlTytOmIxzaGJ6yxhFMgxgp1VbeKr+PO43HHqWKGVDRajp2XDnhEq9CGav47fhT9L92Hk998APmpE2jR22pnQ7iVe/Vc3iuS4j/t2XeqI96UF5/NB7pvFkVtQGddL4iDO1fveYwiVDqSDzUBWkBNZdzomCtPV36uX9LB6EvNfDxlSX1f3Ncs8mo6TEloS7O7MPuWu7HvZ38GuOsuFK020lBzFPJb9F32ffS/+FANg7DmQj3cVJYear5d9e1OljbLmsf4wRPWWEJFKsKqAhpU4W1DCqVqorOqr/4mUhgt4EGWok3LN+guA88+g7Of/TTWHn4IwbnTaNOS1pIUkS2C5OFxdRCUKZYaTcRveBP2fOgjaLz3A8DMPL2zBvoau8d/iqI3R55J0uwIqWJMg4440pJkb1zjMY7whDXGUMFuFK5rsnFQlTZblV6VFkjPENPTwvkLWLr/frx0/xfRPHkCU70uOjwX0rq1MTh1t5SHx1UAHXuklL6lLMRgZgf23nsv5n/+o8CNWkRygrJJA4pyKhKyIVsSX4qtPDRRlvq7tKq0+fn0ttTH5glrvOEJa0yhCu0qbt1oUtX26qjO2zXFGqLeKvD8S1i+736cfvCbiM6fwxTPNoMQRZlhSFLLwxCJNQV6eFwd9AZrmGlNIS4jrHQzDKYm0HzzG7DzA+9F+O73AvN7UNDbkp1kCxxXQm3DJLhp0qgBgtrjjlZSVh+YJ6zxhSesMYQKVJXcRVyxllsJsxqrzb+qza5pMEV59gyCbz+El+67D93HvofpYR87JiaQpvS9SgUp04KVIohJXlnd/+XhcRVAt6lMU8op2SYvkAcRzuX09m+8CbvufR+m3/ch4LY7gFaLkuo8rY2ZMpg2M1PdWeZozGNM4QlrDKEC1SgoBQrTRbI+ak2RpE5yBe3FAf/kXeDcKax85gs4/aUvozxxDHsTzaaeY0CyysKYxqur/CEJK1Q/lucrj6uIkAyUaZyfJkOmcEVpgXazg3O9HBc7E5h/z7048LGfA97wBmBi2sb6qRc2llzKIhNh0SrTpiRVA9JllHmMLzxhjSVsZIvNSqAGEk2FU0QR0rxEW6wzXAOefAxHv/h5rDz4EHZoXFVGS7dMoWXVh1QgIiz1CGgQqDUehjk0KNjD42pAzdQaXDyMJW+Uz6BAk15WU4MASUjDuIXT9Orbt96MG37mZxG/78PAjml0SU1BEVOOGy4YgyIpO0qEldQbnrPGFp6wxhIkrLxHYzNm3XcrwqqQw2EXcY9k9fDDOPyJTyB8+SU0+2tIZN1W96VSHrqe1qwLKy64XdI7E2E5j8vD48eFCCsp1DCtFaIpZRQtyZqmZsqHQ0SNBjLKYDej7O3Yh93v/zDav/hB4KYDGKLNJzTQILEZaXHP5Jcb1s3qCWts4QlrTFHIk2KF10wUoqwgpenaXcHw85/D9z/3GUTf/z72ypMKMmQ2Ga3oSk0u/GSFV1+BxgHruEKKlZwe8OLicXUQaYS6QR6W5I5eVyPCUP2nWW4zp2gV7DRqYnVqGnPvuQc7fvkXgdvvEN0haEyZNNpTarGsH+kxlvCENabIaJnaUvUkrkSd0adO4twn/j3OfP2raJ0/jYU4JCll6GVDBHFCb0o1nQSnj0AEVlCh8FPzwVnfAW1YrTjsCcvjKsE1WEsJ2V+Sllaupncl2aS8hcOSXhQ/mwkupF0sk8Dm7nkX9v3CLwDvegcwOSMJXycsEZ6PERxveMLaQqgLqq6gGxs1XGXVEXUFBFmBpCDJnD6Jl/74T9B/6FuYXV3EXFJirb+CvB3TFVOfgGYv4DZvlNKw5j/6ZlpGQhPagkneV+kJy+MqQlMxOZBmTKxK5EWKKKK8qf+VQqzB6lnZRxDlmAqmcGytQHHnbbjpd38DjY98iBd0eDtl0+7WrIUisMtJS2cvP+axFeEJawthyKQmOnVWW9tdqCGUmYWdy0otbUmQCKv0qlaiBHuHy8B3H8H5j/8l+k88jqZmx+a/uitKQesiK/dUQduvJg51Zfei4nEt8IPkyx1Xr6pkNA3adqSg4bTSCHDbr/06gl/4TZQ7dmItyjAZdVGWO3hFROLLLQpR16tZnH4atyXn9Xd5bEV4wtpCUEEpueq7MXNFlqYWBRiHMfI8s+XLocHAjzyE5//q48ifehy7WIFZ2DYAWAMsVW0dYdVk5eExmrAG6aLASjJFrz9HUvSouVIszuxF8KHfxK6f/w00b1mg7Odohpqz0Ml0nsug4/2x88AESb6nrK0Lr622EDTSX5VN6/r2mczR0kh/zYxezfOXaKDVxUXgvi/hiX/9bzB45mnsjEKEWtnVrnBVVh6ZJyuPrQIzsEhW9LNIYCnlF1jplvjaI0fw5599DJ/+9hpOFzwTxChKi43ndZRxTd1kbKVGbsUmvtKP89g68BprS0GdykZTVoHVxBFGMaIk4RFalgUr6oVz6N73BRz+N/8KnSMvYQ8ypMuLSJqsyFVph9wIRVj2z1dfj9GGpD21Ndecp5WhgaVkB05M347jC3fjy2c6+LffOI77HgN6rBhF2ESasp7kGeuGGgNVV5ycq/aoWdzT1taEbxLcUtiobqIaMZCOyJ5shKzWp49j6W/+Bkc/8xnMnz2JiYkmyjxFf9hDHKlZxK1jJe9KswKoSVCL8Tn68/AYTRQ2pVjgWg/KGOdJVs9N3YZv7X0vHtv3LpxI5ijnQ9ycpPj1907gfXd3sKMBNFNFwNoTaKVp3pe6aXDD4PPYWvAltoUwpAdlDYH6nzE50xHJYIDg1El0P/sZvPzJT2DfcAXNhFZpNsSQVmnQaJKY3MwVhoD+WCiyEvl5e8VjtBGX9KmKPrKgxOnWHjw391N4bPeH8cz8u3Em3MWK0MZk3kF2McFf/u0z+MwDa1hlvUgbZC1bvItEl7lmxHSg0CWgP+jbp8fWgiesLQRFAA4V6Rey2OKQ2wXCNEW4uozeF7+Iw5/9W+wcrCDsLjqfqRpbZX1cRlZ1E6BoT8vYb0QMeniMKtSOILldbM7huZlb8L0dd+PJuTfjdHMvIsp2m95VgxbcMGxhLdyP+x89h49/aRUnelo+p4W8oGeVU+7LktVG0YJAq9lyD/fYUvBNglsIWupDc8+o8zgrcrRVdOfPYVWe1V//NTqLJzATKfKPKZgwMlKvlxr/BN0pspJXVVRkpQHD6tPy8BhVSH7Xokk8s3A7vr3zXpLV23Bq4jYMixgTxRo9sD5tsxADynwcJij6Z7CzfRE/885d+IX3zGGXHK1BiphGXqD6Y7PA0IRT3LvHloInrC2EIidhRfSyaE22WI21jL3I6uTnP4fW6eOYbsdIM3pcSQPBUO3+rOxq/zebUsXsmkc02bXZrLQ2bb5AHfbwGFGca+6hZ/VmelZ34bGFu3GicwBp2MFE2kdSDmyw+4D1ohe1MM2aUfR7PL6M6cYqfvYd+/Cxd7exiw5VIxuQpCj86tjS0A+PLQdPWFsM6pdKIla6kydx6q/+Cmfv+wx2rZxn5SzQTdXQ10IYN2hFdnm1KqW8p5qw5JvVEGupqVDHvQh4jC6+N38PPn/g1/Hi9G0409mDISK0sh4m85RE1cEwcEM6WoXIK6BBxx0RUraGPR16Wm+bw69/aAELUWp9WWUplyuW7eexxSBt5nFdYQ109lntbkpuoyTRFExLWR+xeo5PnMDiJ/8DLn79y5jrr9hgyXRIP0rNITyf2TgUR03Ov3J9ABZZqFRwS8m+xMPj+iCLZUC5ZXDU1zqISDyU5UYxRCMvcJ6e1bd33Ytv7v4AyeoNuNjcyesSNHl9zFu0PpbkWUosZl1RS4FaIRpxgga9rUaygMXeDD7/7dP4668v4fgw4Xd2EAUZPa0+pZ83uCrGVFikoe3ov/sg1IzutjyuPzxhXWeoKtiqvq9WKapmC1uCgZWrE9MjWl5E777PofelL2L2wim0i9RmUMvCJiuZBhCL/DLrl1IyYlpP2q+nqBH0nb4yelwvqC/JNVHngZu7JajWcOvGk3h++o340r6fx0M734ulxrwNx2hmAwuw0NI5aUhPiXfFpQbFsx5ElGyRXs7n0vsiA6GIZrFU7MH9j67h/seBNX0tCa0YLPNbZNhR/ivD0CbIqKvDetVQfVLyGAV4wrrOUJ2Q/6OZ1bXoYqnVgOklFUWOjFZmv5BvJeKKkKxexPLnPocXPv85BBfOosXrIiZVcBGSAii0ZIMvVI9Rh7z7qUFIogqw0iwwSPqYTdfQTEOcT/bguzvegod33Y3jE7dhEC9Ud702bJ0Ba0hQgNKQZKjPBk6dG+Ir3/g+HnwSuJBF9LTmeLFILUVOArTAJF5XG4n2iMu2PK4/vG67zhDZ0Beybdc06JKWDVd7vPyhJlOjP8DwM5/D+S98Bp1TxzBLTyomleUktMJWbKUKUGWTl+VXBvYYcYgghkEbGb0kRa8286HRwtn2bjw+fze+uvf9+N7CPTjf2otURHLFcORSaqwhCUvflJUxks5unFxs4BNfeBbffBbo08tSi4Qul5GYlzQMaT3WDpaMRlYkbqgueTU5KvAlcZ2h6qUhvSItkZc7wkTyiUlEDVWh5WWsfe3reOlvP4Xw5e9j1kYNpximGb0yNawE0FINsiyV1iudh8eIQjLaTSJrEWinlPU8xunmDjyxcCce2fV2PDN7D862DmJAwggk7z8yZMjFCOI2Sj7/+2eBz377DB54BhikPEYyjCJNHM06qKpHKLrWCEu/0nY8RgWesK43VC9oyGnSJFZf7jiLrjfMEKgdvr8KvPg8Tnzqk2idPol5nk5IUf10gDKOLSJQjYL2GHlZmr2CycNj1KH11eKiRJK1sBrtwhMzd+Ch3W/Dkwtvxrn2IV7RQkLPKywH7oYrght1aJM7lwl3Q5JRhNW1AQZFiObcATx7fIi/+sKLeHkJWCEXDnNeVtDDKwrjKdUe9QurXnmMFjxhXW9Y7SBjWaUJkOVMPGRr+eQ94KXncOwTf4b2s09gMh3aOj95FKJIWrYScM5bLYyCzwlKNWHogfr08BhdKMRiOl1Gg7J/MV7As7NvxkP7P4jH5u/BydYBhFmAqUEfDQVGvA4DTM+1KlBGCOm1hSSsskjRavJQkKPH56bxHI6ttvFnXzyO47QHMxKbgjg0Wa6g2qN+Zc0N7zFa8CVyvcHKWMRqZ+cnS0ORuiVZSONMyqVFHPnMp7D82COYSlcRKhDDeq40kScrI2+IlUhyNpM1n6EQYT9zhceoQ/5LOy3oSc3h0R134iv778Xjs+/AUryfXlWEiWwVEXrox6SskGxzxajJjURlYe/yuNRormVJnN+kCXSHmMKDz/fwH798DhcVVChvzK53StH7VqMJr9muMyyc3YiKnlXGysXdRNFLSxdx7uMfx8q3H8ZC6sZhkZd4dd1UoSaPyrPSUwIlbsuyVJywh8cII6fBdaxzE56kZ/Xozrfhqdm7sNjcSzlvokHDLCS5DFkntL6VWhKuHKoEah7XYqWKuHVjvUIadFqhQE1+rnY0MYx345FnV/DV7wArPJJZs4Y7X08V7buwRgtes11nlKxIBa2/kDWpGYuAWMmGa1j70n04+bkvYO7MBSTdPtaCAEVEq5EMJXKq7rbkKqdiDKtoQdU6D48RxiBq4Ds778HDO9+D52buxvnmQYvaa9BYC1gHhlFinpUkWa0HVwoX1s67bHxXyjTkPusUj9fGnIirlLGXTGGxN4nPfONFPPoy0KU2tJrF77PFUqtqVtc2j+sPT1jXGSErl1bpKXJWVFqWWFvCxW89gKc/9UnsW+li16BAu4gwTJq0E1V1VJNUiRxx5ZGWCclZuWUhirC0cL4v1iuHVOLl6Qfhh537UfFa37k1YU1v6+/m3s9aAvg3CxMskyy+tu+9+N6O9+Bs+zZERQvtwRo/1+j5FFiNWxiQsOIyRVK4JUGuBJJ9Z8BlTJqqSf1S8qxYJ4oYYe4IS8vup3xsnszhXH8Cf/bpZ/DiaQVb6HL+dtVFfojqPEYHfi7BawSrrnXO6rOy3kgp/OssRtexq9nTSUVlguaA1eP5Z/H0//B/x8KpI2hljqKGYczKpyYKVjybxkaQEnDb9REd21B9G0c9Xh1SnrlCnqs9QeWjcnMKty4vfmrMTgVXrlS+NquIlLC7e3N0pqlpu3WjRGpsXKVnysCoj+iZ2lYzlqTDHdP3laUb/DDqsOmW6CFN0IIaBk30YvUNpZhO19AeZjgyeTMe2fE2fGvvu/HC1N3oRlN8w9je1gImlAd8cWd0SZ5VHsqTV+bjq8FyzS51z3J3uebzjWe4VomBmh5Z/lGZoR2v4Y37I/w3f28XFljH2uGaojHQDabQVkvhRqE5bNpXl7GrqepdVjl5XCuMfg3YylD9qAWbn3V1cVvKeqUIeV6iqRD2M8dx7D98HI0zp9A2sqIVGIaOrFj/nAKssVFj6qrolGydPF4Lyn1N85MoUcnGTBGTIynZ1ioDlgJJJI1KDCMqYSqvIXVSyk/1tKgJqkY9BZZbskXKVkq4Lhv3z+3pqLuvbsBVsquo/UJ6AkHRsBQWCb2CRGfsilFHQheFDhKJSjOou2mTWhmNsrKJ4519eHr2Djw5/1N4cfItJKtpvr1I2/wi9wC9qZrrSFLqd3JEceXvbu0Ldq+eoWZApfr+zXUjQCOOkUSaBLeF3qCF509k+OsvrGApoyFTTiJjObQuJysrLB6QYWHb9YeocvOFHtcCG7XN49qgriuC5NnMR1VSp8qk0to59y+cx8WvfA6nHnkAnWxgl6oTONdyCHa1rwxXH1KoIqmU+euSUzwkKyokeTsiK/evVnV1SVTaqko2tKBKUr+iISWnxupjjqg2iEsQMUpZb1Z4OueuL+h5F/QC3L2jD0WtBvQGe0mILEm5P7Co1Qvxbjy6cDce3nUPnp+5A2vJzuv7TszqMmW+p5kRW5RMYnXYwhe/dQQPPAEsk3iDqF21ERIsEqu63JQhqYnUymDA47qAMsQjWvvA49pia9SCrQzJ8CVy7HZq1RRLX8mi++7DePHT/wG7B8v0rkRYUnaqBk51yahzlr/H1YLyeBAH9JhIVTQMMkssC/UF8pzOu/KK0KCbO5EG6FSpyTKL6UVF5hHR4JARwiS1pWcM+ayNZ2rOvJqS3DPlAehbrFlR0WxMmvdOyfW/5LyPiS5LmjhPbytA0yilQcsEXLOu621Xkmk8N3cnHtzzXnxnxztwdOJmDNDg218/9aO4jDjWUP3C9R/TKMiCGXp9B/DJr76Mxw7rXVgsWjS1yv1Lk0hLqTZySFfWbOtxLeH7sK4VlKuqrQbu1M0S/Nho/GDSIP7vPYJn/+3/jvLpR7BP46iykEq0iSxyVSMqWLWpFNVWvlUU19YAS0DjbyxPRSWV71NFpTlfyh3Xlo6qGMlTbp/lYSRE0nFX6omlEZkrXeebaauGO8MrVc7cqs+5Y/pO3lU9r77fLPst0oelJUL0ZuqzUv6dbu7EE7NvwMN734/H5t6BxeYelMy49rCPUvMhXSe4HM6RsI5lKQ2GqIN+HiFpJIj7x/HOW2L8Jx/bjVvmqrIRw1XQna58nHfsyMoq51Yooi0Nn73XEibVG+Ktv7LXUm1QOVlrwtmTWPrK54EjL2FX1EBAs66MmrTIVTQkq1IDHlUxPK4FogY9I7XQRlRIzHKFQOckDIu8ZAGl8nIsEjMjQakZiIXGY0qyrEOWT5xT8TE1MyYqv9YwRzvN0OC+jscFr9UsCkWKohggV8KQz+d3RBEGLOsBvzzlp5qBB5lsd3pragq0xQmVtkZVbajPKu/xfRs42ziAJ+fvxiN73oUn5t+MpcZOGl8RWkXG7K7WnrpeYHHLN9KktyHLWyUQ81OTzhTxDJ56eQlff2wJSyxqURLkaVniHn+2oy8JjlehP0n43L5WqOuiPqtts875WZQayKjBwReQfvvrOPfwN9BaXqKCY0UIEyqt2Kx4pxBpr/L+2kHzuJooMUhXMaQ3kOZdGgkKg04RJvSKFOVC61vUQdqiYiNhUdEWLI+SHq/OBNRcKhYpMDUNWhOhOvkjlp+NmSPpaBot1rKA3kQYB9YMpY7+BokqCgMqyJzek5r8SGoiTV6fNFu8T7MxBOjyZ3RV/pWKHHU0sxQN5s/51hyenHsTvrvjnXh67m1GXgooaeRD5lWKlPlwfWWa5RQ2mOskHTMOFeFHdkpT5n0b/XAGDzx+ysZnDfg7tdwPWCIgIWs+tA3SEi7Z8biG8E2C1wpiJhNibQi0nrlPG5vG+RDNQR948CE885d/itaz38VkGaGTsKLQKlefR0mrPmIlkXeliDONXXEF5Yvr6kFLs5CkmOdaziWkoaDisqbBIOIxp4WknNI8oLpiufCQlnOpP2ubr44KFNKmgiVIabTGpehESGrQi2XN5yW9LtIPlTq5SWsJUgGKBFWu1fMCtz6aLWqoi6hTW3LsalEaYTSzDKvJFB7doSVCPoCnZu/BhfZBNzcgjYOAHqpC3btRC216nTLIrgc0XlHTnGnaJm0pOlT5n5VNmyYtpgfYyM7hrTfP4B/+6jwOTcvPZZ3VqsRBm9ey4Fg0MmcUpKNmQU35VImAxzWCJ6xrhVr/SAOaonGWdnfYxQSt9+DwEZz7N/8OZ7/xVeyiVW8ztZtipBVPspLRp3WtrJ+D2lHjRjxZXV2wRED1BPIVcnpDisbLSFRKdHPoaVExJVrUj2pt1zyKHXNoTXbQmp5Ec3ISYVvXiHEEV07CkF4GWcp5YiSskJ/5WhfFag+DpSX0zi+iv7SCYPUi4u6ySp7GCZUkf4jmi2zyMbo3JFmFmp4op4fHq7aCl3WuuQ8vTN+BR3bdjUcX3k5PSzNYtDA57PMNejbdkgYEa7Xgts3Efr1kWu0XKnNWNG4ZacmczFVP6Wsx/1tBjlaxit/+0E589N0xZlnUQbqEJO6wfORJK2SjJiySlQJvPGFdU3jCukaoM1XVQv9NPZow06pcu4DVT30KZ//yrzFz8aIRVJGqiYJqSdsYoJSXVcqS05gcPsfa/D2uJkQAaySDghZ/ND2DcGYGg84E5m66DcHCPCb27Edz9x5gRuY1iSumUkqYWtW2vB+b546fZk+IadyTN5JA90gkpnUsUn72aKkPWJ5U4uiRwE6dxcXDL2Pp5ZdRnDlDT4S/aWkRjXRApUkiLLQWtbr+R18bPrjr/fja3p/BsYnbcLq9nxQQ2dyYmrFiyHzOaBQIcSnvSiRvuz9xKDdZ1WwhR03lJM8vLnso6SGGyQSdXv5Oer4tel6HJs7gVz58CO+6O8I0r9OoOFZaPYRFrh4uvoRFifLB4j+PawZPWNcIQ9JOIullpVCllHwPhj20VUse+x5e+KM/QvL4k9jdbNgcZkWmYnCElWU9BFSIZdFihSBhsYjUSDSuUIWvlfEPFkZeJX4geUsnmCFg9/Gfmuh0v1xYXccMV55pfkZ5OvXzM1rTfSqnIb2isN1G2uogP3gzZnbtxL5bbkZ4y60od+1GMDHh2upESmHMnLc4MH6vnqRvlU298Zv1V6keS6qB4NZkqKsVXcYfHfK7HbW532SovWb1jwxZvvTCyn4P6aPfxeqRw+geP4rBmdPoLy6i011DmA6pZOWB0Z7XvTm/QZ98dkEDx1oVmS0x9/XrtBRNWDVrul/mckw/1H69vAQ7+tooaExZ9CMVs7ySlM9VgIUCTuQtnW/uJEntNbL63sK96CY7kAb0QOVF5QP+qAL9qM1vjWzsm6Zb0nb9u37SUEnK800jR1hW91hrG3GIldU+Gs0pXhOhRRlIF1/GW2/v4O/86h7cPqdmT76TJsrleYmc7railEjqsMc1gyesa4QurepOQYW3xh0a5N0mBb1YQ3TqKLr/7s9x5vP3YYYSnlH41bSwXeEowMFsVXHOZagJR+dFCor2l7JBmFmggvqS8pyJCjW0gbb0aOwO0krOa0RScYRBo4PGgYOYvP0OzN9+O7D/EC7e+Ea0OzzeaNh1P0nozZXslblRO2giulgz9pOkcPIUuseO08j5DrqHv4+V48cRry4jYGpRuSpOYzBQoECMKGlSX2qqIeVVgWE2oAFEcqGn1myILPT80sgni2hQaV49I/kfDoXZ52GKjiasZP72IxpZzM/pbNkiIxdJTo/seDe+cPCncXjyTp6nVh8rRGiHi/j5exfw2+9PsEN11gwFDT1xZUapY8Gpo5GV3eOawRPWNYKWAwmoEMpMAROUYxns/UV0P/+3OPLnf4HJ02dYCUIq2rSy1rYnasKqvRXbEytthoiIOSoCUl+T68+p/J0sQ8LrYxGYjpr3QVuZu0tS5jNTiHbvw+Stt2HHG96C8NDNwL5DgLwoeSIJfSfeo2qgpO2fFHGJPATr+9ImP+TEaI67iF5Zg0ZPSSUY8B2tCfH0KeSHj2LppZew9OILWDv6MqKLi5gkYc3wfZv0uBTksUZG1+z9ikxMtCL1kHmUuTkT9fwhyUpz/omsriSQQ/5ak8S/RhnW9FRqyptUC3Ue4WxnHs/M3Y5v7X4Pnpp9F5YbO5iPr02CWwl95t90J8N8cgr/xW++EfccYF5bgbEE1XTPLWd0qDnFu1jXEp6wrhWylJZsTLKidZ+XmCwGwJPfxUt/9ifofedh7E2ojrQMvppsTNl6/CCImFxSBKWW4ZNScIozYd4ldDNIZRhQYWiuv4v0bJMde7Djzjux8Ja3IHjDXcDOPcDkLG/T+kpu5gkhsbYcNeMpmq+kRxLRgPjJKFwRlim7mrAEbiqa1JoT+U4ulo1ERIIIIzIGfycUYXrxIkDSOvfU4zj93YeQHTmCWZLVLPMnzPoWXTgoU/J5jpikFZZafbcODHHPlnNVGwo/DLzLvLHVJu8JhmgyzzuDGKdbB/DYwhvx8K634sm5n8JKcpDP0xIe8nDHB33meavBnOqewE+/dRf+wS/OY7dai42gmIkyeHhd/dfj2sET1rVCRh+LirRH+ZVP0D5/Duf+5F/j7Je/gMnVRXTiBMNBgTiS5bt9CasWvrqau0r/g6DmLP2VZ+CaB5V7a8y/ZRJ/OjONcOcO7HnbuzF3650Ibr0F2LGbF2m6IJYCyUjOk+hI36fQcn2KoOpq8JNsFhQpqeTN99GGfgI3bfCqONnIlEqRijFX811A0uF7qklUs3EEGVlsbRk4+hLSZ57GS488hO4LL2BheYVETNnii2ZpnzqV7xfzgfKo+AWaDiyhN6YJfF3/zQ+H8jsPmswbRfppapYIa8Esnly4B9/e+U48Pv8WnOwcohfn+qcUKj5OyFgOMixjWg0LjWX8/kcP4UO0gSZVYJVXVTIf9dbkMY9rCE9Y1wo0Mq3phcLe0WDD+7+Kp/75P8Ps4mm00ceAVlsUtJhoP2tsxzZF3YWiYAqpzh9EWFKaOqPL1X8lfa79PknoQqOFbP8B7Ln3Xux87weAPfSmWhN8doQhLeCCCkV9PbrHeKAiAVDpa0ZueVVCUXm69f61hgjLKbkqWs59vQN/rw5t0Inb0181Mdc+jEbnxZIfRRwuLgLHjuL0Jz6B008/hcl+F50itYG6hbzQKq8VPJGIFO15r01Y6iPsRQ1MD4bMvxIXklk8MXsLHjrwITw58zacbt+EXOMIhytWPhowPU7ItAAk31+RvC2s4O4DQ/zXf2cP9tHh1ewlgbwsGgUZ89IT1rWFJ6xrBeYq1QQtXQr7iWM4+S/+NVYf+Brmsy4VwNAmRo3zJpUJlUYwvhGAr4VXJaySf0kmGgsT0gMN6SrkQypenko0E0ipZT4CdBsN4OB+7H73vZh43we5fRMvaIvRJNn2tPW0ScrVKuai/KTwdf76YL1JcPPv2/Q7ta1de5X6ncwjCkw51vymI6II6/pT+DyNovyx7+HEl+9H78knMLO2giYVa65maoXiJ8w/GkwJ79JM5a8FfZOmUgqzJs439+DZuTvxtf3vxBNzd2Mx3seya6NFby8KuiRTzSw/Xmo7pVep3IrDSebvEHs7Z/GRn5rAb39gFlNWCqzj9GB7zN923HQ3eVwTeMK6RpAYB5oFur+C7P77cfgv/j2aJK4OxT+NMuuLaWTqV6DSEqltU2wmLOdD8ZimvpGVLq+g6iewdYu4uZIWWAwSTN5+J3a/4x3o/MyHgPl5oDNlVrCGOjX0zJqHpORrEbcPnuR/lY/SdVWtm2veJs6qYUQl8NPlU+1nMol1K/LSewj2yjqlcPZsDbhwGsPvPoyzD34TS997Ep21Hj0uGlFqPk0HCKhkzTt4DWh47GS6hiOdQ3h84W58Z+e78L35t2M5WaD8Rja7hfpzehqjxl9xeczMlodaSmhYBmUbGYl+MjiP23cN8I9+/QbcPksZYhZqHJeGFuifx7WDJ6xrhCGztaHxJy+/iCN/9M/Q/dZD2EmBDsqMhKW+C7WJm+6kjtm+RVATljkQVT4oajIjaSnSTU2qmiqnjBMMgiZaew5g10+9HZ133QvceQfQbiGlosykwPmwJp9HfezATz3ReW38Anu8TkrDaJuoP68H9HvENtVP0m59qMqWdagJUJcZJdi78Mr1d9DVLvd0uK+pnxQcEaYISTTl2bMIHn0SL9/3Faw9/Rx28P6IhGWzL1/B+2sGkD69i8cW3oSH1Ge1cA9Ot29BnJXoZH0k5cCWU+nFHf5uRWyOmQHG7C1skBtzX1GA+RraxTl87J378HsfbmOOjr71KSovr8AA8PjR4QnrGiElMcUri8B9n8Ozf/yvMbl4HjPNNlIqYkUOaoS8OqdNX1gP+/aECEuq1lbrNZXLfSqFYZ4haicYkrBWB330p2bR+an34Lb3fxjlXW9GMD2LXDMnRLL/XZOYmgzrnOTj1mF6RGIuRW/gkTrYoP68HtDr1oTFZAF8m1Cf1qdOSRWaOtSB+sz6PZc+xJaAJ80VZYo23zHUDBtHjmP1S/fj2P1fRnLmLD2FIfPstSP6lpNpfHfHvXhs/i48M3cXjndu5Le3MZGSrNQ/pu+KFcuY0Ltyi2KOEzI1TTPjbWhF1GatjVAOFrGzsYh//Du34u0306vnK4eBplTbvnX5JwFPWNcIJRVF8OTjeO6P/wjJd7+NOZEThToPGlQztENJWGWoYAsp6+072LAWPqduqz1aqUMq0lyh2cy3hb27Mfv+j6D4yK8i3LkLaDbpbZHgqBwiiq9moZCiliirWcZRmBK1zLp0Vwqdh6Si615DTX513bC55hnP8IARqx2pfrKa/Oxk/QYGXVLTgiOy6l5eXdLjMZmytb54hDp0hd7QZJQi6tKIeuTbOPKlL6H83qOYWOvaNT8MhycO4n9783+Fc81bsRbvZN4laKYriOnBDaImvasmvzXCBD0Pwc1gMT4YpAUajZB5usY8b6LU0v4K/BmcwM/eHeEPf3EvdjVZBvLC1t17j2sBT1ivA8ool1kK3ZVC1L78JKpMs7B4gNqjl6fo9Bdx7i/+Asf++j9i3+pFTDWpfAcam8XKTYUsq9TNQ0brrW4XGxMoqkxv5gb7uhFFSpY9fFcRk/3ja+d92JIbUawrMvOENOnsuW6KC60J7Pvgh7HvF34euOVWoDNjClypjm5zf3lv5VnoY534hPVNO2HQofrw6OW83qXatN/r3qb66euoL6nhztdHKZvKCGWwTjBJWpW3gbwfC4dfw8p9X8SZL34e6ZOPYk8zRpY00Rv00GI5TBQZjjZvwGOTd+L5mz6Eb86+jeQ0QVnXasIKGKIBZv02NBIoz7lC7k2O1XLg6sa4oO5f1QwhCr5QE6lm4I+whl2tHv7Bxw7gA2+geNoAiwneIel0NcAJpOYdcTkjKg9EbFYu+uPxejB69XWEIXXgqqK2ZN+qSU+U5eRPhzWPnDq1FRm4/MQTmM0ytOkJpGlGy0yelS6T+Etxu3/jCMsXVXRWzppANnJKn+YTIG7EyIuU+SOfR6N8Ihzv0xO45Xa89ff/APt+63eAO96ErD3FW1jdq/4aPWUj57hVHXDHqh07UCc7YdCm+wWjiE2/ufrR7u+lqM9uXCXUe1U+uawy2KaeGcZAowPM7cTUx34Zt/zhP8TMh38GZ5st9IYDTDcTRDQYTsQ7bD2rp2/5KL49cTcG4QyVtAYgsxRZcBuLS4bWDFgvz7H+hWMEKw4TYbd6ggJMAjXpk+BXBm1879keFnv0xFj3HfRZbdvHpnypL/H4kTCadXbE4XwEjUgxewlhxkoseWRuKqhCq8yev/8rWH3h+xaVpas11actYVEJrl0uZW6dueMFvZOsbM1CYYsaWqJikwVus1rXFThEP19F0o7RaHfQKxJcSGaw830/jRv+4A8Q/eLPo7z5INBkvjmN4XEVkTVIOPe8A3v/4f8J+3/1dxDOzmJpcQ0Xymk8se9deGDnPfSwbsHKxC5EuULgpayd/GqgrCYTlp+hcW6C9sbNu6phost/NeNIB2j+yiG9zcefPYoXj9NYjSaNzF3LAvOpyit96p/TFkJ13ON1wxPWjwITROclWbOLZlrXIVpdmgMOz7+EU19/AHPdPprDIbKc3oMi2XhRHQxgUUUU7HEsANccoj46934iLMsvWf3WFGqX8ZoSdLBQMC/ODzKsze7GwZ/7Nez4vb8PvOd9SOfn0aVi1IqvkXkcHlcTYZJjkIToHroRnV/7A+z/9b+H8m0fwHM73ogHd74Hz+29F8cae5j5DZYZy9S8KDeTRaFmLpalmgM17iqgISJP6/qtb3XtIPF1Tfh6f9V6vSPJapBTxju4sBbhwScWseLa/XgJz1+WD5Jek2B3K5OX5x8F46gvrymUYSUl2P3THgUvpE3Fj0AzWgy6OPuVryE6dxaTpKiQFVtirk5pybDucc7CpQI9TpA1Wqu2lBVTg6QtRF1rfYVqRnWWeMTK3UqmsVzGyA/cgP2/8suY/O3fBG64CcOozdxroUGF0ECCkl6rx9WFvIRoSNLqc2fHDPDrv4lD/+V/gfBnf4blcZA6NaYMR4jTFFnMxPKT0tZA9yDoMSks3g3RMNPE+rDGTxHb+/G1HEG7/ii9ZxRpoUd6mPEsnnx5FXS0LoWqeF3N620+Rwbb+Nb+awtJmMfrgKqjQrBVOTWRqAkfvQRWZxIZCevYMXS/8yhmpLILelZ2XhO2qi9HTWOuuUzYLM9jBxKVlJiai/JQ0wLRQi1TTQjAXHBvrZw40i0Q33oXbv+N30L7Yz9HxTmPtNW2mcYVh6El5bXQ03ae0f6aIYtZHg1MtSi/EuxOguCuW/GhP/gl/Oov3YM79yVoDRdRDAc2D6OCDXKWp6ZecpNKacCwvCqWkyqCOMtZY2MG1XO+H9/NDUfhO9L6jOLYBhTn8SQu9Jr40rcugk4XkTAjXB2/tMW/rvf65/GjwBPW64DqtJJBsie55UePNbbAEMGgh/SRh9E6dhRRNrTWwlRWmXVwgQo4MCVsY4IEnh9HwTXvUy/PF3RLkDuSjqncsn7fSH7AF1+j4pt8z/tw8Jd/HfjAhxHM7UCqlX3JTaKnhNeoKVDh656wrj5KW6DSDUaOqYgz5rUMq0ac2diiX3v/Drz5piaydJEXqxwb1NNN9GmXlfQs1PxXmSV6GlP9OX5ws9wL7v2Ml0VKkbyvBmv/JB5/4RyeOwkMeWlu1zuCctA2k3lounk88+laQ1LocYUwkZWc1bnGbYmhKnlbW0eP4cy3H0Zz5YKd1mSjSqrS9ezijqyYQoqtNaGMXxEoOlD9VtZJz22lmKZmk0pPZLbG/eVmCzve8R7c+J/+IwQffB8wPas7bfYPTcyqeyzDmT0uznD88ul6QzpVM4kU6DJ/hySuBHHWQjgcohWcxdtIWr/6swu49y2TaKU95GsDJPSy4lCh25ozT6TFIqIhIinPQzUXSr7HDVbzN0FSrL+KFsxZ/0n2zLtBOYX7Hj2NNWWBloIhOckxM+5yDMedccyfnxy8Fng9qMhGgW51zsk6teGZQ9LW089i9YXnKKR9U7EasRko1QKu+yngBbWx2sXrf+MJKTG9r+haBMQcIWFpoOm51gQ673o/Or//B8ANN6JoT9GAD5FnVAC57iOqiu5y3ONaIERKyulVe00Tb1OucYf536Fc9/GWPcD/8RcW8OG7GpiPTgG9C2jRCVYzr4wI8zxknFgpVWU+ZnCkzI3Nr0YCCnhQeWiDMEVaQYJHX+rj+EUZAvVllTxLoC2asp5vsLrA43XBE9brRslqLAmudimP1iRyfgmnvvsEmv0eigYVL70nzYStpjFVajOwSFTWfk1B167RlWmI8UL9jhZZZW+qSkt7lJs9elaH7n0/Dv7mbwG330YbNbJ52nRF2KQm1My1yiwpBLvLJY+rD+V5SVoKy7YZFMpntfwpaRhsWDbRKjIcoEP1mx+exs/duwdzEysYDC6wbGmg8YbKHOFG9TmGpaV2AWstsD33fqJreVcIMx6nZ1nmlO8YZ/oT+Pbja+hqEht1YLmbePX45s9PEjT6vY96xTAPSXO0lWhQ0RoJMRWDVYRPP4Wn/4f/N+bOnUAYdKkAmkZYEtC8ulDEJkHXekaq6LGRGs8o8uoSQd68rXt1ROqlhs67Z68vR17/mOr69b9GkqxYPK9PRem5baeuikiKx139Q8FL3EgSbbumvTrwRMdrYtZVNTSTt3lW/K2KFFxrJGjceRcO/YM/BN7wZpyLW9ihC+lV8TLe4N5F7+rUZw09Y/OTXx31W7zWdR4OKXNM/r9EwjIvpnwgwzAr0SpbTsQUyh4X6GcZLhRt/PGnT+FrT66gG+3knQ0aZq5fVlAZmuGxXhJjAskx3ywPNZpSzaDMNdUZkpVqbqmoK6tOqmEB3rLzNP7b37sZN0wUiHiNG2At41TX0Ptiviprq5rr8TrgCet1QOtbCYlmow4Da1DR6j/B0nmc/1//Z6x+8+uY6K+hTKjYaZnWilNk5CwsHdmkTiXzirIysRfceadGFAbPo+WQlYNWHIlHsRtqYcgzTQ3T5KVUGIEaJXkPSS/ntaWpIREAv5GaJGoDkTy+5hCtGT4gGXA7RajYhkaJYaeHvMV9PjwMaW3zp9uSE/yikgQk70drU2nutDjvUH/xGwZ8vR7V0pCVd9hEOYhJ2iGyXoBswN+R8r36QHvAZ6Yhuo02zkzOIH7nPXjT7/0ucMOtKONJWwokifh7+ItV6QMmswn49VIIeg/Su/3VWB/92+BW5U21o7FAfDXNEagjyhGvDK4ilM8krIJy/eLFAP/u0y/i0RfnsFpMoGgVlLhly/i43FPJs9yLV4OrP+ONEBM4h//kVw7gI3exDpTnKZ/TlPHEtRyyrrPacF9HvJS+XnjCeh1w1Y0VkoRVKrw3oEImMeGpJ/DsP/kfMXHsMJU0CaBB1SpzUzlbfUjl2s5lUEtKZm3hei4/+SXmv2h8B8mhMA1Olc1rYlq9IhHNaCbPCPEQfazQ41tG1CmRWOJ3kYAW7mgjThLELX5BizVERl7CGhORTaTRtbhUJC1PC5CbmmrGoHZ2eTqKILMfzuNViK6YSN6Yrauq62RZ0so2pugxT/pDkhlt9F4DxVoD5SIt0NWI+bGAten9OPQH/zlw8I28d46EOqPXcqpN9Vapyh5t8um2K4LSTxAyHSTqXKxvqfelDNyP0cvqrMdVw5DmGglrQOPghXPAn3/qNL53dIhhMoUuPeRGs0H5bCIfyrjaKBEHVwPGHzS9WD+j7Bw+es8c/vAXJjCHNeaHAlRYV0yOXQuLrlXt8Xh98IT1OmFWf0bJo0K3po9+F8uf/ARe+Ff/AofoejRJZr2Inpe1cTm4JjfnJ2zAKVQRFp0QKmgNpKVHxEdbhB29HfldSgrSKOktrQ5XqYszkhKts0leP9FHY65EZ46VhPvhJL+zzYfR6kWwyCRi0Ta/l5/2HPtO7btjgpp2UMoz2/SbramRHhs/62bHJJEvxGvsGImOn3I2RXYR/4UkOqesRGItoMvnd/kbwlkUnV0I998JLNyEsr0XwcRevug0L72B14tl6V2xYmtIsX6jnmKkZT/YHdDMGYKj9w3o1+l6UbnOuiPuN3tcRTDTU2ZxQXvgsWPAn/zN8zh8YQK9YN5aG8psjdWCnkQlL5dC5TLuoKFJQy5Ll3DbjgH+8187gLv3UBLV5mqRWg5SDU5ePV4vPGG9LpA86G3krJABvZOYVicunMHz/+s/Qfng17CH3laDFXaZV7o511zWuv4nbZOyVJeNzFyltuZCeWrWlGJj6u14ymdlIVOcIm+SHJIC8S6S1WyJmYU2OjtJBCQrJH1+wRKfodWP6HvJW+PzG2I+EccmYspSEpYxgH6CrMGMFay28+SZ8Pfocv68iKR7OdK+Bo0qVFdJk5/S66tIrKCbpmZDTbOkb4toibe4HeTq32ryXVpYzmMMowmUjTk02zOYaM8j6LwVjYmb+C6H+C6s3QFJrGzz2WryVNNoVa3tZ1eK0N5B9O9MAOUaD3LbXas3qu7yuEoYsmwbyn965JpmTNNlPXwY+MvPncTTRym5rQXKxpopbAUcbVso2pV1dwrn8Rv37sFvvauJiZaTV2u61ocXzh8ZnrBeF+jxsOKmrJQxhS5eWUF5/GU89n/9v+DA4lkka6totNtYpEEVajVBQrK5rkrXicodVVJgRpLxClphOYkgj4dIoxRpzMo/k6G9K8DUngjNWRLIrh6yZo/P5r0hCSroOq+jClbQN0p5iyzjkpYuFYd5QcHQtutmv9pTEdx4qWrHOocr0ONaR328XknWWHfoiKL+7ooIBb2t3jmyZkNHhGqKLBXry9+es8YOhzmt8ZDvMIk8mkfYPEiv8Q2Ipu5EtPAWOl30vMJ5PkVzhkgJcpdfoVyzPzYtkH6jSCviNfJIneelBphtrDKvCVIZVCyzKHFlLwNnNZzCN54A/v19J3FkqUPDqoFcC29e0iRIWTDjbTOsAJk25HAcoNfM1L4eNWlHXsBbD5T4x7+yF4cUWaSoSppSqiUb9a369LhieMJ6HZD3IJWtWaob9FaipQt46Y/+dwy/dh929VfQ0GrCVNJ9elmq2NlwaM2HIa8XWelTzWbKcfVNRVHM67Qc/IAW7CpSklEwTa9nZoCDb94LzA+AyTVWgIuU8j55QuTjfos0eL2pAlyXfdYakYeW4a+xfotduREMYiCxySO7EoQkvnVUj9/4FoEeXQUdt6ZHwoiGv8tFFIpgXBygEAU2SID52kQaTqCPaQziPYgn78DM7rcjWbibjz3AB6jfi96XSImFoLuVrSwS40xZrfIY8zxlvja57ynr6kKlZJnMT9WCAms9lmWnic8/Qk/rvpdwZkADgzKt7s+CdSGKQvR7A0xMTNK7rwyXqtzd57gRlgQ9w6BI0AxTzGSn8I9/9Q685w6g1VAEZklCi9GosnI9KzyuGJ6wXgekalNml2Ydb6o58Jmn8Nj/8j9i55EXMZG7lVtTeiNZqGg2qmXWR6lot2wb7y9oZVF7K6IvpWrOeEGR9JBPdTGxEGN6fwvt/bx3XiphCWGbhBfxupLERcQKcniFtfpKqOLUZCHUhFTfWROHoFObvaMfhprX7NH2jEtRW9JqntRJzfJRPzkgMdqs7bxGhGW/MWggLobMH3dVSUIslH9RhzZ8m3m5m3lwCJ2pGxBO3YxYnld7N6/cyTSPjIpBY7vk7cqot+ZUEmA9C4PH1YTIReWrMuSHFVmBAUvvDO2Yf3//Rdz/0Cr6NDoUJTscDJA0mpR5yom1gfHT5KNOwpgSFgW/EYdIBufwq+/YiT/4uQ7aPJeVXRpZbRJWZUzV2eBxxfCE9TqgjEoL+gY06ZP+AMVn/gbf+d//F9yWrbJSkoSCmEq6asOXhRkmZukrLFzjWxBn9CJ6pKollM0UnbkmmrtKNG8aorPQAWZZgaNF9IoVRE2FeNOb4PcpSi8ELVcWVaimupKKwH4PJZ6kZ5+EC6ZwSsAt6UHUxFKRif5KcawXOivSFRPWphrmaIeon0/UTxXx6Ou0JwISai9L0HEjM31v0bZl7sOyJi4Feui7RNokJFrsedDGMNyBcuqNmJy/DQ16XcHEm/iSB3nVgt0lT8v5bSRLxex7wrrqkMGmXNaHiRn/DCn7eWMaz1+kl/WpM3j05T6LdB5pnls5hoEWL5XX29gWhKVG6QHfPUoayPtLuHMhx//tPzuAWdma+SqiuI2Ywh84C8vjdcIT1uuABq4rs0wVXljExX/5/8OFz34K+7MuBjTz+5rRmsRC798UqGZzVjDCUAOTmgP0g2Uq3R7ae4CpfSUmdraBHVSw04suYEIDNaTIxXfcVMR8VDQRUwGH9CaCcIXnUlMW4kS1iQvmsehzE/HUdcHO1BYdcfm+YjNcgMhr43JiC6wvYwP1aVIwlZW8HAf39CHP83tFsLxQSQEiucLrCS3uGGWxIzaFpaufzbwlQtcyQ+V1ZYo4TG5AY/YuNGbegmjXW/kS+2gMkNDcgi4+6OJaQGLDTLV8ZdFIa9j6WOEAayKnZApPHQX++X98Gc9d0JAKGlw0mkIaHG5Moa7X3XUS+KAxg4xT6/+NmxiQqKeCFfy3v3HAmgXbwYBVjwZtSlmnB+aF9PXDE9brQF61y9vYpReex4v/5P+D+RefwexgBSusoL04Yb0O0cqoYIPMlsjIygxZNEQyQ87alaO1N0XzEAV6YYkHuvTKMgz6VPHNEolG+bLyZ5lGYjnSUrCeBvPmhQbYkrTcT3lN1KHoQu351Nj8DFvjx9r4Xhvm3b0CJBcqotrLE2pPT0dsyh+er1NNevprxMW8EYyE6Y254BBHxPIuC1t7SUHz9DI1swDzRhZsGcxSSe5Ea/4tCGfuQTT/LmDyzShsBoZL39Hjx4eoZV1MrPCYLKNzpFpGJ2pa7+jHvw382ddW0O/1aWBRcFnmoZblZ73YFoSV0mSlFViQqNXiEhZdvGfPOfzj37oVe6bcIHiNC7BYJS+krxvRf0dU29sUqnnqI5KlL8W7oejdOVeppJA14We/20WDlXT4jW/gwoPfxuRACrXEoIqGE6EVkZ6TYRivYDi7iOYtPcz/VI7OnTni/V26V6uuedACDkhWYiV+TZ5RnOnG2VRHFHYXPi7Fr9FY1XH7ltfG5arhEog0Np00PXIF0PfzDS9LQt0sWD2Iz3dHNv3lf+WmQURVXapZPtwJklWl0LRInk0aSu9L/R8aRK2ACmWSmpgaVIQJyyAulzHoHsdw9QjylaNIhqd43wUEiYIzOkwkNz5GraPWjULCNa+QO3U5W7+X5a5+hPuF9tMuz5TLdrcjLA9tYyMpxyL12TIfNTJxfgFYWcpx4tRFesNTFmSgi9TPqAAfi5Sze1UW2hgvaCmh0DJKRqfqMfXB2nncfedO7JrWVGzq626++pvXIujEkPkkelP9twxzB7c5PGEJxkkUiErQNqATSu64qbYsR9JbxNnPfhrZCy9gil7XoKDybKrSkqSKHnrJAGlrCY39GebfHGLmzfTMDq0BE4so4ov2OAVeaFlxmqHOq6iE26LbRChS5PYp+ZXI1uRwhdBP/kHpMmz2gH5YeuWD6uSwfuQV91S4bNehJj53Qn9r43P9OSJAKgItBmnNipX3qOMNhf+XqygHx0laRxCtvIAgavCRfAK1ZCzLn9cXfI7W1HIBAO75ar7R/oaO4HfZ3xp2lb7I7W5jrOdAnUFVWg+oMAUNtMlPnVaCI6e6OLsWsl5MKaMRKa9peEje5VlrujHdM06QYVRSTiWzlht8b22F+QA37Z3GLfu5V8rzbLn8W5c82zFY06k2+EdZ6wzV8cqnHwc+JyQZtPxckgcji0ZJ01g6qpAA1amjyKfTx7F0+Ck00iWq2j7COMGwzLFWrCBvr6JzMMXBn+1g9wdjdEhW2NmlD7fIay7t87nSpjgPwsjvldBch1Go6W9WMcxewtLKd3D22f8VK8//j8CZPwX6D6IZnKXVSy+YNkC/iJEzaXyYm/NOoR6qBkquxK2kpS14j5SrQmacB+bxWlAu3noIeOeb9mJWg9qH9ChkMMjYIEnR52WSseaafccJkhwtaumCh1jvKTsaAtMvEjx75Ly142giXImyNQ0yP9QWbpNfM6nfVvaqPUiPEPFtmiHDw8nXtocZ7CYoahZUPw2TCQwrlZSb1rTifqy2+nIZwUsvITy1iomsiTyNsVIMcTFcRHxgDXvfnWP3h3qI7ziHdN8J9FvH0QsvIkgoyGZ9NZmcVW8WmR7s8ZoQuYtM6qQ6bfmoFkVzRrtoRKtot86hWXwHxYW/xPILf4ThC/8KOPsZJNlTaEdrJDc+i1le5IokbDPVhonTE1YhZOZacsfcX7fl8cMR5hk0Q9g73xDg7hvaCIcXXDM5YpYhvSoNYmeea3/c8lRV2bpv5U1SKNWkZzPKtGZx+MwQp1c1AFvNgRJa9WfZhGwUM2c0qQXHdFCdLToglcRnejh4wqI0lLR01OfkJIMWjVk1VdZIeIzMKISyiHp9XHjuMMK1IcIkxEpzCdneJSzcU2DvB5qI30oJ27+EYbTEp6lyqhLzkcOQBhUVo5SsrHYpYJ7whPX6YLN0sCzcToAoYJ6XHUQ5FUHOMkqpMJv0hHld1H0WvVOfxcoL/xrDF/8FsPg3iPOnkWgKIWY7dSuhErpccdaagp+0ZhRFefkVHq8OtU6E6QA3zAMfevssbtxLwyDvsS6IoFSRJO/O+KhKcaxgBMXkWk/km8v8beLcSoAXjug8CSqnl8lrXMOh++dkUKTFT8m3F7hXhScsg9rTKSG1R1VZfyZyPOy6PsU6JLKVDGePnaJ7v4zB1BkUB09j93uHmHsXheymLtA4h7XhMr371CZGj4aB5qulyDZJhW5qFofUyMusLY/XDSN6ptJWdE4s9L9hA5FZmiyGMCswkeQkrpMIVr+OlcN/geVn/jmCU38DDJ+k8bFk3VwiPXseHyfPy2CHqh191MnjNaHIwKjQAIQ+bj0A3HFjB2n3LM+wrFh/Ss1Bqb0xNNQcATvCMiEyIzfHIC2w0g9x+BRNWL628kHjXioRXk9Oxioit4O265KHwQddENbEZGRVHaCAyJ3XTBSZtJgJIC3HLMTSi4dx6ntfwS239rHwxiVM37WE4MYLKJrLvGeFz1Jb/QQShXNzW//0qdED1vBUCZ9mvwjVj2JC6tupXwtG7iIXVmRlYWDzCCpvCbUJFjQrrBmPHpGFxSc2Z6GiLBthgE60Ssv/LHqLR5H1V5DEvKeZ8EGzvNbZbbrdPVD3VQpD5+yTqD89fjBURiqPqG9jsOJ2G8++fBFrgxbJTFGCLCrlo5rHWafGKUv16lIhlEBu08il7MnjirRuXTZEUvZwJwl8rqNJAXilZJkfWmNO1pJFF5qucTAZVI5tOrbd4QmrwnokjmQj1FIb8qo0+DFETEmMjVSWgf7T2Dd7DK399O/3n0MxcxbDyCjPSC/S9TaZLRUo2cjGOVHgcl7DU3bMvoLP1GBgJ9z6Yo/Xgq1qbBv646xX66U2clHSuSErvo5nJCw3S4aMD/UpJGrSLRaxsnQEw95zdMXOImndjCAR8ZHkwhBDaRyWl1SFedZWfvxePtsX02tDg4WlZAMbkpCj0W4iyydx+MgiDcAmepqDU+MVWR5WXHbXeMDqsZGMdAV3KHehMRLNVgrQ0oWzmOx0sHt3grgpb7NanDWSfGp5WOaJxq5VObOeN56w1uEJiyglKLVGkrKD5p2Q2y6yYiZJ6HCW1z2B8uLn6D09jl7/SZTJMlYHOZo24FUeE0koGJjwlaywufVRVQp1Xfz0PY60HNSEUG16/FBYeLvb4n8ZGCwjHaiSeV2b9t0imypHKUgSEsslZrlE4YCbJ9G9eALpYIhWqwfNSCpCDGkNa1kTldhm6Ns2qRCPHwTlO3NLnq0WJG3FTUxORXjxyEWcvNC3MHcZh2U+ZL1Sro4RJJ8kIetaMH3iDKdhn6Zv3LJ8OXv+Ak6fBzozbcxM0aBCgmI4RNxQXuh+yZ6TNPeXkugJax2esCgUTg1KPKSmZFeTsgr5VHLnuZe+SOfqaxgc/xQuHvks4sHLrHhdRIkWtIjQyFq8MrZVgEVQiv0RCempIYXXOu0ld/w0cuJOTVL1p8cPh2WbhaFXzYD8a9FVCl7hASU1veo8fSK7QqTmmp1IUma4lkhtjscAbXq8cdlHf+1ZDFeOo6VmrIlZ3jJF0tKMIhsU5b5J2+6bPX4wVA42eJZyH6iZi3nXbkVY7AV4/vgKi2cKhTwOTePC68YKFWFpomfTKfLsSVhx0kF/yLxoTKCbFfj+8Qu4cH4NSWMa8/MBmvQ4YyMlXb+JsKSIuOcJawPbhLCs5IlXFrzOSKXVqsl9imRIPOZtHQMu3oeTh/8U/dNfx1x4gcqty7o2xGBQoBXyWrVBh0M3Nx6TVVbey00mKliSX21LOgXriMuaCLmt6zx+OERWrt5q1g95TS1ua9YE9VcpqVnFlWERdKzSa4WVuKQlz3s0+bAW3lRBSKGEWZPn19BpLSHtnsRFWr5FN0NzYoHe1gS/S6QlchR1Oal4NflxqAvwB53fPlDpqNtXeWYGQ9pDo9G0aYqePd7D+WUaDIFmLHd1ZaxAgooopyUaTMoBSSGNWBm/Iq2Mshk1KJ9NrKxleO6Zl5HlHRw8oPlC5d27ZI+yv4S17mjvctm6PO+2h+yN/VyCsraVHBWxUKW09MZV+UrHDWXsqc3dQttJNpnanNeA/mMoT30K3ZP/EdHg+2gEqUWlXQ496odl4mud97hOoAmbRSkSNJENNbHuTpTTb8LEXX8XaL2DBsWNNtg4oufcECma3Egly29wJObEqJqkt6CionypFXLbohZ05q1qXWjjGgOkNOL++MtdfPyrpxG0DyFd6fHTKefxwiblQrhoSFJXZUwpXzS4uCiYN0WORryMd71lGr/y/kncNANM58wXntPad2UU2WBjjRZ0LQf10x0RquvCoTbaNr53XDHWHpYrYBWirB2lTQVayw8/VG2khCQUMYUgDM8DKw+gOPZJrBz7LMnqKMmKd483t287yMPNI1nF2tCKyF0qi2V0z51EK2J5T04iiSaQaTkXyUolPk5hUJ5qcTCGUqqOjaMevlJUeSTPwNW9qgbSc+jSNHjuWBcX1wrWseaY5lOdAQ7SOTrikssLQS0rmfQJva3TJ8/jzOkuZqensGs+oQ6KbSFSXazIQQVmubtrbH6qoPPumnHH2BKWCnddn1TpkgObPwVa0nFILys/BZz7MlZf/kvki19DIz+CVljQItKUPrkCyTzGBNYsKz9AzYrcDugpRUUX+eAcBqunERd9hO0ZxMksr2owiZacqtCdYjBr3rUjPO4+XNrOsGYsVbYqX6q/zckAR88GePnEMpBMVtdsT8RxgMJWHdDMF20sXuzi2IkLiBpT2LEztAmFGzSa3PRhzhi6FMrRmqSY6ux2f8YWY9+HVRXnpWQlM5ifUjQ6nHM7lkWTHQUuuEGm+dI30A6PU02pDTqDll3XFDMKx/UYD1ifV+U1hzRK4ji2fssGfYEIZ9FbPYW030ODpBU152nTaPB3dZ+5UlImbpqhdfGSfG1jaDiIoNYIBRBwy/Y1UF7jsvp5Ey8eW8Fyrtn0NzyObQfqkTCOkKlfS31ecQfnl/p4md5WiWkc2B/a+MEgX4PGrykfHfVv5Kg7VpHWhrtffY4nxpiw1IKupIJkYoGafrK92io2O9k6iePgOMozn8bqS3+CsPstNMNVuydHi4SlIPcer3T9Fx7jAfVExSx8OQQKL1aEp8WIlqQgTVOSLyLrnUMyuIhgYp7W7y5eqzkICV7rpvPSSsmSM8WGSuJeaQtvJ9T1yv1lTlido2LVitLMnKQT4fljKU4sq6GrVsHbDwodsOmZwhJpoYAtHkvaWOnHOHlqiXzWwJ49MdoNRR0rl2rNRSlTPyn3ZBzpqMtFbQnjLX1jS1hWoG6TcMUq9aKAvtoM1iSVUTBEnB1G98hfY+X4J9AYPoKJYIWKiQqodNFmAWtaaJ6V7EdZjR5jAVV8ykOgyR6NcLij6ENFcnJPA5Cjso987STWVi4gokUcdWZ5zZQFY/AA1UM9AFaKwk1gup0lxKlNEdQmxckMsqEFzJ1GM8H5tQ6eOnLBZs13+SbDkXlO40FNrBv1dnwhFaR3lvyECmflAfWmlkELQyqqY8dPotcPsP/QJCYi9bLyBuqgMu1ZXvImPcX+O9SmwngT1vi+nXVQ8PWs4sij0icLuQobjcoewvw8DeSXgKN/jozeVdh/kp4WPSkNAua9SZ4iKQa8tg5Vraxrj7GATZ/Diq/JGdRXoHkII+4EuVZ+btJoSXhsFY3iFILVr2Fw+q+A5a/yotNoRAWyoSRLMVySC2f1elS4LDNy1UUeazLdfhBY6NDjshnLpbgFFcL2yUGpJ6MsG/aiSQecnipITlk4gQu9SXzzyTX8h/uHODfQErOktjJBkCTMJxJcUUcIiqqUNlqNxhlOe48jnKlHqBCdMNRbGpsTgGTVfRrZkb9F/6V/h2DpQZKT2o+BTMqKAqQl4UVWsmVcc0+TWx7jAs2oPSRL5aHGXEkPSIkqcads0o7V7AQ0VIIBGuURDM5/BqtHPk7S+jqvP4mWpvBSB2iukHdXlba7/618VKpR72uIvbYUfH3jLuDQXAnNIOMibytzksZk1fixDVApKM2KUdLgsQkGeIwGshaBLBpzOLU0hfsfXsWnvrqKoysl+jye0YgyWHZWz9hGcLVsHPEqgq/ylRUdlItA73EUpz6J5cP/Fq30aXSCNVuqPsCEkZOUlHVuCLwvD5pmiXuMGapKX5KgrIkw6DNp9IuDyj3TTPBxiUktyX/mS1h64Y+BxftYe45QRIZqoLF+UAlKaA3P20+R1KgJyuqK1Rdn9yvgQvlb5CkmqXPfeEMbibRP6JplrUlw+7CV5YqWXHFdDGoYLZhyGtOp5VGc0GhuTWG17OCT3zqJv31wiGOr9LSYj6WGBKiliPlWZ/N2ybnxJiyzQqROlLjLYwpdRvcI+kfux/LJz6CDx2ngtBDEbYRF07yqMMxcU1GoyVMVJ0jhMUVWDRD1GAuo+a+ZZYhzRX9SZQSJtSJn8QBFxLLeRFzlkKRVxGhjCcXi17F69D8iPf1VKo/zyChjmekPEdVGU832hCNrM/XM4LOeY+1haKxeIGE9fOsbdyGJQ9a1SgXxXFHI43K7Yw8tMaI+K+qaMuwz9ahf6N3Ly2SW5RmJq+xRJlexFO7Elx89ic8/sIRza8rR2qNnRq6T1vbo+6ukZauApaPgBwm1NvmhcTSa5VjxfOool6VmlUV/dAFfccgCduPtVdrPAWc+j8HJLyPqvYhWQ3fQ2qEAKBoQufOq1FxknlYlBtqypiKPscJ6JadyVZ9WCdfk4kpeZa7mY0pXHthYvA4V7Awu0MN6ECtH/grB6jdoziwizFzwhdSJyUwlo7WESm2bF2HKm0li5kRtzOByYV2xVF6T/oZBRILSVGY5blwAbpwv0ciolJkrWTSw4CYpcvXnaMl4tzwHs8k9Yvxg8qE/EgS9JCWtpLdl70vtI/ZWq0/SwmLawVcfO4/PPdTDyS6QKkq11le8TLrKAsrcQy+FDlWHJYGSRmdcbT1sPcJS4fKjLgMVtVMEG/tSCVb+tNpyCoDISuNAUB4mWX0Ow1N/jfbwaXQinuu7sHXN5K0ZptcVFWtJvV3vsxbZkzzGA5IXjbrSEiLrCwpKYeQNK+9aBuwzoWQpmjBTMEaEyeIkWt0H0Hv5z4ClRxEXS/QOHDFVT3Ib1TgvJ5d6mq5gcoI7tnCKRX/Va6UZZLilZkGSVkwlrFFYb791Eu2iCy2kWSQ0OLWEfk7CoserKZ3cEvO8kPk2btCgCGsGpHhobksNl1BS6I5FDZpw0AMrm0iHbtLgC/0duP87q/S2UhKYTtNLo8xpaS0TJzMO1qWvQrWvD9uUyXSJlG4pbDHC4s/VYET9apaNiofizcqgDkttuTELcrYLNdNErAQsSfVKNdIXkJ7+Ms4f/xsMes+QnFZpyei8rvbweG3IdMkDemBBbAoipGfVPf8AVo/8CdB/kLK0TIU7aeJp+oAXSb4UcdrgvpS2CzsgXIvQtsaNNzTQblFBa5AxPds8U67SKJDxoGAEq9e6cmsq16sB6bgmjSqtnBdFCc4v57j/wZfxjUcHONuniCWURQWG0ehW6JCjwYrAmMyUV9OsHmQ6UxKoK3Vg62GLERYLQM0FJsDOXjXD2JWMJVdkuU1HSp+J1hy30u8jP/F5LL38cYRrj7D4e1B0aBBqxm8Pj9dGQNJRM3EW57Zgp5oORUJTOIXs3GfQO/LXCAZP0FvQQnzql+BNJCS3aiwFVLJp8ulsaznr291h37kAzE6VKLKB82pDmptSrswhBSOorivHtjMkM4n6u7IcsWa8iGdwenkan/zKETzwTIElXlPGijIk0WvVbe4rB+ukfeskUceYHdEzZSl5wvqJQAUgiJhsTx/Ke9MGagxUUsHJ01ITzlHg1BfQO/ZpRMuPWjSgzQpXtlghNDegCtLD48qgDvJCc0tS5tTlokacVnEW/TMPYHjkb4HuQ5S8vmv44zVaG8ouNEXsINLyINl3gH2724g1HitVAAYVr/UdE+ZhuXzamqr16qHIC+TDDEOSlvyoYTyPIxeb+OJDJ/Hd7wM9qT6RmXVpuFyrk3LPaUr9ld7jFe7AlsSWqjkbeVxt1QdEVIEG97qBiCIrDeVs4CJw8RH0j30KWP0OZsIukoyWcpYgSykEikqyWQ48PK4UWeUFUM4KegG9Ai3qgFZxBude+hvg3N9S+i7KPzBZVFeDqZFa65pbpZ6KjUPbEXr3DrXP/t0tNLTwKRk+CphrylsRvPLI8kqtKFtUu14lNFoJoobW2FNgRYFBUaIxsw/fe2EF9z1wFifpZg2Yo5qcW/P5qP/PZtAwTejkTTloubjFhW5LEZbyWv2KGsLrLAX380VUKQvIFZNr+06wApx/CKtHPkmr91uYCM+7Aiwn+YAOiYoVgpXDdep6eLw2rLmZtT6koSPY4pGJPPUmGuUqdjSOYvnFP0Vx5GsIs7OIK+c9I30V1pRdKQ2TZD3DPWd7okQLQ+yeb6AZp2jE9ByGGkagTJM/IFXr8nu7o6+xWRpMzPyIYmq4Roq1QR/TC7fgqRdyfOqLizZGq0eth5x5WCoNKV40lUzELLyDd7ucNWxRvbelCMtBJXBpMx5tXiqEhGSkqXRYFmrP7X0XxdlPY3ju24jLNQSJaxMXQalZB0r0yjw8rgS1VxXlDUvq09JaWurTUpShzifFEJPFeXRf/t/o2X8SYfw8Ek0BZtaug9TFdqapGtKXCXNidiLC7JRCpephAcyjesP6XbY3Y63nhUG+ujz8PtrNCP1hgV4+iQceO48vPLSCVKtJhBMukEzh7jn1IP870nfBGCZ9lzxza2GLEZazERyqXOeHbLEoSGRfUJGwQAZPoTj+WZLVV6lEzvAsLQ6tZ2UX9xEGcqA9PF4f1q39yrMX3HyE7oQL+KFsDR7C4kufBZZfoKwp/IfyR0IzmeMfpzi8BKqXeWEG2DnfYvYMWIc3+lvUNFiuE9Z2z6vNalpRlaStbIiMhnljYhJdTOKbj1/AfY+UWE7JUVGbllWDSfc52awboeW5bmVsMcJSZivCRakCD2kWaFuRSJ5VehS9c1/A0skvIBw8j8mmlEVibrUsYrpfVbOONjWh7XavDB5XBGuCrmSl8rbkZamfRbOjlPTWbVpBplYnxjDN0B1oyLCaDFXNKJsKDFqHnlU9b1uCyjMPMTsJzM+3mUc9BKZgayivNryu7QqJjAjKdJbyrFRLUZN5lSCKS3SLLtCewumVCdz/4Ek88RKwxms1a4tpdw1y24Stnp9birAkwkpuRAt/uuU+lYUs2JKWbLkMdJ/ExXOfRpA+i0agwHYWXsRCZsFJqVhHrhaPKzpuu1I+Hh4/DJIjJ0skJibzqqg4oqxNOdLgYyCLSvSiJo2jN2D3Tb+Czty7qVDayLVkiRlZbiiGVToFEjhh3rYIhiWazIzJNutzmdEhCC+1C6xubvNMIiIaRiItJ4E0zSl3WvgxLQf0spZNA2bRAo6cifD1R07j9EXYsB673gLStK1erOrYFs7SLUVYynf7wVWkhKZvUbhFQZfYVn/NnsTakX+HyTMPY6qkUlEzoNpwM3pgvCcqEyurIswtqTlH88l5eLwWNPhXSdIi3SELVovuKdAYsUJ+AgxyklVxBybe+r8AO36Jx2ctEq5hQqs/6qupgtotemh7y14eK0gbODDbwGwrxVo/Y540qJxLxGWBIJumx6rIwe1NWuoj1TRVIh3XY5/ScSppkDeRhNR9FMiS5DVMpvC1Z4FPPtjHEi/V+looSF1MLuTCyZ8FXW7RLLW6s5VweT5reemikId1Ctnxr6JceZxKokerV3bHBuqpdgSbM07J7dgxD48fhlIGjhKNHjC5pWcGiOI1WrklVtOdCCbehx1v+EMU8R30xHbwLioIntsIy/aythlB6Mh7sh3ZyroK29Zcei6flGfySuWTXl7rtyvknVeJWaIWIlt9mJ8WUhHFRlpPv7yCx54H1mqOk1FFmPTpPju4NfN0SxGWstiy2TpjNSmp/sW0YNeAxe9g9cRXEQyOoYzUq+WVg8fVQxGkyCIZQfTUs7ZFo0YYoMgj9LJ5JNPvwdQNvwPs+gWEVBrrs5B7/EBoZgthbgZotzVyUsp0c711Nd7X5CuDJgHXzHUnzg7wlYdO4vA5IE0mmNHKQZGbu86xXbW9xbDlapUZDEGXSZPZVjOz9V/A0uG/QXP4GCaCReTqz7qkA9fD48dDrqVm1IClfivWd83iLmRhgmTqHZi+9beB3b+IPm7iSTV0ebw2nNbstIFmojkXnSdQ69Xt3hT4epHnqWs6THbQy0rxwBN9nKOaVCuUoc7OLWwBbCmtrnx2Npn+iqpoUZTnsXTkbzFYfBBJcMbOishCreLp4XG1YE0vTcTlAEGwTMWgGSn3AxMfQefW30ew414U0TxS1ii3mCNvKUtLauryeBWoqZT/yVVURBlKDUlhVmkhR9dnUzd9ucs9fjhiBa3kBVIaViv5BL711Hk89FRGI6oOUpNBoMyU2t+aMrnl3BD1B1iosBXCMnDhAfRP34dWcJL7uc0oEFlF0KQ4Hh5XCdZPMLAZ/uW9D8JdGDbfitaNvwfMf4iCuRfDvEQrdJGAgojKk9UPAbNJCkirZEy0E+aVjrnc4wcz0JGWx5Uh0CrEzNGiIPknbZxeCvCFb7yM06tuijCnE1OS2taVyS1GWCKigopBm4oKPIrhyc+hkz2HZjgkkanZZtJ5V5sGd3p4/LiwsX7UqCkJa5XWazD1Nszc8CvA3AeQhQfpH7TQJJEl5oFVNxGesH4ImDfKnpip0wzt08EFWri5xz2uFLLTI/2zUPYAWTCJ4+djfPsJaOlayi6lOB86+dyiWbvltHpJworKjMbXGWSnv4H+2S9jolyyfoWibCMPNC6GJWImmofH1UEYp1QAGfrlDmDqXrQO/gqC/R/FID5o1qvqv8ldYb2qHlcEhViUFhPQTOjBBoqodGdsElzLVR90ceVQ/J/yNKfRrsVrG+gHs/jyd47j5TMirASZpm3aomQlbDHCYmGEMZKYPu7yd7BK7ypOX7TOWi1gZtPiBD1e5/uvPK4usrKFtXwBmHwfJm/9T4BdH0ER7IQC3Zo8bzQlrz6Q7HkVe8WgASolpKAL9UzLS1jPP9959bogileeWZi7GewRBmEHRy8G+NpjXSzzAk3bpGjCrSqiW4qwJL6au6LMz6F3+pvAypNoRxlLKqTH1bBQ4xi9rWxAeIwosqKD9vTdmFIz4PyHKXIH0afMJZTIUFOC8b8URrbl2iyuI1hRtSadZg+KNRONY6tK8eqPvCtfm68YJKs8pMeqVa5zTVYXIQtC9JNJfPvJU3j0WYop5VMz/lS5vOUwEtWL2WxiuSGaGmfFDOUBRVypPdsNHtSguSGCtccwXHwIzfIEPa6Mlm7CQpBwDxFVwRbbvSFBb1+n18KrXbv52EbS2Del8YDew1milDNWdKvMPOoGYkreND8g3ziYQi++B43dvw7s+ADP7EKfzJTE8qskpwXvcT0udfJ4bWimmkL5piKge1VEuS16KbUUSOkyI+uBsW4yXC0HtDlRK6wLo5Wm29zGkFNK+92mCVP+KnAlLSOcWCzxyDMXscpDJTPW6VORltOzG4LLPxa0pm1hfWMkMCKENWDiP+WN5Y/mBVSYq6MubjFRYIs+guFhdE9+CuHge0jKPopiBwZxYoM6TXZpWTilOloZ/ZOEq7oVubBG18marDYFo9SzjG/G+rWXQBbZ0IRFqSaurQ57V8mLJq6lskxFWsEE3zGxPMxzrR3cRjn1Zkzf+Y+R7f1HPH+jbqRnr+mDlH9NZkqimGIb+qcRWJfnnsergXlHYzPUPJ/Kt1bTlmpx4hkiJmHFNArCXLOFKEc1bVNKJczE+6SMLVk9l2zTyJDFsY1zX9PPNcj4gzjFIBnYnJcxDfggYz61FvDk0TU89rJyPjadmhc07m2WIN7M5DzcisDEZTpmO6MDE4/rDbc+MAWtlrWSSkD5FBZukDZzT7o1zLooLz6KtbPPoRlk1BEB8qxv5zRdjrA+7ZJMjW0M9/bO87wEtLiEmqycZ7EpRbJcleOuA9elpqWsnKagT9EfdvvyRjaTXk12W0VlaKn7rLnG946tCaVJBdko1vgiqyQmoBvuRNn5IDo3/H3Ec2+22SuU6nB1HwH444D5V7RYpxM0qDdjEpOUbVyorouMMtqeGUmsMC83KpqI8naVtBxJk0nzDlrPFx9Hb41Gay352xN6dzd2rZ7hXflMUwol5XtlLcTDj57F6YtapUKGmi6QPpAxwP+mbC8l/VGT8BEhLHlFmzNH5CPFoGYW67VCJEUbXEB6+ktIekfRyGlp0TgIA2eBaZ5Am3ZfStqtHeIetY2x3iwqAtf2ZWRVwwk4UzXfovL7kmQGBEkqokcbDux+JeWz5tTbqgthipiH1ndCi54MpYmQtXaaphddKqcQLtyLmdt/H5j/eb7rvnWy8rhK0BRrNhE1N+k5aWn3gMcCa8riccqtjKj1ukzxtUmISW4iuLBqLVA5umtFdJfK9nYC1SCT6ng94FqkRbmWFxvE6KcJHn9uCc8cdy1XoS1BosxTa1btS1XyPaJiPhKEJbj8kaDyQzmnWZq1SaEM1ZFVXASWngAuPIipYJmX9nmOClPNCqXrV5FylcCaQh3RDP9JwPLt8kjJVyMrTW+1Garsm1MNLUIYaF0xGQIuqRlNSsZOWyJpXX7fFoDkS3Kjiq13UKXvxwuI5+/F9KFfIlm9l7VkL3JZ9JeRVR0k4PGjQHXVkZIpWh5hbab4yABV6DWNWEtuXlDrjyEhWTKvQMEFvGu9CFQ20hmXltF2grJCeakq7jwsJXemDCNkYQcXB5N48Mkcy6zSuXmnyq8MhbzaOjtHOAtHhrBqIXQ5pj2pEVlRTMrB3mGsnLwf8fAlROUqryORtVrMdGY0LX1drWNO+kc4x68Dqiy9lKwINQuogjsLVefTS1O17lPtTclii2iNuUT1IPtCj6weq+gjly79nlGFvMkk65hnhZAGEN+xF85jLfopTB38DWDHTyMrFmycVRjz/TYRlLY9Yf04UB1V0IrISfnZYGrR0q+a+/IG4qzqx+JVGYkqjzJ6UZQvyqWS+sDUCiPFbGS1roC3M5RbIn5HWEKe09ikRs3V19rage99fxVnafOv0c2yGYOYbSE9ra3QeDAihKWKr1TlmH3QxVdHgjK17AKrj+Hima8wYxW23qRSTGj1FlSqsvg1i7Y6ZPWMhikipe2MOkeVhHWyYh4FEYWTFpdySE2oQTBN4Z5Akc8wdXjTBM/wU0kRmMxvy9eM96opJm8xTVGxTDGfqWDUZMjztkYUhf9yYhxV6P0bFDB56Sl/8ko4g37nndj9rv8GwezPoCj2szIniKMuQsrYZg9L235G9h8HlKUityTaChVkxTwu6MmX9OhLGqVlsMIzy1S1Wm+siSxociskeRUqFipghQ5U3hbLz4zbrSF61whaZEQeKkleZKWsUd7I2JT8UlwHPL6cx/jrzx/FBarVobpfeKLYbHxJj66L+obMjwJGpMZZzhIhhZRZrDyScmC+abqWYHgU6eJ30CwP85ya+0hmPO6CgtQUVd+nTB9aYekRHg41geSFjAB+0motRPYm2Mzjcg1R2LUVmhvMONIObYAhgmzA1KUHskpiWrP8dYkWLijtpQZpb0DemtaLckvCbxXII4ypFmeRTrwL87f9HcrTm5hne3m8IePTy9I1hDr+zbaMS0QNbdN4CHJkNKoGZKVBpHlD6W3RA0v4GdnA7ARD3kRVzDLSUyjEVLg2Hm4bQ+1MhdYXqcFqWOvFkHVaSX1cGb2p75/s48VTbo5BtWRFkZoQJOvSFbU+FkZL+kdEs1AJ2medOS7DYmV4SHd25Qn0LzyGyWDNhFtEJSWszHXySuXLY+qgNdJypWTP2O7Y7O0kSRORjR1i9hipyL/oUUH0MSyHGBRd9PM+P2m50lIoFacdR259MRaGVoi1qC16tVrM0EZ8qk+rggVsmLGw8Z2jDP3KjD9/OV9AMv9hLNz0uzY3oAIsyjCx/mgzfWzm/02KwOMqQMpV0WoJjSdmcT5AmK4hKWk40YhoUvQaLAMRVEBDKxrQaMp69OzpbWW5GV7WDGgqjKWkpkH1gW8R2btWkEaUQW+p2re6zmzRdE3ywXTu+MUAT73ck9lJHUAvi+c107sDd6RHJfrVkVFBUI5AQzztfv4VwUj4LH7FkvIM2bNIX/7nGBz995gsj2EoLcICkFK0pj8Kt1uuXKTnOhmTjAqWNzuPa/vi8qY5NQOqoheF+q6Yw2GDZJWRgJT/amMRmTUsekjnFTlUlCmvV5lozExsJUP7FjEGNiu+TYela3mf3WN7Ks3Rz3sZPsOwg6L1QUzf/HvAjg/TC92BgAQtB9/ehK9R2z7Vh8dVwpDmvVpQBpSjB58t8fWn19AbsO7SikiHGZb6AVa6BYbDHmWwiyJqIieBZUmLhtcE+rzGNAXvt/nz1IJgzbTbs6TkXWXylmjYq3m0LK2xlepSrU7MFR6z3n7uo5vjrhty/L1f3IG79wBNcZUsB2tSkD5w/duqxcrRUcGIEJZ+Qi1kfaYWtJZbpBnY1+7Dxef+v+hc+A5a5SKGyZAWFy0vkZVuKzMq5hipjeymAuWxJGVmb3PCupysakvLouLCJhqs9EGjg358K3rJQXpfk/RomSKlDqVUoewU4GJIkku52Uc8OEHeWkQ5PIciPU2Nc55lscyiU6euC21/RXTiCCMNKGdTb0b7pn+IYPqjJOd9yMnbsQahW/MSd1iDhxRNVVrnm3pcLeQkpkg2Po3QYd7EBdbblrpUaB/1BxnOdzMsruY4sxLh2GKIUxd6OHK6izOrJXqZWgum+BTpAXlXCr5Q1OEoqdefLDLNxs73j2xudhn8TSMtGzJAMpeZL17SgGL1P08UL+O3PjSF37x3BxppQR3AvBNZqQAo7SodwRPWZZDzqo5C6ccgWuHelIYGUHGcAY79b1h68c+YoSfQDKg8qYgdUbl+KjVBmfvLg1LKsgkimc4iLHv6+EDvKoiIFWyi99ORsJBgavQQj/Cc1mzSVEEZr+9RaIckoaKxi/fsRqNzM2Zm70Q4eQudqR00rWaY0RO8j8Jp7d9qy5aIKtU5qE+aw+VFEhjJKWNKV4y8uscfpVHxIrL+9xGnRyniF0lZgZs9P2MhhlQk6iEPc2Q0NHJWHiungNWBiipKRQob3yTYWxoJ8hnynmnACJEG3l0BokJ9G6XNnKCpfsK8g5jEG8kYopc5ZP6k4R70wjdhx9v+O9pHN/L6nRa6rteOFchjv0h54Cq5yRqTx1UG5dbyOpCCdDlc57NKQGaDrlDJd2kTrfaAU+eAF4528a1Hj+DCWgMrwzaV8BxKGmH9tI9IwsenKZAjpgun8VpBrmOsIXSdLXFv3FCoWYDvGFiO6R0pv6YzbGsd6sfqDkN0omXcvmMZ/+ffvg23zOoMS0DjEvlPUq+7lDbfe70xMk2CmjvMNEO8xuyeoHJi5hVPo3z6/4He6fuRhOdNKUfF1rHgrzZMEfNTMzS4gBNXxTUljVZrNSJIJHRNpFTSeThHotqLaOoWJNN3IJm/k/m7j0TFFMzzQe1aJ18BJMbyfp0Q6/vCvMdbF0lex6lJnkGx9CR6F19CvnoEZf84kihDM6KqKXrIaE03mi2btUBRX04N8efkojdXRUylVIaIgaSl5b3zQFGIr4Ow+CAFhqSR1kdrmTce5ZSdsGfBOkv5DrQX3o32gV9BtvCHCBUxaZWd97E6+Oi/0YL0g6KAHRIMywiLKyWW0gDPHgW+98IKXji2ijOajrw1ZXPn1UKdpaniOZDQGKMNw7ojA9clNSVuV2Q0BNWcv9C4gP/sFw/hQ3dIv1CHRE7HaAVo5aECMq5IPfyEMCKEpSaYiEpQzVVy6zX2ahlY/BKWn/rvkfSeQavZw3Ao4du+DTORFq0spfTV/0KB476jDzXHsSIHLeZkA91yB4LpezC7cBvi+TcDE7ezpEVSU1TkatsuSATO9Y/CFpX1leSpxERC7Dq6C1V+ecR8VqwZ89Fl+V1EMGS5dZ9CceHrWDrzNLK1F9COL6IT07Ma0jDhd8m7yqSEypxPcwEzhmp6rTp4Q1hv1tVndey1oPFjNr6ElrWm8VHFlIxl/NH9ZBeCifdh6oZfBnZ9gN9+yAjLY4Sh5llrpqJho1B4lhd9J5ZqbDS2wtMvHAOeePYIvvqdi1jLpniuyToyzbJtUhFTpqyJt6RuoeddyZtWd9i2YL4Mh120ggv4hbdN4T/92DxoviqjmEsyGpU5o2e4jQRhOYefSoNkVP+YoHwRw5f+DXqH/widfBEJjex+1kdSOKW2HeEmnHXBDYLIKmCVLemdDssOhq2b6EW9AZh8C1o7P4qyTeIK5kgMk7yS+Uv5IxfY/a7BgJWff5VeG7yLnhIfyG0mER8/9QT3NJ63H1bSmlVz4Qnk5x/FYPHrGC49BKw9g6bC5/ldNnSOBKs29izu2W/aDJGVmjmdt6U1zpxnJW/rSjCsNFEjjVn/NH4q5+8MsYI5BHMfxMxNf4By9gMI8nmKHN9CgTweIwvrKnBCS1nWDCs5stJNnKt+loKypPCL1eEQL59p4BuPLeHhp89gsVjAoJy2YRzyslRXbMxmqKm0NQh+++qSiHnWyzTwehV37UvxX//qPty6oDxSZlf6wOozMULVY0QIS3aSsiqGmpotRq33ZSw//T+jsXwfEoWxaoQ7pTbexkKmcHJBijzWTMtErsloEyreiTcj3nEv4p3vch4VeIzXaexVaXPgXepFqV2/VOAKlXXVGvbDISmhkavuLXlI7sCGJnEDDyOzfvWdujgOL/Lj+8CZB9G78G0Mlx9DmJ5ClC6hwWts8mLeWzf5rU//xHsDels2OWo17VbdPHglyEI1Mw5p3PBe/hQ5ZqshPcyZ92Lq0G/ZEiEo92DI94lJbmoOvHzaJY/RgYmWEzP7lD4tSFhSXTpsTboyurhjTb4Uo0deBD7zrdN44RS96mCK18vjltnm5izUwzQYebsiopGbqck8yjHbOIvff/cUfuXd02iYN6uMdvlpGKGqEf13RLV9HWFhF2YFC1FJC33xq+if+hwmcJqKi+etuXCbj2Tny6tDVVFRmsZmEMwibd6CZNcH0LjxlxHt/gjdirswLOYpc2KWmHnGispt5awa4lyDHv/pmBS1nnslAslrRCWSZVPullgYRk5S+Grqc+3d6ifItV1M8Du0pLx+45vIJB1e3sBg0Oe5LhqaqYDPcdNvqdxZWUJHgpIIEY2e536lIj/5cQWI+LyYzxCxqmdvjWSVT7wb0wd+DcGOD/E37MCAVneiUdI87wlrtGFFwySjSAatPGJrG1BTLoWiSBXS7uSkHK6g02jgwM4At984iSTqYOnCOax11ygYknl6ZCmJK26YztmukMeZMmO1wOMw7WEiXMVbbpvFhHhdEW88LoPA1fXqphHAaBCW9B5VlusIlc46ivT4p5EvPUhLfIWnndKVwtrOhKXmrZj5kGcJ+uUsorl3onPgY4j2fQzB5LtJRweRFrHqJXNTnonRgH0qhcxHJXdcuHJhVLar7V9lYP1KulXCrAAFKgF9Yw07LHXADdeXNMXL9yGm59dIpnlFhixbxDA/Tw9HzxIJi0i5LcvZHlIRlL6nZqrq47UQaQYOPjOlkdOLdyJeeD+mDv46sPOn+avUlxchUfSY1J6sc/1gjxGGqIUyQgPExcNIKJwZI6NLs5EHJoeStyFCylRM22e+HeLgrgAz09NY663h7OIyhaOFKJlCbh2nMsG2J2LmlXoFydw0Lks0i2W88aYFLEwyVwtF0/K4BSq5fB0VbGiZ6wo1WTEDpbuUN4MXkS69gKYUj3RY4CZh3e5QFpSDBq2iQ2jv+ihat/wDYN/vYtD+ILrYYdWP/gspYpVbajp1Ho/4xbHA+gfBM69DDl2fFz0j9PipwcLqT1NHtr6VT+WzHJm577NlIHhc/VMppWzANAx308P5eXRu+XuYPvhbyNv3YEALmKVrA5gt+EYrzeYtPmhDNNcDL64U5MiMz1nDLILZ96PN78ICPSvstehKyVhAgoRFk3mMPlT+jlycHMoMUmuDiR0h+XNpSDJK0WL5U1azFezp5PjoW4A//MW9eM+b5liHVjEoNVvL9u1aEPqawFriX6T0XBOcWirx/Imh1WgZAcrv0CIGX2fdu8YYEcJymRJR4KJgEeg+g6z7ko2d0RpXZgzJurq8d36bYTXfiZXmm9E69MuI7vz7NCE/RBK40ZpJJHtqUgtCtc8rPzcpYylo5q1rSHEkoytenyiq36yFuGyz0lcT3qo/kR6dFZCaZPjA9e4tezitX1nG/E4VoUYu2Jiv9l0I9v4WZm/5b5A234t+sB89Xp/xfCCPS9DzBU3a6bauGCk66Eb06OY/ismDfxeYuZekt4PP0spr+lX6ocoUd73HiEOGRS1v1hdFaaJlJHlzUImqMDe1HdCTMrnMe2iVQ9y5E/i7H53HB++eRSs9jLx/prpye0KtWRZgMexbE/oAU3jxRNfC3+pQdnUrODNhdFCX73WGJE/ZREWan0fZ/T6C/AIVIwWRytFN6FgNjN3GSCdvQ/vWX0Jw269S6d+DYbnTupCk45u0lCIjI00WqpnWN/LK9LI1q6m4XcV2f39E1DfrcdaGWyV9Z31ORaY2cG64hkj+Tl4vqiyDKf7MOxDs/nnM7f876MyRUBJ5P9aQyPs3rOn6U4+8UnSzSSTT92DywC8Dsx/ib9vP52rKKRKnSF1P5AO3uf2zdVCX0+by0na17yTPej2RsB7Eal6O6IO1aBzFGmtIbyJdxU0Uu9/9mUn86vsOYkdz2d28XUH3qsxz5hfzigZAHk7h5RMruKBJMiqzzuIKzNsaHYwGYdFUSlNZ4rSmh6dQdI8xy7S0gJQKM8+8g3X5HDvovTbPMG/Nn/bOanZT5+gkusFuzN32K4j3/AyF7Q3oYc4iolSADXlVtsgiKy0t0L5cFbu36lauuMQ0tKxOaWvjgvrElcEcKT2C/zL7p8g9jXlyycbKWNK4J/0e3cQ//KHiIDXj6N4BK0hfYfjBAqCmzfmfR968m+85x2fKmuZfDRI2S1oxo0Yxlkfud/A5TO64+xq9u5r70rCJcuLtaO//FWDhfbx4Hv0Br6gtygpOwY2a/ejxaqhF14qf5WzJjqoU623JJesD5S/IWR+4M+Thfk4zmIIb0zlroosDdLx+4R1N/Nw796FRLlMmVE8oGfIm+FzNAmEybt6Fapee6p4/TpChW/BPs+GGfgypM06dG+Ic1a4tUcJr9PbKm1HCiIS151SyNLo1K8LiX2H46P8TjfQIlVKOYRwz+9asExUFvS2FA40RTDAUlUPlrGUu0ihBRmXcilYRphH6aQOrjXdg4rbfQfvAb/CGPdVd4wENYg6wjOGpb2DtyF9gYvVzaBRnrLak+awFejQaq4g0rfogQdEYYCjrmZ53mDd57RqCRh9Dnu4G04infwqTb/h/IWu83Zo0Ns9i4eFRY4mc9sefPYn7H+1jWStKR1pReoXKW/04E1ToLRpNBZJgkbKmsY/yOsYLbionEny0TBtxAR0avh95xxT+3oeBeRvvRtIO3YTXo4KR+C2iTDUXwRZqPIMs65mlcznGVe1oMUoXFceMoHeiFmVN2ZemHWTR7dhxy0foMbyT57Sw4njlgiZA1UKRCnufO/gh5J23YK2YYaYkSJIu5SK1GeYzykOZyHNLbCXahEzWKFeZbUMaO/TH890Ipj+MyRv+gAx3kM9UIM8oVTWPUUKHVe7n3r8X73zTAo2ecySmIdIB61/ZtL7y2JqONeA8Nm9rfBHQa3E6pTcY4OTpJaxRDQdandgIbQT8mU0YiZKwfg79koKZtXqUWdRjXtXNWe4nKtted7TYFoDeSE0ROT1HNUW4pi+dmUYa34LJfT8L7P4gLZ2beMYmTxkruLE0DVaQncCue9E+9IvIJkRafNcyoyJZo0FDxRG06W1rWqmQli8NHJEViX1QFOhiDxoLH8bMgd8FZn+embiDz1Uov4fHq0ON5gdoF33sfdN48w1NZMvH0Wl3zJtS03OsmTRIVzKQFJc4nqj6hlmnFA8oA+/8xRVcWHHjI0VYWuh1lDBCJTGkuX0OWe84orjHX6Y2QKfAq42xhfpj1P9SkrTUniz08lkEU/cAhz4GtO6mat5hlWfcoNmhFeWY0ZtEdAuw96OY2P8RpM0bkamTTtfIAqQHKhPGAjCqPNLhPnaSrO7F1KFfA3Z+hArnAI+3HWEp+eZAj1eByKhNU+c22kk/966duGV3gryr4SB105/zsDT7zjgrH6ddRd9A0mhhaXWIsxc10yfPsYKFI/bqI0FYNlmCBqtpvaXhcSqZPjPSEVakKYis410KqiKvMYJsHBc8UNJz0LQxEpQWoqk70b7pF4D2WzHIZ1wejSF66dCiloM4sOVHEN6OeO9H0Fx4N7Jo3ojKZqTKmDd5x7wrqB+TqR8soJh8DyYP/CbKuQ9gmO/kMebfuBrEHlcRMnxydPI+3nET8JF3HMRMUwEYufWbahmjIpAOksYeY8Liq2nicUF9WueXejhxLrPJq6Rz3Jis0cFIVG0L+wh6KC++iOHaMSQJ1XeloNc9LDfD4Fgi62cIshJhEtHbaKIX7EHn1p9FOf1GDMM580A6fPtx1MNxomUOckQkIBf2Tou2RbK+8ZeQtd+J1cEkonaEYNBHkq9RDIboMz8WywWsNt+Nubf/Y2DuXj5pJxLe2mbyfOXx2qCgBJNMBSZYt376bcCt+6R3LlBxpyQt+le0i0oaShs6aNxQvRcdAm1rNYOwMY0jJ3tGWKm1Bo7Wu49E3bY+zXwVwfA0mpqlYZOJLH5Xn476d2gK2LFxgipDEikShwLTi0hQe9DY8S5g/u3IWwctK8hjvE5rUTmvc7ygMlX10PvZZDEoilmU7bswse9nkSU3Y9gFGloEOcrpbYZYw25E8x/Ejlt/m1ffyVzZRfnQlFO6mc8bhcBXj5GGRMQ1OWuZnj6myV8fefcu7Jzosi6u0vMoELBeNpOQame0+nGuNpyHpTpD0zFo4WKvgUXWOfVhueOjg9EgLOVLtoxs9ZRNLaQ1b+psUphpDSOtMUQSa9xDgtV0EnnzDWgr0CK5g4p4wk32WTAPFPo+YsJzNSABdKOpBDerhbq7g2gfgj3vRzL3VqzlM0AUQEFca8VOxPMfwPTBX0Ow66cpE3tJ6pqdvYLaODb2PDxeHRQR1S01OUsIG0xvvx1495sWkBQX6X/l1EsRQlrLIzHy5xpgo4vFjbtS1wSiNs4tA6cvMGuMHUbr3UeCsCxL0mUMSVgJrR1bLn/z1P9UQnVfz7ihfiMtyIj2ATR2vQeYvZe0vdeON+l5xOGAJaVl4l1b8zhB87QHtmwIy5s1RGsWqaIMNRVP42Z6We+1/rzlwQT60S56nx/CzKHfAxY+SoWzn/kSI2Ymhqp8EqTxExGPawTNpZfLCtYYLMqdatjP3DODm+YTNHLKIc8NUhrQYy1T9B41I4BtsQIxL5ZWS5xdtCVe7egoYSQIyzIl7WPQ08A9ElNOq6eWEn6M+8S3RZkjo5vZnL0Bzd13o4xvsuNN5ktUrRFVBG7Gh3EDX40ZwDIvtfCJBmhqCq6cZMQt9THsvANTu+8kbe9HMvt2TB76VeuzKrHbPDFNt2RNiRVZaWD5OAbneFxdaNYTGYKa3zILNWif9Q9dHKQz/5433YxGNmTdk+FMWRprwhIF6AUrTzJK0BuUWF3TJNejh5H4TSF6KAYnUBZnmHUlCuqgIqKSVjSYxkVs9bZAKVAmvYUlknGdFM6fFUP0oj2IZt8GdG5HwVrkfCkpXnmarmlwLLGeKfUOy5ufsTEZBSHcj8HczyHf8w/RvuG/Qjn7Xh5bsPxQ3567h2JcPUPNixtNjB4erw7VRk0DFlFUFHkalOpHFmmVeNttAW5cKBFnNKDjNhX5OMpTYLEBmlvTjDzua/LxIO2hDGOcuBBgNWUNzDe6ZEYBI0KiXWSD0wjDNcu4wnXcWGipBopKsW9t0lJQQYVXEf6cijeYoFU3+1OsPXuZA4phUp+VtjSZrZq9NC5kDFlLxLSZzK2RUJPlagC18mAOmH4PWgd/h2T1UUrsQaYE8Xo0oMhKyeWrJyuPK4HpGUqZyZyqlVWtmEZQjr0UuTfcMIlWqZlgJWUjoiavMvTeatESYWk2D7VxqL88ZOU6tQisSG2N2ECsESmJAYbDFQqPm5E90KDhiqg2Y6srbKsXVjsqcFsrfmbhPCZnbqNi1pRCmvVBJ+U+bC4ebY+jMrZccZsVXB+33tWqEJqNSczOaBVl0lFFTB4ePw6kS9TgV+1UVUtdEcBEE7jjllnMTPKKjAp81EbPXlXU7yYCp5bhu6p5dHl5FT3N3xBsiiUYAYwGYZWryHqL5pIKlmm2xVM8ZknNg1sVZUMvUu1seqdgSMJqoGjusUlbEe3jySZcjCSv1weT7rycvMcZRV5YM0yoORYtICNhHjBdRlbjGr3lce0hT5z0ZHXLVTC3ERWhSdzN+4GDe9qI8gG9kPGTs1c0WEnP2HvyBP8vr3WxRAczN8N5dDAahFWsIB+cp0JS81BReVhuTI6hJrKtJDfVb34FdNySaxvOgg7C6dvpXb2R+TCnMAvKThVEIJhgbWGyvmJsyi8Sk+s3cOH+RaHlui+tYSIrT1gePzooOza+ymLjnPTxj5qjpX7mOsBtN81gIqGc2ZCSMUZlDCsnCtYp9cj00xJrPS3BMxoUUWNECGuJ/LREi7paQ4nQR01QsgZse4t7GbaOE1/BrecUM9GCIWFFE7cBzRtQ5lo+RVeyxlyCTX1gY4dXlqmbDiYgSanQQ0Rhg173xjyKnqg8fmyYPtnYqHeVgryLFh2LQ3siTDe10vm41r+Nuie1IzvakZbm94xJWlUWjRBGg7BWT9OqWbIBtAi0bm6OOKKCYsZpPFbd77OV6EoTtG7+veqLkQepmcflReqN8oIeRLxg44w0O7tCbKWLtfLyBrRdic2oSc9VgSOnzVAfnsbIRArhqrC5ObDuy9IEtx4ePxbWvQsHa/wIFY6RYecssHdBU4dl6x59nVwNHgdsrnul1bkyjJCVES6uam2w0cJo1Pj0IqKyx/yiYJhip7aiq7E5KzfCwLcWNv/mgkKgpURAgdB75kVMft6FuHMHL2yul4Yi5S5F9Yyt9/pXAL1UnTw8fkJYFzlVOho/2uS+VddQPVypEdat+6ZtUurxhfSqUzwKtlhf+yuIsdLVbPWjherXXWcMHGGVRUGlTqLSdCmSHKbNdszWIix13V6KclO/nGZkD4IpJK09CJs3WUlIblQg1h28/uI68spnjS/04nXy8LiG2KROnKZh0mqhJnqF1bob97lQ93HEperU7WgF8JwniijGxeWe97BeDcVAi/ENmVmhzfpAZqLMbCVy+gHYJBGboxwVRKDBwY1GB+32Hr7pTgqJyEyVhbVFbYM1rB6NQV68LlTKY705VMnD4+rBSZeCe6od+0OPggq7rNbyUS3cMQO0G5e3eIwD1l+ccPqlbnW3di46DYvL3fUrRgUjQVh5tsYsUzB3aqRlTYJU0pfMJzgGsChIQp6WouCiZBpBa4E1J0Gai7DUx8VrarOmkpZRE5qfDOoK5UnL49qgNiGlp52upg4KNRpUajGiXhramKx2U2fHW/4sLyxWgGTFD62N1e8P1/NoVDAShJWtnkBTS6HTsygVQafpQGwOvT6VfB+RluMlbKqmLQLN0pFr5UGWvkaTW5QjGmiFbbSKFGG8iDMFzbfdb9YwI7TiCcT6p2gDBcTplZVYV8zycTVqG0Av6hTGRqoywsPjKkG9VDYZ07poqc9cg/YDJEmb201MRDHmwhXMdFLWQSaKotmSiQzMWhfVRLa1Kqn9WnMvSdJmSJcW5Z+mMpwVfNHAcKi6N1pQcV13lFTgQVEJQOWFbHW8WpOm+ufKIjZzRi53EE1SH09UZ7eWwHt4jB/q+ufqoia/nZlqotNyg9bVUaHABOn5jZAwKf2atLYO5EVtaJv69yvgzR1VJKQWdBw1jARhFVWwhVBn4laf7/ZVYU2BtGD4riHNtSTqADGTh4fHSODyoRIJval2q7Wul5xCd8Q1btAr6a30qX68LNsIEhsVjARh5UZYVcdN5WEF1Rot44OULyWzhkn9dOiwctC7CtvVeQ8Pj1GBGdFM8jSazSYCEVnlcOhYFI4fYRnIVuZN8h1zEtaotXeNBCsUee48D0JT8djgWozWtPY/Cox0N0X4aY5EeVbrzZ5apLDcmMHBw8Pj+uLVvAp5WbVn5ZS5jo4jYW1qEmTKqZfXu+pGBCNBWBYZp2YyWjER07jOjrwRti/rLUIjkXc1eh2bHh7bFdJB8qykuLWtz1hr2RDrypyMNa46Su+s9xumA9uvnMqRwUgQlgnCK4Ittv5g2fWxV5u8rNqTdF6kjo9EEXh4eBCX92EJmhDWUBHWOCOoZroQael9R42XR4awXFOgPJDR6+i7Ori06U+E5TzLEfO5PTy2MUwXVUkwb2OoSQ0caelTp+r9ccVGPlQHRgQjQVhhFMOWFCFEWkpbHtXyIQ70Fullqext2imDBklrjrJxJWgPj60PNQ8O+n3alZoXw0GKfDwJy72T3s+WWVGTqB0ZHYwEM0T8FZrdws0AUUULjhFebQ5EjdOSNzmO7+vhsZWx2bsShkMal9qvjo0vYW1AYfuOuEYLI/F7yrKJII8QSxgKZZSayYaO3dVM6KaJeFXFP6rQJBdRNZisCGmh6W3s9w9RkqELvmNQrvJ9NV+X3k/Ng/zUq1cfRb3j/nt4eFw1qEapztV7mhouoxFpO4RqH72rIkZ3wBpaRjzuFLhmiNjQRNpS2mo1lKRryd5onQhc0IUjq0as7erEiGA0CDRoWSbFUTWNUdVs5giqoQ3b3xy8MOoQYYlnTZRDij53FOau6aeKuLBjYbpI/rpgoq4VdmzDMZVNQOkm91dyp6pc8PDw+LGh2pSvVyqRVU5jslA15LGiSJHRqFzqA8td1UESFj8U06tZeaLKC3M1vMZWq6HUR/XcVHzpsNQ6hBFSvQaPt1sNjNpiyyNBWFGrg3xdABzE/e5zwMx05y69YrShn7zZDhPUfyUyDrII5GbWl1WgR8LixaWrCu5VmQLWjqrXi8nDw+PqQvWq7k8WVP8aVY0rkNsqw1rEEBgMtkezvbytgi6mVvwOghztZkKPqzo5IhiJn9NozVBRu5nZpbotUjBImJx3IUi/1ysPbwU4wnJJO3ovka995rTQeKKkh1WunrAmBpHWBnie17nCccfHZ4VTD49RgCpoVedYtbRoaigCM5WTI1SzPY8srsCWih9fVHqlzgrqJvkO0j+TnQRJdXxUMCIe1iwd8jazqLJwtNowyUrLjWzGVlLZ+q3Ow6rGk2m2Z9vgO+YJ4pzvmF3EcO0YwmLgmiGs4ggZP3W35YYdqZ/o4eFxFXBZdVJdkz0csbop+EvjkRTne+KcCKuug+OEjXeyVdAFfai5kxtxWGCyHVtA3ChhNH5OMoM8EGFJaKiqSxGWXHSHsJ4Jdwt5WPaTN3mIBu0rFREiknKUrwGDUzyx5Lwsu0h/RVgSKRaPHdSfrfPuHh5bBpvqqakXacQgl4+FFdrLx8+nGGQbyn38cKluycuCfiYJq8zRSuRjjhZG4/e0FlDGk8i1DlbovItUvX2Uk82RgVtJZZeBit3exN5Bb2H7GWtB1TCcRAP0V48CK8/Rsuu5CCWaeOuh7vUL8+ZRExwPj7EAycmCL1TZVEnVJMb6uZam6LKqPv7CSZTh1p915xUw3aI/tZLhljbVhxUGGA7WsHth0vW1jxBGQw8mUyjiCQpGzFzb+Emb80pRdnV4+5ZA9R6irNozlNdl/XDVvogsLs4Da4+zJJbofhdVs6Du3VQ0RniO9Dw8PK4CVJmsQjnvqm7fUGhvUcYIkwkcPg2cH0TIozEkrEvg3l1EZVqGpN1kPnSa1E8jpnRGg7CasxSQSafM66mK6tB2pU1e1lZBJf4GkVZZJvzLLb6jrfBZNUOE+TKypUeA4WkKjGZH1vnLCItwdLX18sHDY7RhJqWDUzYkrAb6GfDMi30spxENzc3RhOOK0hastHD9PEczCTE96WIKRgmjQViNKYT0sCxAgdKzMX3RpYp/K0UJ1sEWNgh6k9coL1FjsOp3Ccs1EhY9rLXj3FOQCanJ3n9TRRK2IGl7eIw0WKVcs31odc28LCpsVbVTZ4HnX76INOiQsDb608cTmzUNc4S6qdNuYIoqObDm0tHBaBCWIudihbEz42rFTEWv5aRqNS3B2lJYJykX6WiDhmW98TXyummT7xqVAxT9Y8jWTnFf/Vs6rD/uknVo//JjHh4ePzJclVL4ukZeVUfUh8OtkyeAc+dYHxsTyMfaWFRrj1MsuQ2vUR8W0GkmaNlII5czo4Jaq15n7ER74mb0hxSMmJmWM9PyCHREUER95PHAZo6Is61j6YiIZLspVF9EZXYc5cISWcvIiy8YR0O+10l0T34JGL6MuCgw1GwYgYsUNANHMhOuUrD8RLkeHlcF4qY0Qy9lPaQalK4J0hRZF1gcAF954gjO5zwTDHh2/OqdDOciUDdFC0mhMP4+BmWOsjOJdLiKG3clmGkzmywSY3QwIoTVpoc1Qy3vlovf7E1ZdtHj0JFAK/RuEYigBP2ti1xEVYfor4tBWSAJeHz4fdaURxFEF5FYqahZkFdp225xM2F4eHhcDciTCKyvRlVMsztY9WrHeOpwidNLQBpM0HgWWa3X1vGBDGZ+bASu08+MXWRzHBSYagdoUOW4q0YHI0JYIaLmDMJ4mhmZkJ8oJHLDyyo6h0rdRIbWzrihsEHSFJTBcSyfeYAV5PskNQqPXlh/wh4T37uQuTPubekeHj8ZqHppYUaFbVtLjv7FES5Q9Xz9uydwdpHHg2l6GC5md9ygRlA1hrqcEFNHiIIIeZaiwQyZmWpDCy3bCukjhNEoi5I501oAkgXklRNRffBcFbxgf8cQIuZCM9WfQLb0IILzX+f+GRse4kRK4+1JWGNq6Hl4XBeoVYMa2WxCm44oRBcxHjtW4OmjXfSLWV7UQBxq4dVx1D5G2aZh5FUVWkC34OdwiOl2hB2zbpYLrQc2ShgR44GElcyiSHbRDW9ReJRJVNQKXGAKC7da79aKErwyWERgmbFq0MvMjmHluPqyHnM8xvM5JihQCkhx13t4ePz42KhOtASjwuaWOb4CfOYbL+Fcr41AwRY0GqMxrXhOleqP06laPkXcFJUpdkzH2DHjOiXCcLRadUbEw+LPiOaQtA9ScNoINVDPouwazE5tj6+2FgnnrBSKImwUS8hXn0Zx9kskshMWaBJQbNKCoqMs8KTl4XF1YA6GouIGyKmp18hbDzy8jBeOBUjDGeShmgIHrJe5BUqNGzbUiV5OW6TmskQcZJifKLGTDqY0sDzPUcJI/BoLRIlm0Ji8CVngAi/WQYVeDxweRw9LbxTGCd+xaRPiJsVZLJ25H1h9kMeWLTCwoIdZxn3mxWi55x4eWxZUKdIrOQ3jYdzAS6eBh59cxbDYjSJs04hMEUQpyUp1bgwZi9hQpwGKQOM/SxrJAyOsWaphIywL9hodjAZhiY/CSUSTN6CkpzWkL+6aBR0cXVFx1xvjBHlYNOGCsOFGmmerKLtPYfnwJ4Huk3TR+2hSZjJae/LFPDw8rgKorPOswDBq46VF4G+/cRpnljokME1gIDZLmdR/PJ4IrAVLb6pJDGpdWyAOh9i3s42GTiv4a8Rm+RgJwlJEKdBCMHkASXMWeS62V3sYvQrry+IFY9osqJnpsyxHVnTtnTUZSjvvYnD2qyjOfoZ58CyPrJCwVFQjUVweHlse5lxEIZZoA37h4VU8+tIQK3mDVUzGcmbqRjNcyPOQWh8/hPQenT5RXmiJEb13pxXgwO4JDYdFoU68EXv30dCAyhNFCjbn0ZxY4P4Gq2sao3GHrJgCJCxuhyStVl5iEoexdOLzKM98FWVxno65ll/xYe0eHlcDqmuDAfDNR1N866mLOJtOoEtyKsMByUohuRou3KAiH1MjUdMIVWTkPCyNuMoxNdnEwpztItaUVMbso4ORKA3lSSaTJpxE0D5EIaG3hYQWgIbf0mmNyPS0ADT7xbhBYx+aYWSDGEs1QxQRAqZ2UiJbewznj34eweBZNLI15gfzQZlVJ7nzFDLNp7F+yLCx9YOhe52geniMPmoJ35D1VyZ37hWwTvLqCm5rS5PqfPc48NlvHMH5bovaeQqNVpN1UF6F6zd3zWZqNBs/SN26mABHzvK24iLF/GSIyTaQa8C0yPpVM/T6YSQIK2XmFFFCwZhGsPBe9LGTRxsWoVOWLQwbrj05GkPCot+tDCBxOfpQ018edlCkIWbaPcT9h9F7+t8BZ75NT2vFCRCzw3VniawG/Jub2Lmqpgv4JH1sErZ6dyPp3iHTOFZHj/GCJFZyquQkXLIumb80uV5ed1X1h6lUvLZ0SZ4i43YvLfDESeCffh14enGB93QQZ/Ss0j5Jyi2uGhclGhYhuDEXxDhhwLzIo6FLfOcGHYSpYoD3v3UvJsjfURLZwGrXXTM6GImyiKsFDcFMixo7ELV2UbAoaXRVzcfSxLE6bRbBeMG9UUJibjBp6ikXxl9mmsYpZOU5g97qV7B26p8iWPsmz51mhqkzWNYiPTPeG7PKie7V7izL0JoOJWjrwiY/VWkzNMJETa8jJpEeHpfBSa8WbpesljLpKLkFEsq7JR7VrHhKtUSLuGxle3pMQdhHMVhmfQkxCCM8ejzEn3/+OI4cXUJD0zkQ8jj07O2CMCqNvLUgfhhpAPUA01Mhds4xL5kXZUHTeQTj+UeCsBQdJ3nR4sxI9qI1cwuG9DI0Z4omkdVURZrxYiOaZbwg11yi4RaoJBmJmGndxXzdNjMmzo9guPxlXHjmT+hp3ceK9yIzrcf7FJarCscqu0m2rO4Z7KmXJEdcSvpHQR1L+9Fj3GANCpRWlyjXFm7u2hRMzI1xNvpcJNWiOGuOkKfQnMEq68pDzwOf+PI5fOfFIZqtJoIoRJHliKi0R22Q7LWEeLpkHgZlgjzPkWcXsXdHA7vnHfnbKGJzEKoMHRGMhraiQElUCs2VF+8gYd2BIlmAwtjDYIgwbzLbApvdfOwgodAciZX3aEEmQd8CMWzKJu5OhgE6WEJ5/kvoH/8EgrNfZn19mYXXsygm12ihpGdsqsjrqCmsPi/w2OZLPDxGGJcqKslzlaoP65Phpj51SFMOhTatWYw0nMTZPMJXnwY+/qWT+N5LKRpTNxpRlTmN4oSGG+tRmqqtfXsgsmhILXnUREbCasc93HxwErPqziNZGXlrDlc/l+ArURapCVihZkDMABO3ItM0TZGareiymmJtIB8Ner3qMI+HNU2fCrwoIla0KGW+UGjSFoK0gQZJe6F9Grj4RVx8/k9RanBx+TJzZ8UoyMaoqcHZOo3Vom8HmGoy25x5zNCarOpPD48RheqFmgH1KTm25sFASVojMGmX1NfJ/pY8WvA8varz3Pz0I8Af33cEz59PqEoWMBhUoeu8WoEY6WCARsNNAbcdkGcZdU6MOGwyAXNTJQ7taqHJLA5I5JbP2pYKGSGMBAUEEUWRTB6RoPgXaO5FY+52dAvSPWVI47IKelr5iLH91YDN4lHE9CLbluSiq1oqvkQeZc6kSlmoAtIRawZLiAdP4sJzf4zBi/8W4dq3EJcneZ8LvBgywwZoMq94P5OGUsi7T1MnhA6SRCZ9kYfHVoBktXR92UqS5ox/C8jYzRCxfoRZSu3Rx2DYR1400MsTPHYc+KcfP4+/vv8oFofz1CMT1DWaOXDI+wLrP1dViLW0Br2t7YLAZmZnXjIjw7yLfXMRbj8UoiWC0tR4yp0w5oUjQRHrGI1fw1zTIDVF80h/o70fyeTtyMJ9SNW+HEoQ1eg6foRl0y2FXb73wCqO1stypBVbn5ZC+i1xe1C2WRFbaJXL6Ay/h+GRT6D71L8ETv0tH/MM77jAKujyKGNFTunSqwqKvLRqqppV+YV23rBp08NjpCHFSXkVWTloS1MnaYHFIRUwCUv9WiQ1TVx7isbdZx8D/uXfnMV3X0gxLOZIVApSKq3ZfTuM7/xhKIMYjbhJRZFiMhriht0taw40QlhXE8rw0VISo0FYZPuAlo5+jAlkNI9k+g10J25ESrnSuShU5on5xwslK50N9wjVbyXSUnSgSMsRjCMZR2R52ObVmvY/QCceYCJ7AVj8GlZe/Av0X/hTaP7BpHyZ/tUSn9VHGJK86KkpY+OG64LeqPAVRksePTxeBXVdcOKqJGlWuJH6erM8QpY1adQ1cXHQwCMvlvjjz5zGn95/Ek+fSdAN52i4JYhpFJtBJ1WyjQIsXg0F9Umo6OzhGnZMFrjzhjlMKEtE+nUmG9Y3RgJBORJrIMsrUHszxSlQoyDJK30ay0//U4Tn/g0mSk1bFGOo4IxR+LlXE3SrSnqQFmvBVwssvF2doerPcu9qIsO8KZIJZEXKa9bQUIQPs00VkeyOfrwDg+ZtmNz5diS734m1iTfypg4r9QyGQxIW3fyEAikL01V/CmutATw8RhgS01pUqyrBDTfwvVfG1n/bZ114+TDwle+ewItnMxw+V2I1WEAUT/LSnPWrT90xJKmR4LTGFT22yFYT3p6wIEB5rYMLeO+bG/iHv7QDB9rKX/XtaeVh6oo642VQjwhGgrByxfwzkySQWaA2ac1ycQ7p9/8N8pP/E5qDM8zg2BZcK3JF/owPRB150ERc0iNS04YJiSRES6sQNWnJNY9V4UoM5G0VHVbAhFf1EClIg4zXz2Lk8QH0J96FFxZ+E2mvgVtveivmOvv5LTIDnOzVtqo92hOWx4hDxKREinEKVKDcDlgnzvWB508B331mGY89cw7HV9rUIR3rhwmixCYlCMrUBuZrNvIg0HRLiYl9OGa65PWAFG5E3iwv4nc+she//Z4QHRnDzKPMCEvj2pjfajn1hHUp1HlqdCWlzAxzlDUAlr+G7nP/PfILD2CikaPXH6DZ5CXMRAndZqjJTIrelLFp4g3ZHnWUaPJ3D6wS2e+Xh+VOrb+L5Q1zRsSkIymtxAKTdOlX0AlpKfJ0P4hwsX0zHurtxR+fOQgaldg9tQ933XI37rn9bbhx4gDapDjSIw0CDUomaW3SAYL7DcTmg5thJ7c7lDksKX6wznOTStHKSf2sylPV8h+UgR7CuhjV6of5ps28KC2kWlOV2WEmW/WW+RvwuALPV/lnmekrD6/i2Zcu4ui5DItroRFVGU9Qm+hZ7rkuyk3b1fdUJpttqflrjOAm6lVzKSs+PU9FU2b0okqFsDN/3WS3iqzUoOEmWvlFHJo8i//yt2/DWw7yTDagR6r+c8dQGjBj2TZCgRcjQViadNFUtCllCiU/1JwaFs9h8MI/xeqRv8BUfBrlgEXQKEhYVNa8Zr3JTIWxibD0lHow7jhB76X3E6Vnkcb6B0iKBqJsje8b4czkAXxrZQKfO9/Atxo3IaHQ0gzFBGlqz8RO7JvajZt2HMItu27C7pldmO3MoEOLUySmJkL3fFelaxGt94Xxqt6vF8oJQVKlpiT1oCjpiCx1HWtSUVJyeWl9dQ3ddfmx14Prff+r4cd9puSplqlaC9Vh1Dqu6OqUWZsya7skqNMXgBePr+H7J1dw6mKOMyskri6QtKZ5PT0n6Vcjoeph2wyOsERTPX6IeBISVkS16FpuQukDymdBiz8vm+ikJ/GhNwB/+LG92DXFvFf0JL2r9eyziRq0I208GhihPizCLICAmawsEvGcQnn2b3DhmX+GpPc9TCcpci0BUMHNDOFghEVY0xlRk9k4QU2Gequc3pXeL7bmDo1DCXG+uYBv9nfii+cSPF3M4XRjAjEtoyRsINaEujktq36GCVqgnUYH060pTE9N45bJvdjfXkCn00EcalxGiEaSoNVsGVGZoNu313nr8nfbwcSJ726V2NwqHhNhSTH0qChzlFkLRbpAI2EnQjU76RLeZ+MLuWGBRcpMHeN+yeMBPQkNWtW1pnBd54J5GD/o/lcc43X6OT/0fuKHPfMn/ZvkSfUTnq/2S8oWP0hOtP7THL3BAGura1hd7eL8UoLjZ5voDlKsDXkfb0opq41Wh6TG30yS0mStmjHH8r3SAdsNtRGvlZJtZiCSlmqvArB4loRFWaWOLdQiwzyaD8/i//DLN+JDb6LpRe8qiUVMmwlLG0q1Brj+GKmgC2Wi6QFmrhO5NaD/BNae/2cYnPwbzCfnUGSab28TmKllvdBaHUUo4jPFMl7IIznzrPTMp0bBd2bJ5fSQLkzswQPdWXzqVIzny11Y6cwjyvs2cj9UJY6chaRpaLK8sCEEgo4HfZJaHtnUNDG1SSNp2JQ1bnyK/K4K2jaDYnuiXvDOZvPWrPomrzH/qml24BRzNoFycAjNpV9AkNFk1fWsXjYFjvJTUi351jEpd26H0uBM7joeY7LorUqz18ftWH0/77Vnsmx12aX385lii1d7pm4m3PHr/5siexy3+QB9aOjFYDA04tNzVIMlgynzWBGyFFj+ZnkIod2XFxryQnnOhpTXHO0kxsAmENTv2n7QmlZmqGt5FOpCtUTJpo8CelwSUJKRWmJyElaSXcRbbmjgH/3mbtygNSvTFSRJixskOVckhk2bI4HRICwbX6WR625XImpuqP20ReDUx7H0/L/4/7d35k12XOd5f3q9y+wzGCyDIUCClABRFCmDJinStC1RpCXLW+w4UuRUlLKdqqSSyifIB0g+QqpSlco/qVT+iONVlOMqy1IialdkyZREcd9AbMQAs92ltzzPObdnAQck7WDi6bnvj2zc7r59e+49fc77vO9ZMZX9gAk/Mr7uX49/SD76cA2qpQri3//Put0M1ZBM45gWGn/CAs5I62L7KL7Tm8PTb0/guWwaN6Ippl6IDq+UWKltxTVZywvNGYtRtMKEG++nKVlCN0s+UyvXIEwVdS9Szpgx/beLfj0F1LgiR8HntWDkIGmmgIqbjuXNVvkMgsHdmFj5Am3GtLumRhHLzUVNefj95tK9P69c/v7usNe1f5/fyZXfUoaV/2vjoV7lONVipWPXk43XVXTQ1BVdx3LaCr5ZqtNAwvxbSLCYn7M+orhb330skWhJkAJNpF1FiGlbI2zyDYmVyjoFP8wwW7yMz37qQ/jUQxGmaE+iiDZXBjigaI0M8bY9PjgcKMHytXoykgphU4b5Slxqfv+r2PzJf0Bx+Wl0ohuuSMjjDVU/KwHjQ5IhUaRVC5bQdYeJAaNGVfFF2YB5MXRi9d3+HL50uYVniyPot2boYeZop/RIVa+qFJDXy0essVsJS3Ve5C7C0urGqoZRtapaX5RiURhT2DQRZoGYhqMmGiVjzmtlSMYRSbwES/lzK6JnntVyFFrwTwYiKBYQ9j+A1uXPbwmWjzj8c/AlTYJHs87NHfGkNjkKmsxY1XFuAL272F93q8/r2F+38571tXt93t1gdE5Ryv58J+U3vrN1bu/vJHHS39LndQfh/74XK3+NzqmHX6ju1rzI5T99d91j9OGSebqVxi7i8kbE32f8UC2IHFs5n+pYxZiK5TkM+hT3lG+rjVVp18dd7Z/iX//OeZw7Tvs6XEUcM83UfiXBGqWfT9366GBwMATL1XGrl48Mg/x4XwebU4wU4XeCV1G99l9x6W/+I+bar7iMHhS+TjYo1J6jz7OQhQN6F8rsikSYyb0CHhoiVcGUffQYtt/ozOOZ3iL+4koLz5WLWElm3Bg1l0H523saazIicq6ShEud24l74rX07P34t68bwfTNx3h2AFclqPRweTRjnvPnVMWiWRZQ0hjki06wum//I4Q3RVjGO3Er+7oi6vqjbaHOAz5t/bFrk3KdWfSqE3Xulaj6V49/laEeR7TgrZYkGiR0SuUo0UmIKkZOTOey7DA9W7xGnTLW8LnHQvzaY7OYpZlIse6c1CjpMgXlqPqEr5PRp/HB4IAIFjemivf0JUSKuLQXoc+06zKBcfWvsPryf0G89kf0Bvo+isr0QFT5xVQPGHXUgsVEd+0vh02wypy/r8TliWV8bYOR1aUUL5QLWE9n+a7Eio+Sv7tgZi0V4hMfFQglzO708Eah4vWjE3uwJVy8xq/GOp44o+lQ8dXgSkYQPKc52RRxBVWbgnUEQe8spq4wwipMsN4Ll19HbAkWk3mXW+SSfTuyV+pvWVK+6cVpu6yXkazI9n3HCSdYNICDlPmTaeIq8RmZah7SImZ+ZPGN8nXcuRji3/6zWSx1eJz1kcaFm2s0Tif4OTpgvJc2paI2l+YHhIMhWPwGsgd+vVBlQh0oYpIvKw+AEdfgVeDy/8Tq8/8OVfk20mhAo6DJYOkVFApleQ031RCqPcFl5C0jczhYpxe0OXcHvjWYwx++EeClch6D9oLrKRXTmxKqsZYxjZRmLtsJvdbZzp/bKT1OlEa8myRpgUg9pXFEWUkCpRGDkXOtBON4l7RM67JNR/aIi7Amrn7OIqz3hc+Lrri7PaEq15tzmcyvPyMHTKbYOxAu8Zn29T5N9JgLltIiS7SauOwo7QA3OaSFZmWv6Fitv4rf+sQZfP6TbbRlN8o+YjrBwzxA3Oo6x0D2QKlZp6L2DwoHSTxJ7hPHZUahwbT0EBSmJieB+QcwOXkPsqLFh8Coiimr2ZqdWI3Y6hy4dY/Dw/r0Er651sWfvxXgJziGtWQGw4Im1ImVjKnESv9K5vX7620nuwszP8F/JVN+8/Pl797kGbjXMTUEnpJp63//dsrU1VYysnpfkVfp7Kdt72ejwHCTcd2ZX7ePPX6QOx0FeqNhpXZD7yj4tOYWFcgZJeSxqsLGN4+63+6q7X0KKt3UMUhjsmTqw6qHe0528cjZNtOSDijTLk74XpggaXWcWG3j73HQOBCCVWcxn019MvnAT0k4QKFp/4MJoH0a4fyDzKDH+M2ZcRmBFcWo6mvH1mTcDO3c9DvkMek151PajCfww3wBX7wY4of9aWy0FjAMQkaaeoiaK0RipTYqjcrKKOgxNxrVrU1VhaPN/aUab4h91eDem97Td/BGeTw356UqLUJ6r+5Vm97zz0dLwfjlYGQ4Qtvec1NViDZlrNHmzFF9npv2dc71xlSHgZS5VZMGaBYHln3mZXUEymh9syhDP1bb4vgKFhPKNRmIQB4B01TNKjkzaRIy4hqu4cFzx3DXItBisroJxV13d1kZOg/c1RPY5uCl5cGoEnxX9PWUoNrtARsv4vpP/z2Ka3+Ahe4A+bo6Zc/wsahKsO9SPGtQ13ZJk/JWUvG3sHxqHq+i6qA71Ozt/G1lgWuTy/j25iT+0+V5vBofZaGUdz9KE95BxfrWx+/FOBfwvw1KT5pJRVFlm89Ava8k/To/KubFLILefZi0KsF9wKf/XshpcK/cXFPAmCLxlmB1Bgli2j85Uv2EzmYcIVm/ho8czfBvPn8Sd86tUfa7TFFZimaxW1APJDsMb5DSNTiOqcX7EbXOoLfJkNZ1GVQkIM9WHhh/FBWgCWIl9D1jipVziFxX1AAtTYQbZi5WujpzF762OYM/ejPCVUx4QduZJtx/9+P3Qtfa9t6b9/d3Y2L//49bp7WCKm3jLFZCVs9VA8qRcs6U0iRCmmfoVNfw0Q8t4OiM7KOceZ+nm0YDBGsnIaqY0dSR80hnPorNbJbZmEnPyKqutiordd1s1uOQh+jGj3FHg4ITbgNmqrdnTuF/rXXxpxcjPNe6A5vJ5OgThmEYu5H90ITWGhicxVr0Vcch0mwd5+5I8dC9bXRoI6tcXdcbZvpHNOpbS5yG6mzROYv2wqMIu/diKK9KMw2oDUFLwwc3Td10wHEDd0djphK31pXEC1ibOYlvbEzizy7H+Gss4mp7EcMdY6sMwzB2oghTtUtutgvnBIOCleN4t8QTD92BU4s8Lga8Jm1s5UDjZFaRU4WTCBceQ7r4MAVslhFW6AbIuQHH7qLtXoMHHbXAFRRaeUZULxdtXW0t4mvrM/jjCyGej06i111EkfcoZr5B1TAM4x1IsPiiDi2uU0tQIMEa7joa4Py5BJNhjjgqEGlWi4bSKMFSMidVhd4wREFDPnHnJ1B1z0LLxodxiFCTYNL8a6mBwg0+PviEeYVWnrvOFRulBgWfxrey4/iD1yu8EhzFRtR1QjVR5W5MhWEYxt4U0KoBWRZj6CZV2ECrvICnHj+KGc3MpFkvZPLVGNtQzWpYhKV4JEOqKthoHmjfg+7Rn8dGsYSq7CJOFOpuuJFbbl2XBpAo/5R95EGKGzNn8LW1SfzxmyFeT5exEavNKkSs2atdN1/DMIy90ZyPWZkjTVvoquWkuo5PPnoKdy9pggVZEjUpSLn89U2kYYJFFGnwWwchBSk8ifjEkwhnHsFaMY+SRj0YPQx1CW8CRanegMD1qSP4+voEvng5xvPRElaTGfpLEcWqhKawUXCvgaqGYRh74eZgjGkXaVOiwQruXW7hU4/NYL6lhUVoa4oQbvyaq31qZm1Nwywg1UiixAdCdeL+DKOshzFz+jeRT9yLtTJ2Ew4n6v6uxqAGMEgmcWnqGL66OYM/vBjhh8Ui1toLFKfAz2Dh8pVG9jfYLTIMY9/RwN9YM1Zkq1jobuLJh5ex1GVMVfWh2fK1BouTKufLN9OeNE6wqkjrvAzgJshV6pdTqI48jNmlB1G15pHxnKurdSPnDz6rcQdf35zFF98CXg4X0e/MYTDYRKccONF1M1bwurRaY7zlZ/UwDMO4GTWD5FmJqbTCxx44jfvuod0oNNA9hya1EPJ/gwbX1DTqmyux3RZStCKGt/z22oJqEeHik0hnnkKvOMEHJMM+dF3G3VQ5jMo0Z542jdHSyr15VE+BVK9tdHvRtDG6O7/cqOu6PCD/HaIs419NcDk9hm/2j+NP3p7DS+UR5O0ZZroALf42t1ii+rjzejcVUMDjhnpFhmH83dF8qppZRXbAdSaWWYloxzQTu9xZ7qs6MAxL+vJXcfZEhSfOt9zSIWFU+OaTShMU8DhXpWBz7YisYGOok1kT3zqDzgcUaO6saBJo/wy6x/8Bgu55aFxcFJdu/aggShmV8aFqGnduWrHXC4Df9u3R8TtqbBgYFSmD6W8lMeVKYkoBW+ss4psb0/jTiymexTLWUgpWzqhdcT0zVk6B0vpg9ZIemXo+Uu4MwxgzXHs8xWjkvIreYIA4jilIEQotyEonNyg3sTST4xfvX8CZeb/KhRz6XIsyurkbZRNp8xpl9XfTuK+uL7zdK1NH9U+gO3HkLkwu/Sx6yYeRVbNubRg3PkuT5FI8Cuep8PMVTT9VJNSKxtX+zPkWl+vutXDeDaMmTdKbaUaOFlYmlvH1jRm3+OJL5Yy7zjAMYy8ydChVKfc09ZJ6SpeIQzrEVQt5pqWUEiT0a7vVBj7+M8fw8H0JooLXMarSfIHOQkrnZDQpeM6B1rkG0jjBUkrLyXBp78+AUS6G0AwXCwiXP45q4dPYKI8jy/hwMs3IR89EDY70RjRGSwGXpj8KtUqsm3r/9lNpRg5ST7ekyXh7dG0uTS7hr3oL+O9vBvghFtGbPuGuMwzDuBm/BEvMTRV5OeVn6ESrMzGBvuwbrVtQ9GnPruHBe7r4+EdTzNH0uMnAaRdLN2/gDmg86baPDppH8wSrZivNucNfUYR8RCGjpeQsppY/jXj+PMr0CB9YzAfKiMpNCEmvhMIWVOpFyAepGTHC/WvDEhJGiVYWR7jSvQP/e3UKf3YlxUvRIjbSSfQy60hhGMat8Wt8aVCLBsAUTsT6Q0ZQtCmtVBbtGu6/M8FnHl/AqRnanKqPKCpdR+pdJt5FVn5a8C3z2TCaJ1h1aOX0QHW7Wl2zQF6oAbKDzWIK6NyH9tGfQ9H9EKOqI04wXFf4atSe5HoQagDdAFW0phvdfvg3Y309/q0yjHEpPYbvDBfw9OUIPy6PoJg+5qonk7CpWccwjP1HEqN27HqtL9UXxRiqWonni8EVLM8N8Ivn53BuiVat3KBdk3PuP8UAy4uTs5diy3g2kuYJFvEm3jdE6qGpC0Y7Ct2PSaJJRMlxxIyyOic/w6jrLoqZVCpEEox6D2oZklFd7n61QPpqwAIZw/fLrQU8szmPP3krcnMDbrTm6CFlaFf87tn+RHiGYTQfmaiwGNLXzhGHHZRlm9YuRVVqKcs+5to9fPJjp/Dw2QhdDGjOZM80J2niOpxtI1spfKf2pkpWQwXL/+ekS2EKH4aWNFRncPcgeLrMTyI48RlM3fEpbERnkEmYKFJhqF6Cfv0pLenhRtvdZurMoPtfnz2DZwbH8GcXE7xYzqPn5gYs0KKYlVWCQoOcDcMw9kBBVVRU6LSmaFBaKMqUAlZhMh6gNXwTj953BL9wvotOkNPuyJZRzLRqBeXMd2CXTVRVonfztfDSdqe15tFIwfK1sH7P/YRKPWH8g6h/kFtmJD6FaPkpdE9+Gj18AEMKhHqa159XRwg31f5tRndfZ2R1cWoJX1mbwB+/FeDVaBHDlnoEhhQrZax6ULB1VTcM49Yk6rpOzdkc5K7Hcxr1kA5ew1M/ewyfeXQaM/LFC9kUdfTyVlB2UHu1dfFtV946NrkVorbvzcEldp3i/PqVuo1zu9nw83BDA7I69yI59etI5h/juVPOYwkxdI8vqDRrxu1PAg0UXpm+E1/bmMTTb4V4tjyC9WQKlRu8x5zH7+CFSuMqbn+EZxjG4UF2o9CkA4kaPwaI8kt46N5pfObnZnFm1rXGI4lVTShbOHLjZefcvv7zcwjy0G1NpnmCRfQIRo/FHXt2HHO3qobQEKhNMJTunkfnxJOIOx9GWc5sfVorFW9Ha/9v6H5CM2tkjO6+rcUXLwR4IT6OwfSSmkzdmLCkVFNo7CoxI4bqMb+nYRjGrZDtyCrNdEF7EWzivrNz+I2nlnEHxSoprtPqDTFUnzJ3NR3gWpm0uV5m3i7KNXbXuM4bzaR5guWUQRWAo6+ul3fuIg0StHkU8xENg0ng6CcQ3f8vsD73JFZDilaUodykqJUaBV65qKjeimjopm9yYXTVRsBrdi67r7EQWuVY0zvlYUoh4t/t5cxYJd6eOI2nh3fiP1+YxIvxHeiHXaTZJhJeUwQRMob0eZhRLIeu+a3SCHTDMMYORUDCt6fL2aWNiVX9R6e2orzkOa+psB5FSNIUk5vX8ehR4Au/sIAPzUF9ohFGdMgZY6UJ7yfj59rq+VobQ3fOv8jS6NVf0Ez89z+U7AyG9agWgdZHMHPXb6GYfAhrxSziKQbT5Srf82OhJE6CWoVYE0a6zw4oYgNkVKWCOUznlM/UoUIZLi4pPIqSFiZxuX0SX1lJ8aWrHazER9ALO77qj5lOaAb2fDQ+S76OYi2dMwxjvFBTQBG6jufOjsghVmeKfm+AMI3p3NI2RKGzTBNhjHh4BXcvF/iNX1rEnTRlMdTJQk0aI4fXNS2oc8WtOQyW5hALlgj4YLVMB3c1IAFLwJFfwNzd/xjVzINYyylQqR8Jrg4YwolWlW63dVGsyqhg5mLExZNVkDFC8rNYxGXGjJYxUyV4K1zENzZn8OVrXfy0OsJIynr/GYaxNyUFphxNaKsoSpukJ2WopLqdTOcYVUWMuNqbKzg928OvfXIJd5+CG7sZqr1K86N6X1iGi/8cfuf30AqWe476p95IUdFjyZZRzT7FSOu3gbn7sc5n7MVp4Nq0NE5L3UI1T9f2R9VRQuMfGCHR21H4HlGs9Lk8ivF2dwFfud7GX1xt43v9GVzrHuN1I8/HMAzjJiRPmnJJuDn/KjnEmu+0QF7lSNuaKzBHMVzHPbMZPv9LZ/DgPUAbq4zEBl6ftDlvW5EaTXkdbR1iDnWE5YZo6akGQ/5SZgYeD/iLc9BNWXgKU2d+F4POExSyaffgtUqxIqrCVQEmGIaTbul6VRG2cgmUxje0kfBGCuOHUepmsPjq5lH8+duTeL5aQN6dQVps8M8qNxmGYbyTsEwoPJomLvZt4RGFSkuG0AEOghBpOUDcu4KziyE++6llnD8DdOky0xohCts+llLjedDjjhxqnhkDk3OoBcvDn+jajQYIA3ouckLcr6ZozX0SCx/5V+i3HsQGTtKzKZHw0lQzYri1ZjTxpJYJiRCGOeOuHHE2YKg2RNaawOvREXy9v4Avadb1ag69eIL3j9CiB6R1rwzDMPZCVYAJhUnVf0Pu9xGjV0Z0nilYtDHh5iX87JkU//SX5/HQWWCKdiul4xxUHedcS6z4SW66Q+idc22HnEMrWLu7q6vNSQOLh8wWmghXdcgxH/JpYPJxTJ79AsLpx9EvT1G0IkbYGi/VZ+JQnJQpNCOGGkgLZasMZauNN8N5fLM3iy9fn8AL4VFsJNO8c+gn2i0DZiz3hw3DMN5BlQ9pKwZujbwgThEmHaRpGxHtx1QwZEQ1jV997ATuXwbaoeZkV6cKmmt1Uaf98kIlt7jNTbaM50ywmoyfpkm64WvnFEZrBDi9F/fwfZ+aDEeAxc9g4p5/gtbiJ7ExPM6zCbMC/62Gbpb3khloGCra0skUl+NZfGODYrUyie9uTGAtnoFmZ4/VFZV/KwuYibZ6AxqGYeyGZoT0MRhuoshylAPamkEPE8V1fOzcPH7zieP46N3ARHSNNmXHWE0Jk7Nc6gOtNjBZKtkatWO9ey/Bw8AhFiyhkVR8nE61dKxcop/sO5PXj3pYHAXmHkPnzs8iPvbruB6exSCc45uRj5ZKShwjr410Gi8nx/DljQV86VoXP85nkfFcXGVolT6zFAzzc4qbso9hGMae0E4UJSOnMMFUyi1cx0L4Fp64L8Y//EQL506q67qGDMte0VLJAeaun7HdD9jRrnqzOxvnDNzhtzqHWLD0GJ1K+V2HdlQ9qK7s6kqqruk8w/xQFTPA9HlMfPC3kZ78ODbjExSeCWYK+jEFI7MiwuVyEs9sTOMvVybwE4rVusSKH05L7wFpzJXC8oiek7VhGYZxK3I6wRXtSxSkyHtrmI5X8fDZhJHVAs4syEr1UBQlY6ZZmi2aaTfOSu1WsmEyWO7QHTnhorwFziE/3BxyweJWh1c65D+ugdL9bHfCETA6Kl14fQTo3o/OPZ9DdPRX0EseQF89/+I2riSz+G42j6+uzuGljJFVMo0oVHuXhvbpb/Bf5+7o7spchmEcDka2ZIfN8GMyd2+yA6NVqNw1rtOWNkZSmg/QneMtVL+jxUEiTT4wXMXR1gp++WPH8YXfuMMtwBhVq7RGBVpRQkdan9r+29vfgGyfHrHr4FASMCF9So4t/PmaPb2eIkmpEeTcLiF742n03vgjXB88i69sJvjLjaN4Lj+O0q1gLK9H2ZOZ1cm+xlEoQbUvGPKPQQYaJxQ1az63qlQbZeF6nXqfb+T3FbMIevdh8urnEObT/pxxCKgd3FGUMxInvwm9p45W6gahCdo0IVzEV58v2mmCwaCPrMgRRpSiMETECCserOLcUo5fe/wofuYDEWYYICW8tyr83L01UbbapQLNwGO2RIxK2hgjlclpipgXnXTrMIgxxAnEy09i8iO/j9Ujv4Vnr9+Ll1YmUDDz9eMIa5SjvBVhWAwRayZl3iegcmm+wAEjr3qJfMMwms5OcaKJkM1wAqIyH7lyr3Mly34vmHaTXwtNrKRtkGtsZ4gqSVFSsOTszqRX8eAHe/jsr5zAI/dFmKZYhZqMgJ/zf4l7bmCxn1XH8JhgCeUNboqUVK2nudRVsTcslxFO/DzuOfe7+NhH/znOHnsY8WaAOA+RJC0M8wxRi2G7Bhwzl42qmT3b+dswjEajwryzQHvnVGLljMeOzfUkHqGOEar62xzSoU3biIMM1eYbWOqu4IkHJvB7v3kK99/BC3tDpIykYmeE/A28KeG+anLcvQ1hVYKCEZJ69jHYd42d/lTX1RTGyithHzcoY3+z+jy+9Oxf4Puv/AjXqk30eV5OkDwjdd7wEZYitDqDWUY7TFiVoOFRuX5n2ZabqylJ/dyAfN/Zg4RSVCCq1tEpV/DhOyI88fBp12V9noFYRCMTFTl1ieI3ms5tp+htjb8yHJYSzGQIhyOPZqTdlUJ5rVhF9EaeYppK9NHpU/iXj34Ov/3AL+F4PoXuoAX9p7pqCV4+GuCXurpswzAOA9udKnYy6lCxQ7zUnSuqtMae714uKyDxmggGmKmu4/EPTeL3f/U0njgHLKCPVlUgLngHLaIniyFbs0sHZZEsntiJRVguQ6iXoGZJZkSlQ42pCmNGSj4P+ezEPU1QyddNhvbff/un+B/feBo/XnkZ14J1DCl6msRdEVmRacmRxM0Jpk8ogguikB45M7jlv8ZiEdZ44nr/OjuhakD/vAtFUU5d/HthHGJ9Yx3dySkUBcu7IifalTYjq6XpIZ585DR+8YEAC2qrqm7QNqidSytD+Du7ShluLjBzZ3ToKgXJKH8ZJlg+u8jwaHZkJoh0iUeqOt4tWETCI9HhRX1+5o3sIr7602/jmRe+g59cfRlZWqA1lWKtt45ktASJcN1a+dmQoiURM5qJCdZ44gVLxrJ+1rQBLNMSmTCskBUZIhoIRVTDqoM0yoDeFSxODvDYvQv49GNzOD4BTNEkVHmOgg5xHMuhHdXDeFVS7nL/erwcGrsxwXIZRIYn5i6zSJ0ayi1b1QA8kJAxqSq1dVF8tBCA2lw3MMBz66/gyz96Bt9+6Qe4MriGYcLMHJe8Rpk6cFvF0L/U550rZTQRE6zxZC/BEjpfFH4BVzU/RRHLehmiE27gA0stPP7AUTxyFpilaUkrPyF2GaS0Iapt0V0kUbIx9Ss/7+49yk8jzGJsY4JFfFYppEjcY2ZxURD3NWrPpU7ItxQdAf0qZ/Skrql8SyLGTDsIhlijcH3/yo/xpe/9FZ5946dYn+yjX2zqw4joTWkaFmERVnMxwRpP6vYr351dz1qvclpzihSd0rBAf7COqNrAPfMVPvbAGTx6XwvLM0CH5T6O6sHEo/FZuh03LWmvuzDjcBMR76xqR/1Nd4nDLMY2JlhEGchnCobyzChDJO5Y7VbygrQnfOYqkfFUHMRaYstXI9JulcEAg7TEheIqvvXKD/HfnvsirvSvYTAYuKpARWXuHhZhNRYTrPHknYIlK6Dak8KJVZ5vYHp2AufPzeJXPriGu45OYU5tVQWFqGAeiVqueUGypCEzEW0FtLw9ndfdbVb8z++6817Gcn5G9sfshjDBIkoAnx20J1ny9cfb5+rM4pNKTaFb2cd/RClJ0apUUUjBK/Bq9Rqe+dG38NXvP4PX1y8in6L8tSv0siEyel0a8Z7I48rpgWmCXS3exptqi2Jm5EJqyAy+4/HISCoj+0ytLrOj91xVxdY3GrH9OeP2YIJ18FGvvG18mSidkzjad69+AdaUgqL26IJ6oK7kKtfDkWMZh5GrRSnyHBOuowTQK1i2eWEYRUjorVaDa5hJVvHguQU8/vBxfPAkMM/PSl5cjqi/i5oE/N7Wt9jKM0Tv+fO78Z/ZZW3GHhOsfSJDHyvVKl6+cQHffvUH+MYL38Wb65fRj4YoE2bBNHLVhMWwRIdZXItHBqHGxVfI6ZUlcex6LG55WnyN3MRi/nGpPn13V1tfAPy1vNie6m3HBKsJeEny/ev0XNT1fIRO7SgYGjtZOidQ57yIBGFMkaIY0SxKtORIZhmfdRi4jhVB2UdUbGKqNcSHTs/g5z6ygHvvBObaiplyipxmpzD2CxOsfSIbDBC0NMVTiRvYxKuDt/Cd57+Lv3ntx3jh0ou4Xq4hnUgQpS30h7nz5FRuwiRGK0mQD331pKoSKvVEYtnr8MC3/1au0Va7dYNwjau1IGVlBed2Y4J18FEth0dCtePZuCMKkSsviqx0RlX/OaMnvkczqMG+cgR9773AdV13BS6ZxHBIoRq+jZPzFc5/cAEP3N3FhylUsxrK4vRu3dWMsJS6zxr7gwnWPqFgiInL8qIBxVqgv8IG/7vQewvfe+V7+P7rz+LFKy/jSv86sokWklbiJtUtixKRehGVErCABUxGsnJVhUGpqEuFQY9M592fIiqI9Tn6lix0Jli3HxOsg49fdUGMzNqWgEmQfPlw5UT/aRVxHroGgNGcgBWVLKXD6DpTZX2+PcQ0Q7HluQTnTs/iI2cCnLsDmGdEFbO8hgEdS3mPFL2irBiFdf2fM/YFE6x9oqyYkZmBw5AFiAUhL5jMqitntLSJPt7ML+P5N1/Ajy69gL9+6zlcWV9Br8qR010bVkPEsbw9XwXIYqQHRb9QY7tqj3G7IMqQerajLa3NZdxeTLAagHPUWF74fFQKXI8oVz4kKgnLEZ+iu4bli++pfYtPks+Tp0jbjfxfA7JVTHdKnDw+jUfu7OLekx2colC1+VHNK1DlPXRaKYpcHS9i3ov3YBlV13Zj/zDB2idKaJkBFpgidD0KnVFTGVK54aHaqnx14RpevvESfvT6i3iWAvbKtQu43FtBFmcIUjXw6vEw8uJ/lUoVxa/GRXBEM2hUpa9315gvOXy5dZ+/7ZhgNQAWCTXhBuolgRyFc/pUVkKUJZ04Fr5A61BRZCqKTcXyVSlKCgYsp0NEFKqTczE+sDyF+84s4OydwPIk0FLR0+01lmX0uHXrMPQdtLbYdWDcbkyw9gknVszi9ON8HpbQqIpPBUrHKgCjTfLVY+F6Y3AZz154ES9cfRX/56Uf4NpwFav5OrKoRNhWKdHgYxlKeYeBq0JUFKdRi6EEikql8yJXL0PjtmKCdfBRe29BUSlZLlTWtJSH7/gX+E4UzpHjCTp4ep45BSqN+licDXF8PsYnHlnC8hxwmluXl7r2KSdVLE91wd3aiHtf+PLulwQx9gsTrP1CeuHytZK33ka4KGlHhlcVg9w1unFD/nctX8XV/jW8dO0N/OTyy3j52pt48/oVrJXX0a8GKChUmpuwVCgVsHDqlZu61Bf50HWV71hd+m3HBOtgsZfp6lOwqkBd0lMWPQoUy+HWIP9CKzH0Ecc52kmG45MFlo528EFGU/ecbGFpFlhksVHFu+YBZGHihzJUySTv6R3PrSaxnagMugKvnGCCtZ+YYO0T0h8nSfqH9kyju7ZHYwjXMuXO6JJCo5FpBN30LiwV9P1clWGPMnQVq3j97Yv43us/xIWVi3jryiVcX7+OjWKAMuXnUgpdWKBQwYnpSSr6GvoCZNw+TLAOFnuZLlfrx/NhobZdRUglquEawnIDs5MBThybwvLyApaOpLjvLuAIRWqCBTDVteWQZU/lhs9TbVJ81arhqvTbFisp36jUqjaDm3JBXdp0H2P/MMHaL+oc7HK6dupkrl8lVj4q0hOIRh6cqir8Hk/yRb2aJFxqEevz37ViA5dXLuPCtUu4snkVb1y/iAvX38INnl/N1tGjiGn9naGvyzBuIyZYB4u6+nsnScUIiiUmZRQlgVqYAk4eaePEQouvHb6GmOyAEZaPvNTUFWjpepYa9UpX7UQQ8c2QZ1j21HocubkmJFsq1Nr0d/XMVUBVRrlLVOJGOcHYJ0yw9gsl61Z52pGjd7J1mvHX6DGozt1RCx5PFyWNYxSxYPFA1X9R5QRsyEI24L89bq/13sQLr7+IF157ARduXMHrvau8QnEdIy/V6bPwqdpCAqjNzZLh/v7NX4pneF418u/kndeOCxpiECrNlIpVSgOmAaf5yGhSylTNW8wg7J9D9+rv8FnNuM/V7FXMzLiNCoBjZ/r4fS8Evju64h2fKykolfrAFkgYQqk3YMyoSLOmKz3vPj6JpaOT+MCZFk4t++7nquJT5JPwHqrqqwqWHpavMkgobL4KT89n0B+i3eYHRl+rrOT6ZSyTCU/p7iqpelsX+KfnssQWPNhDRI3bhwnWIcItY8LHmbEQv9a/hPXBBq6tX8fVjRVGX2tYGa7iRraKa/0bWBtuop8xZmOh1CSeWa450TIMCwmc/EpGgLtLozMUrlCOI8560lS5ZdF16CMsGUytfVaVE3wAkwiHJ9C68ntAPuuuqwnUIWa0X3NT8o4d3vIoVbSjjbmOiaJNM0vEVKQ4jtBhkk9TVzppgMl2hbnJCHMTJbppHzPdCgtzKRZnO5jsMqJqmSNwmDHBOkToUfqN7qNrfJYJcJ173aalUNSZ4+LKVaysr2Cjt4mVzevYzDYpWBl6vR42ufWGA2z2+86W1IGeUI3+OKPqI1UQKWH8rAk5DatSiOfKjhOtkEIVrz7E492dXpx/fpNiSbBuFrHxQVMdKe6pE8ELVquV8HyIhGKVpoyAWilmJ0IszbcwNdnG/PQEBQqYnQTUcVZPwwmUplMqM35GCyMahxUTrEOGe5zcnD/vHq3q4X0VoNbycpGTO6tuHaowHLqjcGSIdV7xld/XO36TTfGtbuOK0kQp4dPJ7zPKciKuYxnfNrfIXbEX+oSxza3yUp3naiRIEZPfRV98J+K/GtpBhUKkc+5i/57vVj6+ufSwY4J1SHGzvbPgujaWUfnNs9LPuMETmvfMD0lRQWfBdzN7ekNRZ4jaRNeo08H4UvcFk0F0CccjtRJmbt+ddzMoUPoV4b4fRuk9rriB8FsoJZgXlSZyrpQvue+6OpQDZMOeG6Sr3Kr4VqsdRG5V79qN8veK6lV8jUOJCdYhRca0Npt6wm5eQu5ogDHLvbMPGW2wGqLVkUNeam0/3Av/2asKa2wJfIO/E6tRO5ZLRJ13CbMjwVxb3004x+GmBB1zfHaq00RHXqiUzqrWlrPlks05AxQn7ut9XaJxUUpu/ym/CcW5lsqHFxOsseHmx7zTUOxmpwHYyXgbgjrerKsEa+rz26kWqF/aXgl4E7XBNd4d+Vdb3tfOpB/tqxrb4yrCjUOMCdZhRE9051PdKsU86fbf/ZHf6l0zB+JWaSCLWltVRQSj3XfDkvPvSJ24N78KyZsl7GHFBOswoie686nW5Xf0uu2R+tr/913Ab64jHDf2+vl1Urr36oR/v+k5eh1b3mc6Bb6DkIu0tvDuk7/Dzvu8z3sajcQE67Cyy5BuH978sLcL/Yj3yg3jmlvqRHKviqS4cysBd9P7vM+EGtf03IXS8RZpSdQJI3cJJZGqr/NDef3eNre+i3EYMME6lOiR7nys24X8ZhRt7XXlTrbPjbc58OlUd74QMpnvrILy1+1M1b0Z79R8/79+68r3TtJxT9RDjwnWoWWvx7p3ad4tWe9W5s0a+HTdmV5Kk93p8rcpUJaifwveT8Jagh5qTLAMwzCMRrC7HdMwDMMwDigmWIZhGEYjMMEyDMMwGoEJlmEYhtEITLAMwzCMRmCCZRiGYTQCEyzDMAyjEZhgGYZhGI3ABMswDMNoBCZYhmEYRiMwwTIMwzAagQmWYRiG0QhMsAzDMIxGYIJlGIZhNAITLMMwDKMRmGAZhmEYjcAEyzAMw2gEJliGYRhGIzDBMgzDMBqBCZZhGIbRCEywDMMwjEZggmUYhmE0AhMswzAMoxGYYBmGYRiNwATLMAzDaAQmWIZhGEYjMMEyDMMwGoEJlmEYhtEITLAMwzCMRmCCZRiGYTQCEyzDMAyjEZhgGYZhGI3ABMswDMNoBCZYhmEYRiMwwTIMwzAagQmWYRiG0QhMsAzDMIxGYIJlGIZhNAITLMMwDKMRmGAZhmEYjcAEyzAMw2gEJliGYRhGIzDBMgzDMBqBCZZhGIbRCEywDMMwjEZggmUYhmE0AhMswzAMoxGYYBmGYRiNwATLMAzDaAQmWIZhGEYjMMEyDMMwGoEJlmEYhtEITLAMwzCMBgD8X09yqYf2yefNAAAAAElFTkSuQmCC;" vertex="1" parent="1">
                    <mxGeometry x="320" y="80" width="120" height="114.68" as="geometry"/>
                </mxCell>
                <mxCell id="6" style="edgeStyle=none;html=1;entryX=0;entryY=0.75;entryDx=0;entryDy=0;exitX=0.5;exitY=0;exitDx=0;exitDy=0;exitPerimeter=0;" edge="1" parent="1" source="4" target="3">
                    <mxGeometry relative="1" as="geometry"/>
                </mxCell>
                <mxCell id="14" style="edgeStyle=none;html=1;" edge="1" parent="1" target="9">
                    <mxGeometry relative="1" as="geometry">
                        <mxPoint x="250" y="390" as="sourcePoint"/>
                    </mxGeometry>
                </mxCell>
                <mxCell id="4" value="" style="shape=mxgraph.cisco.computers_and_peripherals.web_browser;html=1;pointerEvents=1;dashed=0;fillColor=#036897;strokeColor=#ffffff;strokeWidth=2;verticalLabelPosition=bottom;verticalAlign=top;align=center;outlineConnect=0;" vertex="1" parent="1">
                    <mxGeometry x="160" y="340" width="90" height="100" as="geometry"/>
                </mxCell>
                <mxCell id="5" value="Google Cloud" style="text;html=1;strokeColor=none;fillColor=none;align=center;verticalAlign=middle;whiteSpace=wrap;rounded=0;" vertex="1" parent="1">
                    <mxGeometry x="240" y="120" width="80" height="30" as="geometry"/>
                </mxCell>
                <mxCell id="8" value="Frontend" style="text;html=1;strokeColor=none;fillColor=none;align=center;verticalAlign=middle;whiteSpace=wrap;rounded=0;" vertex="1" parent="1">
                    <mxGeometry x="160" y="440" width="80" height="30" as="geometry"/>
                </mxCell>
                <mxCell id="16" style="edgeStyle=none;html=1;" edge="1" parent="1" source="9" target="3">
                    <mxGeometry relative="1" as="geometry"/>
                </mxCell>
                <mxCell id="19" style="edgeStyle=none;html=1;entryX=0.95;entryY=0.91;entryDx=0;entryDy=0;entryPerimeter=0;exitX=0.003;exitY=0.892;exitDx=0;exitDy=0;exitPerimeter=0;" edge="1" parent="1" source="9" target="4">
                    <mxGeometry relative="1" as="geometry"/>
                </mxCell>
                <mxCell id="9" value="" style="shape=image;verticalLabelPosition=bottom;labelBackgroundColor=default;verticalAlign=top;aspect=fixed;imageAspect=0;image=data:image/png,iVBORw0KGgoAAAANSUhEUgAAAWcAAAFtCAYAAADbI6vrAAAAAXNSR0IArs4c6QAAAARnQU1BAACxjwv8YQUAAAAJcEhZcwAAEnQAABJ0Ad5mH3gAAIL5SURBVHhe7b3nd+O8su5ZVo625Wx3u93hTXufeM/9NDNr1pp/fmY+nLkn7P3mjm7nHJRFSpp6CoQE0ZQsuW2LkvB0wyJBMIHAT6UiwlybRVZWVlZWoVLE+7SysrKyCpEsnK2srKxCKAtnKysrqxDKwtnKysoqhLJwtrKysgqhLJytrKysQigLZysrK6sQysLZysrKKoSycLaysrIKoSycraysrEIoC2crKyurEMrC2crKyiqEsnC2srKyCqEsnK2srKxCKAtnKysrqxDKwtnKysoqhLJwtrKysgqhLJytrKysQigLZysrK6sQysLZysrKKoSyE7xaTaRQbFvtFocmNfkTitCcfGq1SBXt6FyEInNRikaism5lNQmycLYKvdr8b84HXrfpUqlWpHKjSBW3RJFIjKLt3h+CzbZL7bk5ysSylE3mKZ/KM6R70wQd28oqDLJwtgq1AE8IAHWbDtXcGlUaZbqt39Jl+YyK1WsqNm7ZOo51wcu7YL8mA7zFxTubyNNCeomWsss0n56nXGqeUrEkW9KxnuNbWYVJFs5WoZXfqi3Wbum8fEr713t0cP2VTkv7AudqoyYvT+bYSgZrUaQBZcdxGegtSiWytJgu0Nr8Or1d/Y5er76j5ewqZThey1rQVmGThbNVaAVg1pw6ldhKviif01npSMJV+YKuq5dsQRfFknbYQu44K5T7WQDtuk2GM6AbpWQsRZlkhlbz67S+sEkb81u0nt+k5fwKpZM5saStrMIkC2er0ElcEq0mQ9ehq8oFnRSP6PPFBzq+3WfL+Yjja+KykLRiKcuikgdnqMlWc5Ph7LgutVoqUTyRoEw8R1vzL+nV8g69Wf+eVnPrVMgUKBaN25eGVqGRhbPVWOV3J6A4ohUG3BeHtwe0d/WJTvizWLsSX3PdqVKz3WTYKgrj75y/BHuARmuNFjNcuzfg6ohFIwLhdCJD+dQ8LWSW6GXhFb1eeUsvFl9SIbtMkQjafRjX5LtGK6vnkIWz1VgF8KmFtnrZVy/RdfWWjov7dHDzmQ5v9ui6diYvAwHkNlvAYC+KrYZyywCnCep2e47anuWsXBycMgonB6N2jj/ZSo7FErQ2v8mA3mFAv6HN+S0GdoGyiSylEunO9Vk4Wz23LJytnl0dILMAPaw32cQ9uT1iS3mX3p/8QZeVI7p1zqU5nNtsiotCgdnY11sMgjPArD55nxaD2WlRw2kiRuJhG0ciHKJRikZjYk0XMitiPf+08Y+0vbRDm4UtuT7If81WVk8tC2erZ5UJOYeBXHcrdFm9oMvyqbgvAOjT2xNpv+y0ypIORbTZYiTyrsPCGVKA5j14f9dlC7rh8nGQQCWKsPWMwGa0WNLJRIoWUotiPW8VXtKLpVe0lF2hxcySuEFMf7QFtNVTy8LZ6tkkYJb/8Cs3BcAXtTN52ffl4g86Kx9RtV4U9wVe4LUZyCieAHIXxF3dD+fuCo7pNPCCsKXcG94u0qtQ+KwsaWL+RtoRgfLm4jZ9t/4D7Sy/pdX8GmXiWU4TlbSQBbTVU8rC2epZVXPrVG2U6bR6TMfFAzq82qWryhndVi95W4XB2RCoKjCL3Sv7fSucsdx0GcwcHBfuja5MQKtAlIglxe+8mFuR9tEvl17TFsN6I79JqXiKtye8va2snkYWzlZPLrS+kN59Tp1BfE5nlVM6Lu/Rye0+HV0fktOsULPVEGtZiMyCSyIYxF2NBmdlhbuOQ46jWm6Y0uNyiFXM/9ETPMr74IVhNpWnF4UXtFXYoZeF17SaXaVCdokhnaRYJMb79HYJt7J6DFk4Wz2pBIgttFe+opObQ/pw8Rt9vf7IVnKJGm6VHN6m3BguJ5b//KcLWw3jb4Wzlus0xXrWLxiNU3UADWnXhX5pmGRIp5N5BnWBflr/ib5f/4E2FjZ5fZ7iALSxr5XVY8jC2erJVK6X6LZ2TRfVMzovHdNZUbkyLqunyn3RanIJZIgCklwMOwXx0eCMeHMPhjN/EQDMrQa+EDh48ZAJZ0hb0YjFsrTqSKRpa36TthZf0MbiFq3lN2glt0a55DxlEhm1o5XVI8jC2eqbZWAVK7Lebrfo6Gaf9q93xVo+Kx3QbeOCYahA3GILFnAU8nm7d47yqHCGunuJuwS9Dxt8fkBaWm+oU/rhrMCs4nDNsKKjMY7hz3g0yVDeoFfLr9mK/oleLL4SUCufde9xrFVt9RBZOFs9SCaQNXzclkuVeoWuq+d0VjuiAwbz6e0B3bD1XHXL5LgVgSFKnFjLPip3jvhEcNbrKPIYj6Pl8JdEs6mup3sIUQfURjwWAWaxoiNRSiczMsIdBlXaXnwtHVlW5zdoMVugbDLbGSUvKK+srO6ThbPVyDJhg+IDK7k7QNEpHZX26bD0ic6KRzJAkeyBYsYWK4xlGRvfZJR3uM5RnxjOkHJvMKDRvK5PFegHaPwRCxlW9FyU00VoPbslrTkwXsd6YYut6lUGNAZUSnXaUmtZQFsNIwtnq5EEMJtw0WMs71/ts6X8hfauP9J17ZQq7g05rbpYqChigKZqr6yayPXIW+9EPyqcu3uYcMY1ufxl0YR7g614uDgAXCNJr5vDv8h/lAuDU/FnHC8M4xj5bl6s51crr+n18lu2qF9R0hs7Wsufh1ZWQbJwthpJAAuKTKPZkPGVMe7FReWEjm8O6fT2WJZrzaK00FBiOLa6IDIB2ZFXAjsF8dHgbKywes+t/M1Ok+HsoA10czQ4a8Eijs5RhE+F/dENHK6O5fwqvVxE07ttWsmvUSGzJAMtxSJxOYCFs9V9snC2GlkYzvOmekVfrj7Rp6tf6PPNzzJgUd2tU6QVEQiaxequNeuTt72T7JngjO3i3mgoOPsvbSg4QwC0pyh6GQLyfGw0s1vMLtNPm3+ld+vf007hnXRsscOSWg0jC2erO4J1rGVaeGgWd4VB7yundFY6pJPSHl3Vzum2cSlN4zBAUUTAzIHT6z3HB2cdr/a6C+c58Tej5YjAGcveVq1+gIZ6Vj1Ai6tDlkhcHclEkhYzy2I9Y1CltfkNWsuvUyG7wqDOeSlx7+rCrUVtpWXhbHVHJpz1oPfoMHJUPqCD6890eP2VwXwgo8aJ+4KToxQJGL1JVrGoMRNWOCMWce0mW88MZ920zn+JQ7s3DCl/tPqE0OV7KceAXnpJr1Z26MX8axnkH/FwhWAMaS0LaCvIwtmqr9AeuFgr0Wn5mL7efKDT6j5d1A+oWLmlWr3KYPbGweCAF30d+WbBDj2cUQUYyug9CEhrmckHWdCQhrApFcOo5eyAKwPjcWTTOVrMLjCYt2hz/hW9WX4n/mnMDG5lZcrC2apHaBanfMrXdF2+oqvGOZ2U92n/9iPdsKVccW4UxNjKVDugEGHBBycD0GGFM4Q4LM1h/A8HAyM1pQ22xPkutQNoXzwkUQGAlvzhrFCWdJti8RjF40maTyzScnaNdpbfiKtjOb0m7aNz6TxF57oj31nNriycZ1xwYZg/o1XTuDq9P/qN3p/8RlfNA7punVHJvaaW4/JPf1jKveCAn9nDU1cTAmd9PGyTds8ANH/xoFYE8VEAHRDfieoDVUQrQKsAN0Y8hpYdeVrJrNF69gX95cU/0c7aW2kbrV8aaheT+YysZkMWzjMsDWY9atx17Youqid0Wt6TbtcYqKhKRWq0qtRgYMMfi5//jBbvCErTAme4cdClvIlxN7haoGoEWbBBgO6u3t2mpQ4FOGMZAyoxoGU+wyzl4vMyuP/LxVe0vrhFK94g/4A4ehr6v0Stpl8WzjMqVHY8egCp6jCC6zd0VNyjveIH2i39Qbe1S6o2igqYGFu5CYCpojKtcJb7E98zfiGol4OAqP+S+7k31GrwNlMmpDG4P84R5X/Z5AItZVfpzco76WmI7uAZzGUYV5Y00llAz44snGdIfuur0qgwhK/o69Un2rv5RGfVPbpxL6jWLFHDceRnPkoHgGeWkmmFs/pse+4NhjQD2rxTvfugl4M9q4rCgcImeRb4D+hyQKuNZDwpQMZMLOvzL2RgJQyqhFnB0QNRy1rS0y8L5xkSKjRe9jXcBpUaN3RePaWT4gHtX3+kw+JXKrnn0uVarEX06mNyAV4m8KBphjNeDIprA3MOunxkX/XQh/hWQOvoDqD5Xzva5ryMcNa1KRPL0nx6UQb3l1lYCi9oKbNM+dQCJbymdxbO0y0L5ykWYAyZlbhcr9BV9Zw+Xv9Guzd/0tfiR6o7ZbYSawwodMTgtBwAOYyFoWU2lZssOHf3uA/OALMW4IyWG5gQFlVE3415iG8BtD+q84z4A1+OFI1QjAGcjGYYyIvSNvr16vf03cqPtMiATiWsFT3tsnCecuFlX7Pl0m39RnrznZdPOBzRcfkrXdRO6Lp2IdY0wAwJ3Aywak0mnI0V1ihwxuh56NotvQcZ0OYdm4fp53+GOlH3WM9adwDNUu2jk7SQLdBqfp025rdpfX6DVnNr4urA0KRqqqzgc1hNriycp1iAMgYowizXh6V9+nz9no6Ln+mickSVZpGavK0JIIFJIM6cBycBa29lnzU4o60zf2WpKa2cYN+zlgDaF6cl0QPAaW7yW7+yjW+ojUH+eSUZTVM6Oa+GJl1iS3rlrXQFRzdw+KvtmB3TJQvnqZB6hPirKzgs5rMSmsUd0EHpIx0znE8ZyjJ3XxOzXLtiEWIvE2iiADgDQLqkDAPnNh9Dx/QCszedyNveSWakGReccUx0yEG7Z5nWio+ljx10CzJmc4BUrLctIEnQbj0WtHzixBGBbyyRoHQsQ7lknjYWtji8oC0OqzJd1qo0u5N3Bniu2FcUcBKr0MvCeSqkHiHcE3W3QdVGiW6dWzq63WWL+QsdVD7RTfVcmsspGOClFy8wZXox68nCWSSAlslgm/xl1t/3rBUEaOPKzJWO7oOz/sCtYBYWtI2G8EIQvuhlBvLW/EuxpvGZTy9QJpWRCWn1TCydA1lNlCycJ1CwiqBOJfaEpnHnxTPavX5PX67+pHNnn4rOBTVaFRn0Hk3EgFmvumMXoUwvalkBcJ41twakree293JQT0Sr/btBt9L5SjK29SbjtYD9TEj3PFdfWnQBR/7PRYmi0QTFozFKRJO0lF6ltcxLerv5HW0vvWJLek3G8jDVr9xYhVMWzhMo9ZNVVTD03Ks2qnRdv6SzyiEd3uzSSQUDFB1Rxb2lerPCUFFjF6snraEJEPEyE6YXtawAOEuV9krK5MAZ8d09HgpnavJ/DMoPP/SAl4NQ9/cCK3iRV3w7sfxR/QAti3yTAmjeScbtYIs6E8tTLrEoUF5b3KSXDOiV7Kr0MkQnFvREhMyyYxVuWThPkLTlAynYtmSAovPyGX29/ZN2b/6gL7e/U53KNBdnS8/lSthEt2TeT/33VUuu2UyXXtSyAuAM6OiSMllwhtReD4HzHL7Y+F9LAK3G3fDnl3nYHjhDxmrPlgcC2r+XAJqDdPPmgFYmudQC7ay+lZ6Gb5a+k1YdGPVO3Byd4/iPZBU2WThPmAAK+JbRNO68dEIHxU+0X/4k8/bdsvVcbtyQw/8E5PjPAY0w9EPurZJcWZksftgEwXnW2jlDGs4yyxbD2eXtAHS7ydYnZ6x2b0DmofsBuic2AM5a5qZRAK2uZ45isTjlk3lazC7RUm6FXi2/oReFHVrLrVEmjplYuvMZWoVXFs4hFyCrK6i4MNwKFRnAZ5Uj2r/apYPyBzqufaK6W/V8ygANs8R4rL1gNTXtcDZWWA+FM2Raz00Am3+NiMUqW3suWRTk3vAl4Yg7MSJ/tH7+oqBjeTvgr4K0um+0j04m014vwze0s7RDS5lVtqwxK3ia4tGE3Fd3b6swycI51MKj6Vaak+KRdLPevf2Djitf6Lx6SNVmmZxWjWHBFp03kap6ot19HwPOo7o1pqW1hoazNG7h47X5+w/+Z9UMUQm5EXRbnRwI2NaJCgB0ELNHAzSuTbk5IrEoJSIJyrIlvZbfou2lbXq5skNb+ZcyyFJX2KfniFZjloVziNVqN+Vln8zdVz1jIH+lI4byKUP5uoaB728lDdTzFDuk8CqsQY7e6mfhrI83DJyRj9I5xfM96+Pr3Ai6tX6A7qwGkZj1rYCWT15HwHWhFyF80cu5ZVqbX6PN/CuZjWUpr2YFx6BKc52md1ZhkIVzSIXHUm/W6aJ0Qp8v39NvJ/9FZ61dum4fyYD3CExmLzFXKpNKkJDCq6wGNbpLEO/H2+5UyQA4j+rWmEY4azXR5hntnzn/HwrozmIfOEMDAR10LMi3k6whLsrXEZmT8TqiDOFCclMA/Zftv9D28g6t5NbtDCwhk4XzmARfn5ZpEaHnHmYiOa3s03GZQ+UzndYOZBD8MlvKdbcs7gs8Nn54vIfe11ephBIqbhxwVsdQGh+cdbza67HgLC4kF8/qrvUM+W+x+zXF8hZ7kowAaLOsBB4LMnbqLHEcOsmIy4MhjS7fObaYl9iSxtCkW4s7tJ7blKFKU/FkT1dwXVZ7zm315LJwHpNMOENogVHDy756UQa6/yIjxr2n48YXKrUuqUmOjDGMya4VDAEPDQas+yqOpFFxFs5qr8eCM6oMomVQJFy1t5uZK+apeuAMeas9sUMCeig4Q95O5jZxcXgXG09EKRaL8bXFaCG9RBsLr+jV0lt6Mb9NC5lFyiVzlI6npQ21KQvo55OF8zPLD2UU9ma7SaX6Le3efJKZSA7LH+iyfkq3zqX07sNsJfBizOFntDg/vZ29Qz0HnHEOXVImC87dPR4TzhJcQFp1TNHSdx10m49hQQfCkaPuxBrHuruNrzeKwZQick1otZFgEM+nClTIrNJ2YYdeLu/QztJr6cCip8nSsoB+Hlk4P7u6xbzm1ATK1/VzOq0c0tfyRzqtfqVzXq61VCsMJBZwtLxqj5113fAOZOHcTd97LmOF9ZhwhsR65j8tF+4NiRLhzoNuMwjOUE/SewDdD87Gh5LvOL3b1MXKaHc4In/iehORFFvLOVrLr8mASmgbvZpdY2AvUzaVobjXHVwdq/f4Vo8vC+dnkMaxv1CflY7p6/Vn+vP8v2i3/DtdRY7YUq6JRSbijzZDGXBlBHDl9mHUS/YccJ5Mt4axwnpsOEOAM4YV9RrNdGTmkP+W5Xn54npW7wG0VgfUPXE+GTt0loxMkmcZUW3pAWm02EATPAzyn0sU6Pu1n+in9b+yJa3cHV11jYzOdVg9qiycn1Hobl1xy3RTv6bz6pGMGLdf/EDn9RO6bZyztVwit9VkIHg7QAw51CVEjRPOOIcuKRbOxnGlYwraPd89n86BoFseCOhR4QwFLyoNC2jvmWFQpfhcnC3lNC1llmiFLemXhTe0Of+Sl1elK3gqkZa0Vk8nC+cnFrIXYys7rYb04jurndBxZY/2bt7TYeUTnVQ/kzvX5DQu/zxGel1vFHK1AA8L5+461I3rpr97ru4eTwFnWe70HDRO7gm5EHTLnafr2yarD4Ez1LPNkO94nTUjs8xnKiPf8T5qvA7lk97Iv6IXizv0auUNreU3ZLwODEsai8SVxd17RqtHkIXzEwtN46pOjY7Le3Rw+5EOa5/otLFPt84FVRolqjXKXsXnn8YeAVSdUZVFF/lxw3ky3Ro6Xu31FHCe4w1Y1926sYxraBtA1Dlhnr4fnCGJGhLQUA8Ygxb7wRkyMiwI0BAgnU5kKcsW80JqkVbnX9Dm4kt6ufBKxpNGBxY7C8vjy8L5CYQsRc+9cr1MV7UL5cIof6Z9tpTP6wxm95Ia7Rq10U6246vsVhlVX1RF0bEWzurTxGc3zri2wHOpvZ4SzvJiUFrTcOD1++AMyXPzxWlJ9JCA7oEz1LPNk7GDLzVHqPvxP1cAGteMzZFYhKLRuFjKGIZ0JbdBLxjOmwsveHmN5lPzlElmBeh3rsfqQbJw/kbp1yJmgYQbAy0x9q4/0efrP+iP4n/QpXtMxfYlwxjjArtSkWXXnhqrllEZ/BVl3HDGOXRJmRw4Gyusp4AzhCaOaO+MpGi5gZ6bQXDWMi+jY0FD5uWxZHUAoLV0kh4oBi8qCUDvKrB3YITviz+ifMsC3mhUQgLdwRNLtJbbpO/Wf5RmdxhDGhZ0dwYWvlf+F3w2q/tk4fyIqjOQb2rXdMaW8kllj46re3RW26fz2gFVWyVlLSO3ufKCzZACm5ZaDiOcsa7BZ+Hce1zAWbbzr6AW/xrCF2/vkSSne6Qv5V44Q/cAOhDOUCfeJ2+Hu/EA6Z3SQC0GtI7FOSJRDpEIxedSlE3kZbyO1YUN2lzcolW2qJczeGm4IL5qq4fLwvkBMq1lWMnywq/ZoKvqOR3cfqXPN7/Rl/KvdNk6Zijfdn7qovJjzAkNZmhS4Dy5bo3uHk8NZ7g4BMwCaLVfPwtaX8pQcIYGALovnCGOuhNrHKtnm5d5/ucLOENSKnhRLGgcgyP0MgZPKuSX6XXhO9ouvKOXC9sCaMwKbk46CwVep9UdWTgPLZVN+GsWLszbd1u/poMyeve9ly7XN+4llVtXMsu1gyYYnTrftZhxFGhS4Ixz6JIyWXCGPFD2nFvF6eM9BpwhSd5sk9tsdq5l6JeDWsZqd5GXfMm0jMNzEl+inm2ejB16UnsXHFAiOtazvieBM8SRWI5Hk5RKJCkdz1IhvUzby++kE8vWwkvKJ3KUjKdUepZydWj1XIGVIQvnoaWyCVPkYxwMDOVZrt7SpXtKZ7Uj2ivppnG7/OvWVZWPayqytyUr/mxWhdLCmeVt7yQz0mhc6mOY+OzGddMHn0vt9RxwxnF0r0H9TWzCGULO9FwKqwfQvm3dVV7ybYN8h+ckRkTQYj84Q14GBgGaH7R8mHkMifUMX7R33CSDem0Bgym9pJdLOwzrJSoklyjL1jW6g0eRVlJCd67AypOF8z3y/xQDmMtsLR9e7tOH4z/oqPUHnbU/Ual5SzW2lJvNhtRJqdIDs1Ydb1LgbN0a8iEaBGeR1+5Zxn7mtB0r01BAlPccWQHbOlFBO7L80R1A9zuWb4eeNS8TgwDtt6BFxrHQ5jkSiVJ8LkapZJpymTytpjalnfT36z+KbzqbyPAuah/r6ugvC+chhCzCv+vKJV3VzumktkeHxV3av/lC180TKrUvyGnVOR1XZM5NpO+t5kFShdHCmeVt7yQz0uh81Mcw87UbZ1xbz7mMFdZzwVnOgzG3YUEzpDmFeUsiMwfNbUMBGktB231xPcALWhwEaE9BXyzBFrR3Rxypu4HHGNIY+S6XWKBCapm2ll5L07v1/AYtZArS01Cs7sAzW1k4B0j5xPAznitYu8ngdajRrMs4GF9v3tOX2s90Wt+jG/dcuu6ivbJyXShQtXr6X/dTN31XahmF3sJZSeekPoaZs90449runKu7R++5Vbzeim2P5dbQwoD8gLOUI143QefPc/PSnhrQPUmMHXy7dhQE6EALGvLSCqC9bWgjDZ90PlmQsaN3lt7KAP+bvJyIJigWjVE0osqcrntWyFsL5478P7HqTp0ui2cM4kM6aezScXWXTqv7dONcUM0tUZ2tZd3xYHSpc1g4s7ztnWRGGo1LfQwTn90449oCz6X26j23B135q7Y9Lpx5PzSt88oH9vH7niGdS+aldeAM+XbprvKSb5spfao7oOvEG9JAlb93FWg9s9RchT4ZafUS9o+wBY25DDOJLOXYYsZ8hhvz29IVfDW7Skv5FYE05K+HsyoLZ0MoFGgW57KlXHGKqmnc1Vc6rH6mI/cTXTrHVHSuxFqGY5ntIq546kVZn/I7QGqHfnD2VVGp9BbO3XWoG2dcW+C51F695/agK3/VtseGM5aRVg0pin3M8yvpXDIvrffJs4zV7qK35EuqpctjIOA46k6st0NAaoFroNh6NvO7IzO9Vzk6I95x1Fx0juZTy9IeGrOvSFfwpR2aT2Muw6y8MJTmd4FXMzuaYTibt90tBDW3TKXGLX26/p2+3PxOexU0jWNLmSrkujWvaRwg7u3wYKlzDoKzLMtfVeknCc7hmEMQ8d09es/tQVf+qm2PbjmzsA73hraetbQVbeZkz+WxeiAduOgt+faDTD7egRyvBuzS2enONiNTe559n9YbIvMCDGlIx6NxSsTQHTwmA/y/XH5Hr5ff0nbhNeWSeUrFkt4esysLZxaG6aw6ZbquXcvYF6eVr3RQ2ZV5/K4bZ1RvVfkXqvxGlQr27WCGVOGdVst5mid49R93EJwhHAIvB9vNrqV5X+cUqB+coe4qL/m2afUFtLd4Zzdjh55tRqaaz97snAKZed8PzlA7gpeF3v0xrNOxDC1k2YrOb9D6/CZ/btFydo0WM4uUZEhHGeCzqJmDs+nPUqBtUoXBfF49ZWv5T/pU/IW+lP+b6s0yNdoNSYt6poaDfMysUoW3H5z9AJw0OIfDrWGssMYFZylnvNpyu9az31Vg5qh5mR1A9yYXdaIGgDAQ0D1xpnit3zYvY4PgDEmJMbNlwDVB2Io8gItDPjnEIknxSb9e+oHerHxHr1fe0mK6oOYynMFehjMBZzxQ/8NE3E31is4rJ2wlf6SjyhcZC+O6cU4l54LctiPWDsoCcojtHm/Px5K6Hgtnlre9k8xIoxGnj9FFnhlnXFvPuYwV1rjgDAmc+Q+sZ+yucyfoJWFAlHrGAfGdqKCdPJmbOvVgyGP1JDMzl9VTDgxQ+5L1HM8U85Y38RV5AZPNRqMxyicXqJBZUi8NFzjw50p+nfLpPJ+z91hBdXtaNFNwxq3iZV+tWaWqW6Kj0h7t336mvcrvdFTblQlVXfiUkZ5zRbKGK9vjgxlSBaofnL3q2JGFs/o0kdeNM66t51zGCmuccMY+CtBcGhnQOndGgjMUsK0TFbQjyx/dgdmdeE++HXrWjAz2l4O+zeugftfmNbnTgIbabE0n2IrOMqQ38pv0YnGbXi2/plVezsSzapD/aFyl5X+d+5kyzZRbA737risXbCXv0efSL3RQRXfrrwzqMjWaNd7ekMrD/59BqkANgrMsy19V6S2ce5HXjTOuredcxgprXHDWcQrQCs76GBpIpnTO9VyupyALumc14Hj+qB6YBS8qeTvejfeu3VcOTB+0+Rw6Cro2oz20KMJ3yOkw6l10LiogTsXTtJ7fZki/oterb2TkO0w6O+2aejg32y45zTrd1m9k4Pvj0i4dVnbZUv5El40TsZaRA5wRqvLwsqzfLUePLHUCazmzvO2dZEYajTh9DBOf3Tjj2u6c6y4klTzoyl+17anhDCk448WyOg5yyW8965zruVxPnVJhbOtNxmsB+5mn6IEz5K3e2c3b6U48xBndD84Qxn++oz6VKhjQiFCfmCprPrHEQF6h9cVN6byC2VgW04uUS84LwM0xpKdFUw/nmlulUuOaPl/9SR+ufqMvlb/ThXNEbhsdSILnfXseqYLaD87+go8KbuFsIs+MM64t8Fxqr95ze9CVv2rbc8BZ9mXLGeVOw1niDXCZudtzyayh4Gx8mLoP0AG7iIKseygoXgN6JDgjBB5LlXg9ZRas6VgkQcu5Nbai39B3az/Sq8JrmTorwYCeNk0lnJvtpsxEcnJ7QqeVPTqpfabTxgGd147opnFGtWZJWTD8D6PMjUeqMFo4s7ztnWRGGo24Loi76sYZ1xZ4LrVX77k96Mpfte254Ize/S6fC+4NqDc353qArLf1XLonee6++J7VAOD5o3og7S3e2cvb6W58Nx96ysSDXg5243v2YSBDAmc+y1w0QulYmnKpeVrKrtNqdkON1zG/wdb0BiWiMbaiu/MZoo7f+SKaEE0FnPUDgE/ZbTao6BTpunZOn88/ylCeB/U/qdy+Irah1UA0sJZbEa5QvZXxeaUKjIUzy9veSWak0U9IH8N8Yt0449oCz6X26j23itPHw7bngDOE/XWvQX0oM0eDrGjfIUT3W9GsABiaUT3g8hYHHaNnm5nZLLNcjPpysC+cWbCgo8gouDv4Uze/S0SyMqjSi8JL2l56Q29W3lI+OS/N8fDCEFNmWTg/u3DJvRmOh1CsFem8dEq7xd8Zyn/ScWOfQX1OVbaU3XZDLGrUGbBZHWOcUtdv4czytneSGWk04vQxTHx244xrCzyX2qv33CpOHw/bnhPOErwXg/pwOsf6uTgg81BBcNbqRAWBMDA9R/rie1aNne7sbmS6Lhum/xkx5nMRBV2XB+g7aSHPgobED81nmpuLSU/DdDIn7aGXMqu0vfiGXi6+otWFdcokM0jl7QXpA989dxg18XCuN+tUQ++++jWdlg/osPhFxsI4rX2lYvOKGu2qV09URVBgDoPU9Vs4s7ztnWRGGo04fQwTn90449oCz6X26j23itPHw7bnhLP+NDumQMi1fi8IId+heBtH+OKgTtQocFYLHd1J1g/QRqabZcNsvQGZzybwIlj3A5qfCp4V9udV5YuOUTKCWVhytJ5DL8Mt2mBrejW3LjOFY4B/QFwJBw4+d9g0MXDmIuwtIWu7mXuJ8ZVLh/T+7Ff6UvqN9mo/U5Mccuf0UJ78LQtQzGGYojBJ3YOFM8vb3klmpNHPTB/DfIbdOOPaAs+l9uo9t4rTx8O254czB6PlhpaAxyedm75DiYIs6M5iPwgGRD8Y0Eam+8tGXwu6z3VBgwANl0ZX6lz6hWGM1GwsGJ50Lf+SXi9/T3/Z+Edazq/KoEpa/VgSNk0EnJGZOhPhV3ZcRwa9l1muq1/ouLbPVvMR3dRPZYxlripS2Mf3sm8YqfuZVjiHZ+AjSO3Ve24PuvJXbRsLnPmc8LaZx0Tu+q1nSMWrZVPdnGYFLfYBoT+6B1TBi0rejj3xRsb3A7SUqm4ypX7XxoC+kxZi67nNG3rPgMMgPecEtrElDSsabaHX5pUljXGkl7OrtIBZwWNq0lnIZEvYFHo46285XCagjAGKbuo3tF/6RJ+vf6Pj+ic6bxxQvVUml0s5KhgqQ/C8fWGSKhAWzixveyeZkUYjTh/DxGc3rps++Fxqr95ze9CVv2rbc8MZwjJ8z2g9pKVzNwjQQSzrB2dIVvsAEPJv6gGVtxi4N2DoLXZkZH4QoKVU9WadHKefIgHbzOZ1fkkZ5Y36l0d0LkaJWFJ6Fm4ubtNO4Z10BZ9nQIurgyHdvcf+1zEuTYTljBd5DbdBB1dqeqjD6gc6c/elvTL8zZi7DwMYYb42Lu3eXmGXKgzTCufwuDX6QdKDrvxV28YBZxHgzHECam+Tzr1+FjRkHrYH0JCx2l3kJV8yyH+KUQAtH/K3V0GuGS4o8mE+o44C0g+ynqFACxqZ4kUiT9A2Gj0M04kszSeXaSW9SS/yr+jF0gtaX9mieARjR3eb3oVJoYYzxrnALNc3Dczdd0J7N19ov4g2y1+o2LyUpnGkpwGSkqoKd1C5CJ/URVo4s7ztnWRGGo04fQwTn90449p6zmWssHrP7UFX/qpt44Iz1nEMtPI0t+kcHNbF0c+C7i56S779IPMUPXCG+u3m7XQnnhUIZ6gfoAPSD/I932tBQ5wAh8W1ANJxSlEuuUSb2Q2G8zZtLm/TYnpJLGmMfIeJacOkUMO5XC/R8e0hfbz5hT7c/o2uWkcC5YZb54LskIvSzMId9CsL4ZW6YAtnlre9k8xIoxGnj9FFnhlnXFvPuYwVVu+51ZH08bBtbJYzS8GZ43EsLw7SuRjUgsN3WFGQBX0nWZ/KoqP7wRnq2eI7Tu82dY8BpSvYxTGgAvezoOUL4O7hRWZ5haWtmt9hwtk5SqTilIsVaCG+Rt9v/EQ7S29ofWGLUrGUt0M4FDo4Y5ooTKZ6Uj6i49IX2it+oOPaVzqrH1C1VZSB78U/h0IcrksfUarwWDizvO2dZEYaDSp9DBNc3Tjj2nrOZaywes/tQVf+qm3jhjNmS4FrztysczEIzpDv0Bzvi/BWe2L7gNCM7gG0L3lnNeA43W3dm/CXl1H9zxIbBGg+iJTL3sN3dAfQvD/G7Y9E5ygeSVE6mqWV3CqtzW/S1uJr2kATPF6GmyMMY3WECs5cLKnqVOmmdkm/nv8HW8w/0171N4GyM+eICwNg1jNdY4/JlboHC2eWt72TzEijEaePYeKzG2dcW8+5jBVW77k96MpftW3scOZ4/pBPMwly8lF9z30gCI0E6CHhDJllpi+coX6A7ud/Zg1tQXtCczwkx4BKcwziTGKBNha26Yf1v9I/bv6z+KfDYEX3uaXnlxRMrgiHt7v0n0f/L/1+/e8M5t+pzGDGGMxtB9v5wcoDwp8+T2pKNOl3ON1P52kkvlGBUy9QgPkgoCMewYRWi3NeB5GxrbMYcCwtbNKbYSx1hEXfaiexcTwsqW18DzpIXPfLKoJvMg740jKSKBnHMtWdwdyLMCR50z18j/DS0C/dOqbJn03+Qq46JTq8+Uzvj3+hv+3+J53fnrId2ORrDr6W51Jo4IyefueVM9q9/UB/Xv8XHVQ+0Y1zQk4L/mUuapz5k+3GsLK6X2CzCncpFARorSCr8qGAhvTmoQH1wLoZyNQ+x9KxgYDmDOjD52BAcxQAjU5AGFK4WL+h45t9+uPkVzq43qPryiW5TUy8MT6FBs6Y8frD9e/0sfR32qv/SuXmldogUOYw1kGKnl8ofwFl0GoWJL+51aJfcwMgGATojoK2PQSo2KXfbg8EdKD6AVpgELCN8QBLfFRKiMuJd4I1D0Dv3rynj2d/0JeLz+JiHafGDmf0kKo6NbqsndLX29/ponZEDarJbNeS2fKQHvGhW1mFXLCaB4HWD2gTSAMBHaQBQL2PtUOfyjN1g2xbcXGwkMRL9qxqs9Gn+Iyrc8lp1+msdEIHV/t0Xb4UNo1LY4czWmeUG0W6KJ/SfulPGW8ZLzXQFTPoC9LKatqFpsBeE1/RMMAdBdB3Nt8D6EDXhhfVf0+fBgAa/ueA2Acp6AUgFOTa0BJftgQFxKvyFR1e7zOkz6hSL8q2cWjscIbj/ap6KWNjXNcuZOYSlRnjyRArq3BoTloT6NYXmi0aYkHujSDAdfzOkG+x5wh3D9ejQb7n3uPwGod7DvdNwrEFpj4OR7yWNf7WMaOq6hTpsnxGp7dHdFO5GXjvT6mxw9llOF+WzjkjzqhUKVHDqXPsY32PWs22xl68v0louWFyxg/oII0C6FF1B1L3HPYhp8L9DsNWOXag71mNPjk0oAMyrOpUGM7ntH+1T+f8ObOWM96InhVP6ez6lKrlNjUb3/atZxUOhecpTh6gNQtaoDEuny1oP7QUgBiXAeDANv+veOVTVcEU1lS4exwt8xRDAxo74fqw6AV9E3Ld3tVoad8zYuTesOodQ0KAECtjkvjyRixotPDibU3eoM8C14YOPdInxTXwZ81p0BVbzF8uvtDJ7TGfJ/j8T62xl1x0w764vaTz62uqlRjWtQi5jvI3m343K6tZlJ8jwwqsGXnfPhCEzE13YNWzbUh5NO3xQXuAhozYeyUtOILkHSTID30H0EzCFmGANYeqtTpdlYp0dH3En1eceOi7elSFAM5wa1zRxc01NSpEDsNZeTYsma2sIDR5RkUdFbZ9AT3oOGMGtLagRwbTA1oPmIBGC5mm26Ja1aFytU43lTKd3pzRLXzOox/6UTR2OOPGm01HLOgWBtKvzzGk2XJ2vARWE6kxlecAjWKDhVBeDUX3bbAsCLaD2j73FXbpt9uAw418qgdcmwZ0j3CcAAv4PumXhPcJLpAaJvGolqniqEHVHNflzya2qkTPrLHDGTeOts4AM9Ry2gznOXIac9Rqjv4wrKymTqilHHSvwVEBPazF3ZNswD76VEP7Yh8AaPxyvsviwaDtz+779muT6zSp1mhQsVIR1wZ82S6DHd27x6UQwFlJD+zSdtlqrkXJrfLPDLg3PD3k+Vo9nrzHM7RGTP6ECk0R/yZpwGpUmMBFHAKsP0DaBLWZXoeel4JY9K12IgdUOr2pB9DebrKrt9gR73AnDgJROfT4nj0hBvYZQge8fa5Jjt3ic5hptfhA8uLUOAUWpUUHFw9046424M6oUblek+Ei0FIG/8apcJRczgOZpBFXw3nYdtWLQafGG/gbFC8GR4WDldU0yqwHJqD9CgK0KX+rDVM9W/rA0NRjWdB+QM/1e+804Dj65WAgoDnz9Bk0+DBEa6PpCpirbDmjaS9AHobGCCGBswKzFDxeRuag12SDAQ2XD/I7imEGQ5Bhs6p76lVIhaoYhKbJFOoHXBsmeB4N0L7jjPq4+wH6Tixf06Bjm4DGbQb6n6EBBbIfoHFks+WG2IJui+qOS7e1ClUYzmFSOOBsCAVQIMy/ZZr1OXIqUWo5fR6QldWsCTWWwx3L0NOoX0VDWdBDfjMPbUGzkLIntXFDfgvaHH+jR0Ncl7mP/+WgvARkMFfZaq47DXnvNcdWYtCIgONQKOEMKxp++HYjIi8H3XqEM5I3DP/sraxmVg8GdED9GrXKBQF66GMMADTWEL4V0J3c4Q/cd71Rp0q9Tg3XFRdHWMAMhQ7OHXEmoQGHCzjX2Ip2VLZa18ZkaNRKbTWiuOa2ELxVv4LidVyQK2QQoEWAoA+EAVEiAbQvvmc1aCetO/TtFe7hniQieTnouTf8gmsDnbwdvARkMJcZ0DJzf8gUWjjjBSEeRNNRrTbwgrDtWjJbWWnjbpC/GXp0QI8q33F6Vj0YBp4qgL59fc/QCGAFmNF0ruE2BcxVBjOsZjlCiKxmKMRwxsVxlnFpglsD7o2Wy6vDPwcrq6mVcIRrLz7BJoQg4Oqmdf2a1/kVBOieZPpkhnSUL1rJF9ez6u0QtBsADfPMdG8A0ALpIFAHnpyjzZeDEc4wj3gNx6GbSpVqbD2j6Rw2Bxx1rAotnCEUPLGgm21yqujWHWFAqyycdvdGcFGbHE354wmlBlnK/RQE6I6MbXeS9YGhVo/veeA51MaBSQLuIsC47hzLLw1ofEGhTTOALO6Meo0cNJ2TreFTqOEMiYXQZKu5BtcG3Bz3FKgp0ozcptUYZOLuwYC+R48JaL9w/YGADpCZrOUynOsNCVWn0bGaw6jQw1mEnzitiPid4d5oAtajlpQJVFgLjVWIhBqMqVM8AbR+2AJkCKZrA+oHaOVM8B3EU3BsVziFeZrHar0RpJEAzScFiOvNBhWrVao06nyd6krC1ELD1NjhjMwdJm+QjRgMqYmOKXWGNQN6ml0bU3xrz6jJsD0eRR6gTeAGyQ/oh+jbjzDCMTz6Brk2oDuADro/DxRwYaCbdqVek5eAUFjBDIWi9Ipvma+kbz7x1x58z2it0Woo9wZAjTjoEcqb1T0KcRm+RzMEaE8AFqqGVz0GCmn7Ab2f9fxY6jm6V4kHndEEtNl6YxhAY7vjMJzrdRl1zoE7I+SFOlwll/PqziDYhpDnLSdKTtVr+6y+/CYYHJOjfhXYKkzq1h39vMzq1I27W8ewLajqCaARH7BNKqQOPplRHdcGPnTwZCzyilrriYNA1gALepjmde1IRF4Iuk6LyjXV4USGAQ245rAphGZF/0tCL0GX8xUtN+B/bjUiMjgKxt2weloNY4VZjVftCMDVfVBdjHUVFGdq4HM2tt1JNiygtfodqx+goVEBzYJ17PLBMFZzqQ5fc4NPEXj00Cl8cJYvSTQUV43FTcGNgbbPGFZUDcqPts+TkdFWVs8h1JlBvz4hoA3W87D+5x73xojVbVhA9wg7cRj2VBrQhoGthBW2kh2HwVyrUg3uDBk8X0E77AqnQw75JoFRbBQ0nZ94dhgMqQELmq1nOyi/lZUSaguw1lNvhqTcIKs6CNBDHvZhgPY07DnQMeXu9WMSjxbVGnUq19RLQFjNkwBmKJxwNhUA6EiEf9i02tSoMaDr/OXozdhtx92wmgTpF9lPKiYVLGMNrH6n9FvQyqoOTh/0grAnxqSwTwM2yUHu2dyVZx6brg1TiEUSABhu0EazJa6MEsMZ85VOUjOo0MB54M8xD9A9afABvz5bzi7gbK1nK6uO2jBgvNodBGg/2vyAhoKq47cAWuuO9ezpTqxxrKA9ggCtgYb0DYZxGe4MhjPcGTjcpFjNUPgs5znOcDNoSVs7L2CVvxXxMrDFYHbrs9MxxWryJcPfPrN0TfIDWge/dHwQazstOAz1rA4J6CBI34npB2gvD01Aw/eM+0NAp+y661KR4QzLGe4NpJ4kEy58cPbLBLQn82VhE+2eqxH5RDtouDase8Nq5sVQk39cT3RduVuTuhq0LUgdQKtDi4zFQA1k9qDj9AO0p14LWiENbZrr9Zo0nYM7I8JQmCSrGQo/nCE/oCWP1aXjZaAAusYWtCNRVlZWkAdoU6NCeFQFwdPUgwFtqLPN+AViAhozZzcaGA60oQbRn4AOJ0GaDDhDflcH53Wbvw1hFeAXC5rVYULYJi9b94bVrKvTljeAhp4hPbRGTS/Jcd4+JDaj1ddHT8RoMgDdgp+93STXbVFJRp0L5yD6wypccB72y81nSWNKKzSta2JI0RkYd8PK6j6p1goemNha8Xe8CALuoHbPAwE9aFsfDWRm0LZBOwigIwIzGT/D8azmCe9CHBo440KQh0PnowFomd2A4dyuo/cgH6CpxuKYnJ8FVrOkZ2lKx9KA1sFPvWEBrWvagwA9YJ9BvB0V0MDGHP9zYDXXGM6OI920VfxkKnT80oD2h0CJm4OfmVdqmu4cNcoYdyPSGXfDWtCPo77PwGpkPVdrDdQKgFW/FNRsQ5wOJnC7cartc7/mdTrgpaAOInx4wYthYcULAdLRfHVqwRBidOjI28GMx5cdvnzgzqjKS8AaNTUAJlihNC6HArMWtvNdSOFr4sWg6tqNcTf6lAcrq5mSgq4G9N1KAdD2UxCgg9QBtKFhq58+RRCgtXq2GNekliLyErDecMSdUXF007nJ1kT88gegMf3XQFDzdimEADTDGe4N26378RRQp60mQLqCA7LtNiPUR2IF7l5A67gg9Yvvp1GLTQ+gfTsHHQudbSD4l2/ZYkaHE7gz5J7utezCrYmAs6lhrGmM9YxJYdG0Dq03rGvDapYFMANWg/zPo+jBgB7ylEMB2ltARzSXK3ndcalSr1KdIS2bJhzM0ETBWYO5L6ARx3eE3oJOXQEaoNaSMmk1QwJGRkXJdMnMAQVmtp4leJEDNCj3guKDXBtanS19kuB6zGu6D9C4F40AWM1wZ6DpnB51bho0cZaz1iBQy4N20bSOCwxGrfMebiDQrZ5EvvpkFRIBai1g1CQhC7CFayPI/ywg9KWHdPpel4i3cjc5RyGSQ8CxtPpu8sWjLuO6mgzjaqMmQWbSxrXyxmmo6mOHs1wAMvoBuanBrENH/CDxPqApgyLxMoN6QHmwspopAWBBLwf7WclaQYDWGh7Qnh5SIX274PqdFtwZqukcRqpEkgegJJQKh+Uc4W87Dv6XFaMIcMZLQ/3iEEdS3boj5FR43eVt0/LUJkA2q8MrgbD8nNShq34WNOLVtu4GHacVWH2D4rT6ABrREvrsjLIF67jOVjN6AmJgI7fpcv1G57PpKXljh7NYzPxUAWbMcvIo4mPiGcF6huXsSLtn9dAsoGdJ4bA9wiTAFLWsyfUNFm4fPg7UIAs6UIOS33OoIEAjRprOsbVcYzjD56zGz1Dbp0WhKr0A9WO0z8dD0g+q1ZqTQfmb6EHofc1bQM+SLKD9gjsAcGvKi0EAekTY+uS3oCGAv+PegIIXle45vQloqbq49maLak6dyo06uVPQpjlI4Su5YkV7y48hfm7q5aAa91kD2mo0PeozeVbZB+6XtP/1oNycY4T6/BE6x3zRou62YKL69+kBtKFubPD2QXIYzIByzWmQ47pyL1NnNrPCBWedv48EaK8MSs9BPawofM9Wo8van9MhPEddtbTVHGQ5DwPofnpKQONanZZDRXQ4wYStntU8fWgOU53z564HaH8YRaZ7w3XmqF6NkCMTwrbFtWHdG8MroP5OiEL44zCIeM8koEyAjE+s8zKG1dSANnPrPkDDeg56Qaj3MyWADjgOoiTaOI4WonSQdf7n8E9ftMzAGBrT1KY5SCEquXgCaKNoPCQsm4E1KqQ1oNGV25WOKbzMgFYlwspq9mQWfWU5o+Uz45OX/WANAu03aVC90xT2SVd3TD0FV0a90RCrWV4CetumUeEzK1gAtA490pDmMDKgeTcBdC1CDfQcxPyDwWXByupJNY45BPtJgMzBbWE8CgXoUeW3oCFdVQM16BT+4yBwBYbVjJHm0KYZTedgNeO6J338jEEKJZxN9f0JOCKgIRwKTevQcxA+aGJAW9fGcAoRT0bUo9t+E6dBlVzDrdN6Q+rV3ToXVA2HyVlzvx7fs+94Pas+QENq/AxHBjbC1FPQtFfd0MMZeixA45mjt2ATM3ZzgO8Zx7aAvl8TUVCseoRiPexz0xY0AO2nrl4dF6Cx5DKQZUhQtNBgK1++U6bYaoZCVecAWjOY0m4OHTriZf9+OpjCc9TPEu8R0KxOprZi6xmygB6sAGNmQhS+r5We8vuEwlmGgafyO6sgXaCNdS0cBwFRuHzzFrrw5rrpBf95e9MbK8YiZK6iSmIdYzPXXEfcGfAz4yJg8U97lQ1NyUVW+/1HfsCa8gM6MPjUOTya1km754hY0tb3bGXFdQJQNV4OQiagtfzghYaN0xoK0Fxf4QmXUecc1a5Z4DwDYIZC/2t1aEAPKQAaL2QagHONQ5XXm6Mfx8rqoXquF4I4yzAVXKxQz3IBoFXPwUFofQJA9xFeAqLZnPI1q/F/nyf3xq/Qwxl6KKCxX9C+YgxwqcGzxrgbMqUVr0vbZ5XEamo0CA/TrVFNDrgjYCnDjQBwBlnNpoKq3iBAB6f3In3bsKpeAmJwo5q8BBR/+AwpdCzyuza0HgToeyxrmRAWbZ8Z0pjeSjTgPFaTptkFsxZyYNRcQFXoWs+D69BTABoMgKsRY2bgJSC6ajc6FXR2FEpD0fyZZUpbwkGgBqB16BGv+/fDoRFgGLTxUhC9BvnznnI40wp4HBMgFO/wFfFBv/bCILGeEbhCDGNBB8nf7nloYTcOsN3hY666anYTedE4N1u/a8Nzt6j8vkLbz4qGggCtFQRoHXoAjUKAOcjYclbWM0f4dh2XQnIZVjMowBjBFeu5f0m8zyJ/KKDh98YkrVW2mOuuy3V0OiZsHVUh+irywOkDq7aiv8WS7oE1L2PGXpm1l+8eGYB2z5itu+nA9zxHUW9G3weWrUfTmE/fo1HzIjzXfh9Cnl9h6iEYJIyrLl264XtuKkBrSPthLdDkKB20EK+2dSO7cUHpEcELHJrtJtXcBlXgzoDVBIt5xsAMhQjOEJ6W8eTMp8d6qCUN3bGmPWE/dOvGeM9ovdHksqArz7jLw5hPPwUCCqweKrFgOQ9djGrB9WcQoLWCqtkgC9qfHu4UWMsYP0O9BGTjiuNnsS6EDM4Klt0upHcf6jCWdD/dATTWvTi0d3YqEXLq6JgiUWPVLBZGq/AIQwoBlHgph4Ht0TllkPoBWsf7LWhTOr32c9fYYpapp/ASEHAet5U0JoUOzqYEtHP8KP1Q9dTvoY0EaC0+DX5BwcXR4k877sa3KRxZh+Id6iL+5PrWHEBtge8Zrga8pNPyW8+QH7qDhLRm+gi+DNA6w3EkwGoOOscsKfQlV4G2/0N6LEDDlQHrGeM+S9duz1KwgLaaVclYcLBm2YJFzzzA8z5gBgH6PmjrugpLGT0B62wlYfwM0YxazdBEmBV4eO0IFwwjmNa0dnPooCX7Gc/WXAagu4GPh2OyYD3XKgrS+pecBfQk6z40TLdw9w/JAbwURNM1E9B4OTiMglL127ONOsv1DL7lOl4C1jCIfnfqqVmueqGAs1iyIz8F7OPR06cga1qD2QR0R4jjINu4FOkhRcW9EXwKK6uJ0WNUcv1yEP+09TzIig6qmv1eDOI49aYjA+hX2TpykW7GwQyFA87SrK050sUApPLScAhA+4EcCGjWHKxnLhhzboSaNQ51thuCD281MZqIH4dPIhTzR7l7tqDVy8GmBL/vWQe/+gHaD2nVE7Au009pX3OfKjpTmoKSyw96AKD9rg4tBXcV/MIoolxGqIFJYdG0jsuidW1YzaSMXnlAJiZUVV27g+uclsa3WTW7SFfgQZCXgC1XddFGpbPqKFxwfgAAFWD7A1orCNCB8pI1m21yGl7X7ib2t4PyW82upOij1QaDFC8H23hPg/gB9eo+QEOwxOFrhtXceQloJQoVnMWKfSAAFaD50T+w6Z1pQctLwmZExt1w6hG2nqNcILsvCK2sJkEoroChH4jfIljMcEM4aPvseyEzyJr2AxpBvQTE7CaYrLUp+0fwS1dSWYXLcmbJBeHpmGFIdSHLJUFgbQRPw1rQsgd6DsJ6dngNvo5nVPeKrazCIZRJ8BctN2DlBrk37nN3aMGdAasZgxs1GM4AvhzcqqPQwRlwBT/NMOpXqYK06mWogx/QZtDScO8EjnMZzC0GdNvFiwzOMC/5c5SjZzjFkyk81/6YdqMVJC8Hm3BvNNlm4fxlivTUI6NyaCvZfApIi9eKaJmBOQExfsawUJ8lhQ7OQZLn3n32DxQ/fAPQpsyCpYV2niIuVWjzjIGR8HJQuzYCdnl0PcMpplwmEqweUxgYyW25MnocwDoKXJHWcTF+hmrTLONnoEI9R6WaIE0EnKFvBbS2pocFtE4v3/oM5UYlyp+cXc/k3nies0y7JqZ4T5gUjDHmBqaRGmWaN6l+bOE4bOlg6inMdsIHk/Juy3yvJqr0gp9wK4hr4YFPchRAQ3g5iIIIqxmh6XNvzIpGNWrCkz2zDWjc/VPlACaDRdM6xzfuBtTPkoafutpULwGrbD3jGEH1zipEJRduhI4rYYC0P1gu/IHPtANoHQwFFRSxnvnbHr0G5QUhLsDKKuR66lIKAOPFnvie8ULPV3/9gEbnE/USUI2fgeXeFFamQgNnDd1hhbTC0QeWQABahyBA62AKlnOtzqBm63nWmtX1MYSsZlLdugG8ivXMQcG4t6BoQCM5fMsOW83S4aRp2zTfp1DAuQ0fgfewZZyNEdSxoM0wsvicGtIBoNbiL3pqN1S3bvihZ821MZnq/bk9SxqtJj1Myhp2xQoe1HMQ8Q1OV8OLQA5IKwaQt93qrsYPZ346c1F+oEw6zUHpBOIL/aQtaDOM+sSV1e5Z0QFFGoVIrHp0RGGrGQMjyYSwLAtoqzBLXHJq8cmkXBsMXbg3uP74f3GiTiEeUJaegHiJyLC2VWewQuPWkCelQ4AGAdovlA1AU8DZ53j9JBDu9DTsFmsNaBgGDlvP0rWbrWc2ACygQ63wFHGtUcrypEg6lbiYvQTWs6o3YhlzAJgbDGT4mhuoNFZDKUQlFwUWk+PwZx+ojlKolTX8sBvU+yKYEkDzJ8bd0C8HMSEsrssC2mpWhToGSxhtnvFyEC4LU02Od7zOJli2Gk4hNCvwswj+KIS7MEbcOC2POc4yALmJOQdrMZk9ZRaEXyOjaHxPyK9eUIRBzzX7Ns6CCv7UlRwD5iOX1Qs/V172mb5nrFcYzg5/Il0UFrXaZDVA4YOzKQ1iPEnf0xwW0FIPgsKwEvcGrqEbkGn86424vHntnzHerUo+rQof4qzu0ziKJEasQ4sMzDmIgBeFDbchTefQ7VsDBwMcWQ1WuOEMMQy1Je2Hqrai7wM1yoEZRrlp5d7oNrtTQbkz3AZbCnWGM0MahgJcG4bBMFW6J4vviLMiJAp/EX9K4Uv1Ob5YtX8ZLg0MiiRBrGhHwBw0YSsArYPVXU1UydWuDoGx73kOC2oIwNUvDB/kK9bWNAvvN5waWnFwJeCo6GyzoKP7n8Jzydr8zy6uCPAvY8S5Sh3jZ9zvZ7agvqvJQ4mAmSE8oPoPC2gdRjXzZB/v/A2nTbVaixp1jDUgUQ8DvpXVFAjWMdwXsJzRdK7GkJbhQK1G1uTaeQC0zMLtrfs0DKC18GU9KlAF7Hx+x2lStexQuciFsdKSgjmNGtWgGTH5Eyp8RXyUsvmtwt0/dw60+R+GO0DzOl0f4PIYVtaCVppcOHt6zKZ3neMEHCtIODzGe64xlCu3LYZ0i9runLg3ptF6tvXFalhp/7JUJ/6jfdKjQHrWNfFwFgvae2EYBGPEDQtpVYhUuA/QOKQ0qWsQNaottpxbVCup9s9ztu3zAKeT1XM1pYPgUBiXUwH1KBaJdJrOjQrmWfdDhwrO4irwwoPkgVhg7DuGjjfDIMnPQT6GADbgeuBHqzUcct0muU0MKdqmaq1FJbg36tPX0B6G0Cgem4c+wsfXbPs7pRyrxWeWKizgasdqlnVv2Rfu0yyCOlyWszw9Fb4F0Nqavo8QgwBtflH4MwmDvbRcvAR05U00uqu2mlhvUbHoUr3GFjSfftrbPluFWw+tQo8jFH5VASJ8JbCeucLJehCcEYbVrAA6XHA2xfn/YEB76ufqMHXfdgjXMcc5hYBmdHjZAUu5zpYy5hbEBhynxXFwb8D37DCgQedpcW1Mbn0IbxGfFal6zADGX4AYqz4hPhJBPRoO1LNgSYe75HK+fyuglSWNTy8EaBhAa8FfCFdGw2mK9YyB9+XQDGgZX6DO0K60GdBsPbtqHyurcWj4Uv20guUM4JrdtvtUxQ6YhwG01rQCOvxmBef7twK6+8Kwv6tjWEC32RpGm2angWES+XgM5M63PV8o3Bv1aosqbEE7zvS4NkbxN0PhuG34mxFmV2HJAdQPQBpBC0s6mBoFzFrTCOhQwFkeHF8JXACBecxxAHRQGFVoegcQm0GrXzyEdUxo2Wg0qc5ghtXsB5aCNIYTbVOlBPcGund3E40CuBGShlIPeDRPIOvSQA6EIRdwDap+eIaMr4ToGB1rpjXDIJmujmmA9difmzwQ/tNWT0/iAiUJ74aRAQ3o3gneNp/8gG4ykB2Gs+ughYYX6RMKENwZjUqLamUGeZUjH2g+P2wvq16FAU3j0ahVI1C+4T+/RRqwys3hRQ6QTu8Pw2rSAR26kqusVnz2hr7ibQ+xoE0NenGorqfNVu+cuCkadT6fNxU8rOSgwiK+Z7ayxXoutlTbZ95l1HE3vvG2rESz69ZAKX2Uu38kQHc6pnDBVrZYMHCx1q/sB6UfpEkGdCjNCg1EHe4V5792czwY1DgP9tVBi5cxTi1cGmIxO8N1SQXMGzW4NppUqzKs2ZpG+mFbbwyZzGqgZhfMpsKVC7o+f1sJnwVAT89vPuS/Fx4K6KAXh/BRY4wAadOMl4BiNQdbzKaQSjW3a1K50hQ/tCLzAy/OympckjakT6FuXQiqT/1qC9LqMKwmEdATAWdlQeNTheeQGrMD7gwGbYOkBQZ8zvqn2UDxReIy0TlFeg7KuBuqmZ0MOD555cRqVvXoYEbhR0W+C59RYKs1CqgnDdATYzmP5OZ4DHnnaTXn2OrF+Bl4IShl6l4hjSowEd5HtdzAy0GHjwF/9bPdw8xrYor3zEnVkWBA+2Erab1gKijtfQKgdQi7QlV6h3VHIF/NcEccp/3P/jCKmq021esu1TGGhnTTHg2qKDSq04rqNVi88dwbIgvo59FsAxp3H+4cQKUMCvyX648fvv5UeouZ1kw/SCaowwjr0D23YQA6lBWtn5wvDAtovKBW42fgJSD8zqrt3LAPvqs53hetPNC125XWHtIMjw8z29iwemqNWlLDpd6rH6bemXA2w7AKG6BDyYdRLFwFaW/lEYRzI+DFX5OB2sAgRg5eEHJWPeREvAsKCFp5wO+M9s+Ye1Daelo6z6SsW2tY9da3fsDFmr9mmmn96QcpTIAOLR4eAmh/6CcN4CCh3sB7IS0tGKI942eoJCNJ9uOLUe2km1Qpo/2zGndjRC+J1YMUroZkVqPqIbXurkYFtKq3AOTjnP8hCrXtNjqg/cHbaEpyXYX+gFZjZ9TrbOVi7E9eH+Xh+iXDJTKIMcdgpcSAvkVPQwZ/07sQqyeSBXP4BQvlPitluDrSrzZp63mkOsxp5dettzoOhf6HNQBqhlGF56HDHXnHNAP8w24DM5zAukXlvr9N831C8zkcAk3oZELYSouqHLovB8Ovb8yCMQnF2/qOJkHqZbtqZipBRRtCAeyGIODq5d6UXZn76BBmTVzJHQXQphXdV8ZTxMSUADLGaQZEvXeAjyYUhjbG3air5nUOxoO2vg2rJ9JklSzf1XJdGQwno+JyGOR+MLf44YwQVk2kWTEKoLX6ujlYiEenEwwHihHnqhVH/MNPBU55OXjbpEqFz4keh/LrO7yFBLLfIY8nvH94LqFoTYpzB/WtzT9dZZwwFDiumMMACvX3vizttxlwxiD/eqD/XmH9ngM/oSYSztC3AFoHUygLaI8MXzOmmwKon0qYSaXGVjM6plQ4uJhNxcrKyvsi4V+t/BdVVODJnzoEq1uZB1nC/bcoYd9B+z+3JhbO0MMBrYMXyQIwm/WurxnWzVM9KBwbLxsrFZdu2YJuoKnelCkcXzeTZDda9ZOCJj69iEBho0qgIRtUf3Wqu1uU+u03Dk00nCEAWodRBUBTBONnqDkBa9UmOfz5pA2Q8fD5I8rnbjpovYHBkWC1y0Z+IOEoGN+qcNzFYHvLKpxSLjS8AVJf8apOqBIV/LLQVDctNAi0/bd46j3Us2uqSu5DAA2pQfTV9FMYC0P0RN+e8rzl21mNu4FOKXUOcKXAyHvoPVhZTYsEyyC0orRIA1qqx4h15CGWMM407qo4dWbFqJY02jRjtDhHjzrHgNSN0J9SKDDKYm9StexSpeiKz1teioy7VAToib6rrJ5Yk/rbAVjGOOpmfegCWk0Wa4a7PftUWh30xBg6aPWm8oKRDuvj0tTB2dR9kJM2zY6ymBHgd35W8QW2ONSrbaqW1DWoUev4wuFysbKaYQHMbK7Ip1Y/tx9i74dZd18T0H5hCzaPG45TDWcIgDaDFpZbDEK3rmbLhlvjOZs4ibwCAijXK01qVGBJ80OR+MjzX88AGfVjgoSXgQizq0nOAXTekhf1GtJedegLaK43wwFahUGADoOmHs79BMNUBsJnqxW+X3w7yyN7xgeGMwHEAB/aV5dKrvQcxFClLVQpaz1bjVvw8z3SHIIPEddMqZu6JgwFaN50/4tDyHBfPGO9H1YzB2f9cFHeYKViAHw19dTzgllL4Mz/HL6GssC5SU20GEGdwHRZVlYzLoXmrqFyL6DlnyyMpLABeubgjPzHzyTHUWM119ETsDW+b0417gZ/23OJQ4sNTAhbKrWkY4pck7Wep07ShHOSNMaxbcVq5iC/JvlTC4BGkLoTSGGFaHlZ6MUEC/t29w8ToGfPcubni/Et8BIOvQHbTV73to1Lujhg1DqM61G+acrM3d0XIeEpMJOlmSvej68QDDquAd3in7vdOtGrfla0yAO0GQapC+jxGW3Q+HP+GSX5zFay4xDVYJ3WQWr4D8aNZ098LXg5eHvtSoeYJoYrhULA5hAZFCNqpor41Apgxiz4+NHh/+Hht6L9oMYatnUDl4reJCxJ5QVs12Duxj23ZqbkIp/BYOlswlYprGa01tDtH8MgXAu+K+DewKD81aKyplHwxv2grPf78RSmVjiTJHFvANL8W7dffbgP1EoM3r7bIMT32/Z8mhk448sWzXLcelOG6nzq8TMeIlwLCqDjomMKhyLmL1TWQnvM12ld31bjFPzNKIKAM+qIgu9g6e/AfhBGlQozAGcCzsI1tpIxqBFGg5NR52BGh0zSvhmFjj/wBVIuNfl60ZKD7VamY1so7SW2GlLW5p8WSbtnDnihL70Hua7cZ1wNBejBhxibph7O8uw4YM4+dDiBT1eNnxHOW8flAtIOX2O1qixogNoixuqhmrZKDsNKrGcOuLegYGowoOHguLt/UMrnlv8+pkqdL1VmsUzYWuVvX4etZhiivDFMLg1INxVS7g2ihgvr2RVAw/KfE2eaJLEaWuEr4s/VlA5FZdoquLg3uAK7re5kGLoum8F/36g6Un186ZR64xAdhnybajhD4mdutMX6RDM1vGCbBKGAzLXmZMS6agkD8yuLv1ugnlfa+pg8ze5vDqBrGu9e7ovBrAdGChJcHoDbfYALrk9sHKH+eWFcmko4wzDRxgng7GD8DPhuMbDQhJRWXWjghlEvB/mLhb9k+Ht9LICe+m/xKda0AVrA3OL6wJW5H6BRXpUVfH99Cd4+nnpmairrnP4Jg2fWcoitTwwo1H2I4870UYQvF4y7cVtsUKXmtX3Gl88z30NA+Z8Qha+I26Z03yYURdRlANrFnIMq+puE+gSfdP/mdc+vqTaIWvISULVr1oPoTxKYtTDOc7miOqY0ZPQ8fK9bWT2DQvxTE1YzOqYA1PddJUB3H+zC9p05nXDmTMYDA5TRTRtN51rNyQRzJDLX6ZhSrjSpypDu9By0GkI2r75ZIQM0arGuy3BtwHpGfVdxd+s4IIdtOgxSmAA9fXBG5rJl2W5iICHlEoBrQLs0JlW4/nqtScWS473YVIXxvsJmZTXt0l27u1UcdUKHXmlQ47Mf/PR2vTwuTRecOR+Rl3hIql1zW16iTTqYIQws2qi7VCo6atwNtyX3auF8n8JXxCdqVDoMfBSCwY+CpEs+6rfq1q0sfNQJFWT1jnA3Ok2/Oxumg8tTK5y5/kBJVnK5d9myrJWa0kqj1WSI8W2OO6O/RaogRTotTyoVVzqo9FoKT6vJzb7wuTWe84UgKvhUVfIAqbbP6gUh289eLKQB2z+/Vd0aDOpxaWqeG56BwIoB1qhjSFAMWo+fOuP/BnwM4R5wL3g5KHDGjCl8f7jfsL3ICI9m2988S8VCN6/D511Ae4t9pL/Axj1+jV/T9aXKoHLhzmh43bSnqG52hjBkEqNjSrnkULnqkNNsqi8m/qncWygfV/LFZ2UVYsHvDEDDig6yoFXwogIEGN4/OP/zaWrgDHjAz1xjcCl3hrdhiiTliguPjLtRc6lcdKjO98p3jy1T9k1r9a2ape9TcW3wJ7p263Gfe6WpjE8z3JXZu1BSBCd7ck1VfcacgLWisppbHp2nwaUBofCJ9cz/sIxWKDe3qu0zfNGqMD7dvSIbpyQrZ0r46p4V5464NDjoMZ+h3nKLBdOKVut+CZT19rubn02TD2fOPHxnYlJUtAXGYPr8hDhjJ/slYJBQ8HC3MrQo17h6Vc05WOOAMUOe8nZxajn9REnbP1azInFpwPeM4AF6kIS//CeMqJiKkstflOLKwJCg6KbdmpKXgP2EW5N7bqBTSlNmTXHcWbGPrKz6q2s9m01oB7EA21QIRsagfZ9WEw1nDSmMn1FlQKFzBh5I96FMvzCDOMbdwJdTmHoOhucJ2C+tmRMXPt0xRT193WFLMSNY2IBf20CiTtQ38bNocuHs5Rtm0oaPWfzMbDXPlLggyZjPFVe6diMPZumLycoqSHBnAMyuB2hIgVlBoz+gldT2exI9gybbrcH55zCQHbRpbqAZjXoA0+zS6Mi7RzQdxC+GSsmlCl4Odjc9qkY9ZniewFR47qxGlLg3PN8zXBxawwE6HAyZzJLL+dZGm2anpQY3qvHD4PVZEoqO+iLivODCV6sxnCuOuDlkQoFH7iI8uc6B8F35c3bfRgWf1a8n1AunhdZMcHd6kSwFXgVgXYckKmSayOcmGckwbvLPeFiNAFK7FcLcfWKpIqZCtQHXhmpah9m7H1vPyJNH1OR+pTyGZq9G9Epbzxi1TlvP2iLWQFahGxcmTeaXKuezg5/zFQY0Bjby6qDO5FmSvmf43jFq3U2xIV3XbZ/u8Oq5xtYAjlA1ZvkrSo/53DTmHAxSEKARh3/j0kTCGS6MZgPtfPnTxU8WjNA2uzDCvaPcwc2jfc94UYjCOMv5Mrs/6K0goBh1AC033KZ2b6gZu4NkAhpL4645E1V6Vd5xZrOViBeAmLS11ez/bThLQt6gU2S90lSD8rMVzWVRxgrwytw3adRjhOepWEDPumA9w3KWQflRKVj3AToMPqGJKbnIM1iHLXeOGhU1YavLYFajztkKqIW+KHBvlNH22XHFUngMUk7uT+NZ/lE/CXo6CuLIAluxnpkXDGZpXsfxerzmoF+WiBOiyAGwMB6FnmrmiygsY5jMWqUtrTTgzpD4gAyeNak8gHuD86bhUrHUoJrRMeVbc2gyXwhazbqk3HPd0O4NPWqdqSB+qOFDv7XWfJtCD2fz3YnrAjxonYF59KZz/IxvEbIC425gMtuadOt2xL3Bvy/UhBZeuudQeJ7KbP+qwt3Pdg6osghOAMoy5rMHaMTpvMGyDmHRxDw3uIqcOjqcqPEzYDSHKSPDIuQJ8gYDQFXKaPvskgvrmY2F8M31YPWUmoza8Xw/yfS4G3BvANBzngXtrxUmVxjX3tLzK/S1FfmEn9TtJlGDwVyrKlBb9ReKHAohXgxi3I2aw4AWS4F/aTzwkdvvQatpECxmdEyB71ma2XnxqBU6QMqKjowVkOM899BCj7dGjTOVrUE0F7NteAcL3/YoXK7blGZ1mDWlXudMxLfcA7Nucr8P7Te5VVedjin8a1JZz4jtrRQa0vwbVNbHpdDDGZkHN0YDPd/qaDrXGnOWhV+wcuF7RtM6NWN3g6o1hzcAVA+D1WS+ELRgtuoVirH0GEQAoOUXpdoWNoUXzpJh6GSCEeea0kIDLwH1JutvvkecP8gidNgpl1tULbWoLi6hOYpEeMOI2Wez22oahGIs72XaLWq0XOXikHF51K/NMHEltHBGFsG37KCzCcbQaHjTMdkWGkNJHiwKIechZojBoPzlEhdEOyj/zMj+wgyWsIUtZrGeOcC9oaS4Eha+hNqtgZeAGHEOM5wQL8PXbME8nOTnmizNcQFsU63uUrFYE1Bj26g1F7tYTZ6AHft1HCwNaGm94cVpMWm8pfEptHBGF21YzGihgYlbLRseKK+MobfgbblOlUpD3ETS9nnqv+dCbXtYhUDycrDVHXejI9QNDuNsexDa0otWGRg7Q9o1M6hF1moeWVLG+I/TbFOJwVzkUKk5XiP8WfjKs4C26i/M1I1xN5pNDgLnLmNUs9PxMSecJZd/hnemnoKzXkAShh8akyntCgKQq9UmFUsONdCRx3MTDWMd2O/Fx5MdbD88wpNAvWiI9QzfKRSOwh6q5yYXwzCGG8OtKbdGZ5Bs+Wv1ECHvEPA9B98zeg3W6/hFolwb6JoyjCygJ0v2cQ0h5kvPqHUeb8KQe6GBMy6kzRYFwFyXmbRdXm5yFtnWGY+jOYpG0DGlLR1T0HOwWsWodch3gNfmsdXsSf8iB5idZpODGskxDLVh7HBG5sSjCYrHEjTHlMDMJph6SsbPGKc3ftoEAOOTYdziLz2Mu4FprRwHTYk4r3njfdndMSqsJkL2cY0g1Iu2AjT80HNzUUrGU5SIJb0Ez68QwDlCmUSa0vGMwLjBljO6aouv2erRBO6KlcAL+BlXqToCZ3wRomXMfRoVzOF4euFsSPacRodtSjecUC9gMesJYSMR5lIqRylm07jedo0dzjH+hlpMrtBidJlatYh0OkFPQGulPaEYDmgNA9dRmS1ohy3px9Z4irNfKN5jL+Jjlc2B0QQwA9B4D7OWXaZCdkHAPQ6N/blFInFaSq5SnuHs1NmqYzijV9u9v7GtHiTxLXOQjimNJpXKdapznkvvS/uFOFWyNWg0oVMKAgZFwi/65fwyLWYWect4cnLscI6y5bzAlvNCbJmaDGfla2ZKMEDsS6qnEXIVWdtym2w516lcdajRwFtrxAfn+aiPIjycn90f9XgG1q0xujDuBozGldwaw3lpbBwaO5xjkRgtZ1ZpLbdJhcyK+J5BgvFkx+wIBQ7Wc9VxqVpxGNIOw5qrs1B1WnLfYslqNMGdkUllaDm3TBsLm7SYXuSYmYVzlFbya/Ry5RXtLO/QUnZRZoy2elqpHFY/4UoM55vbuvih220MMH43/+07AKuZEBf9lfkV2lndpq3CC1rIFEb+1fhYGjucYcHFo3FazazRP7/4F9peekXJVJyisaiXwurppNs+Y1B+dO12qN5wpVTMYVjRb9CYyrNPYy/eVhOkeDRK2USS3i2/pb9u/gP/kl+iZCzBW8ZTmkNQehkQc1HJiH/Y+Ed6u/qGVhZWKMOZFI2AEtZkeyrBIsCg/G6zSdW6Q6VyQz5bMij/tMgC2mqwUAfAmmwyTWtsNX+/+h39sPqjuDSikZiX6vkVmpKbTqRpk39G/OPLf6b//fX/RlsLm5SMx6W9ITIPwepphK8/NF8s1RpUZuvZrXMMrw/brTvcsn5nq2CBKXOw/6IRSsUT9Hp5h/7PH/8v+unlP9Da4oZ0jBunQgPnWDRGuVSOM+gN/dvO/6R/3f4X+mH9O1rOFSiRSBC6dlsr+umEFjJ1tprRckNab7iq7bMCtP1inGTZ3w4BYpa0Gc7peIrWcsv00+ZP9K87/4P+7fX/pJeFl2xFZ9lqHq9rdY4rZaiIhwFIak6N9q6+0K+HP9P/8+H/pt2LfTotXrARxJdq2z8/iVAKuLhSJh2nwmKaCvNpWsh2u66apcQ/g3dEnonvubS7aczv1MDecd72TjIjjbZ79TFMO7gb100ffC61V++5VZw+HrbNSQP7rnDcuZaXztjVX2XmuFzq7f5zQnfvGS9ee+NwDC19+JZ5M97h1G4qXqfT18NX0T2ujuNPBOzOlV0+ZbIFn3rTqZPh/pFSjs9xnWWR1+SV5V1a5xhqWcdiWX+q46s0Op0Zp6SXujOUBF/zN4nzNsIW80Z2lb5bfUf/x0//BxuDP9HLpVfSgiwyZjBDoYMzhD7uxdoNHd0e0Z/Hv9Pu2RfavfxKR9eHdFG+pLrjqgd3p9BbfYvQESUWj1A2naCVQoaWGNJRLsBoPWOWksmCc3eP3nOreL0V254LzkFV7ingjFhATUN55uHM+RnlX+ipWIxW51dpa3GLdhjGeM/1w8Zf+Ff6GuVTeS/x+BVKOGs13AaV6rf09XqXPp19oL99/S/6ePaJLstFajQaMkC2PNzw3sJECXmJ1jN4ObK6lKWVpQylk3GKxSYVzsYKq/fc6kj6eNg2rXDW2x8EZ4EyH3OC4Sy+ZQ6RWJSyyRQtZfP048ZP9E/b/0Lfrb2jzYUtysYXxvryL0ihhjMsaLfpUKVRptvaLe1f7dKX80/04eQDA3ufjm5OqVavkdNoSuZbfbtQHFAZF/JJKsxzQV5gQKdUodUlxcK597hTD2cvPf7qZazpZX2n+hhqWcdiWX+aINbpzDglvfRYcI4n4pRJp2hrYZ12Cq/ou/XvaWf5Nb1cfCXvuTKJDP86jIeOIaGGsyk87JvaNZ0WT9h6fk+fTgDpj3RevGRL+ppqjarMBWb1bZLKwiGdjFEuk6T15Rzlcyn+Oai3c6Gxbg1vSSnscNZQnjU4J2IM5USaCrkCrc+vMpTf0rv1d/Rm5Xtaya5SPjXvpQynJgfO/A8Py2mhJUGDDs726cPBB/rj8jd6f/mB9k73qFyvyk+Yb/mWnXUh51AkkI/JRJQ2lvK0OJ+mTCaB0iLbJgvOkNqr99wqTh8P26YNzurDhK76HBnOyF/5VOmUuiD2Lq1zDLWsY7GsP9XxVRqdzoxT0ksPhbNudruQXaDtlRf0w9KP9MPKj/Tdi+9orbBOyWiSjY0op0NbpN5nEyZNFJx1RmL5tlyky+szOiwf0v7NHn06/UwHF3t0cHNEVbaiG25dxi02K7rVcNJFAr7nJQbz4oJqvRGNqby0cDZOwppqOHvbwg7nCPIqMkepWIryyRxtzG/Sq5VterPxlrbzL2kj94KWF5Ypk87gqco+4IiF8yMJmQmZGdpgSxotO3YvP9PPe3+jf//w73RSPqObyrV0S8bztZb06NJ5lknFBcyry1lKJeICbL8snBkw3nb/OaG792xA1JOFs5eIpZeGhTMsZXRWQ0uj5ewybS28oH/b+R/0lxd/pXer34tPGc3jtII4EkZNFJyDpF8alupFOiud08n1If168Cu9P35Px7cHdFW9pbJTp4hXeyyoh5POJgxxAt/zCsM5n01RJpnoqUiQhTMDxtvuPyd0954tnPlvQJySXhoEZ+26wI+4dCwpUH6xsEk/bf2Fvt/8gdbmN2g5t0T51IIMrobxmSdNEw9nU27LFX/0H4e/0O+Hv9OXiw90wLA+Ll6Iq6PuNCSNrw5aDRCKRyoZZes5S0sLaVqYz3AsZ6ABFwtnBoy33X9O6O49Pw+cJRafHLD7JMMZ0teNX2/ocp2OJymXzNJaboVeFrbp3co7hvM/0NuNd5SIJjjdZA+eNvFw9oogqpE8YPyr1CtUrN3SSemIPp1+oL/v/Z32bvbYkj6hag3jFjetBT2kkKcxrgypZIzWlnK0upyRhvxodqSLjoUzA8bb7j8n5L/noCr3VHBGOdfbJx3OWvF4jJLpJL2c36SdpR3655f/RDvLb2k9v0HZZI6SiZSUT2EC/8PnJGqqLGdT6AaODiynt6e0e/GFIf2Rds92GdindFm+otvqjQz2YyE9WCgeKOhR/lm4VEhL55QsV4x4LNqpUBbOXI687f5zQv57DqpyFs5eIk9Y03DGuDrwYmCW/vl0nlYyy7SWX6W3aBa39oYB/ZqW2XrOJfNSVk0hFyycQyr4pAHqz4ef6P3hH/TH1R/08fIDfT7flQ4s7WZwYbXqCkXEZXgs5JLSKWV5EYDu+p4tnBkw3nb/OSH/PQdVOQtnL5EnScF5jzzALeHXWz6do9erO/R94Xv6sfAX+v7l9/RibVuGHA5bB5LH0NTDmR+tPHg0vbtli/m8fkGH1/v0mS3pz2xJf734yhZ2mapOjRNP3wN+DCH/UNkS/HMyzVDeXMnRQj5NsShXCvyTEuTLOwtn79N/3rv7QxbOal27yyQF34r2K79Zec1gfk3v1r6j9fwmLaeWaCG7SJl0VvbBv2nTVMNZPWK+Se/BYd1puXRdvqS9y1367fA3+v3gNzq8OaKz0iXVnKqM19H0KqRVV7qYxGMRWmc4F9iCzqVT8tZcMcRXOSycvU//ee/uD1k4K/eZiD8xKwnGeF/JrdDm/Ab948t/oh82f6DtpR3p2TeJTeNG1dRbzqbkIfLtosVGtVGjK4b0ye0J/fz1b/T78e/06eYTFStFatRdb4/ggjyrQl6gAhXyKYYzV5zFLMM65gHRVzEsnL1P/3khA6KeZhfO3f3x8OY4RBNxWk4X6M3iG/rL1l/pH7b/SZrKLWYKlGJLWgYo4tucNhj7NXNwNh8omt1VGlXaPfskAyp9vPxEB5d7dHh1TDeVWwG4hXNXOi8w7sZiDh1TcpSRUeuiXJB8FcXC2fv0nxd6XjhrKIcLzkpylfwf8fOpLC3k5mmdLWVMrvpu6R3trL6lnZXXMpcf5hrVwn4WzlMqKRRqQQpLqV6i45sj+vXob/SfX/8X/Xn0kY6vz1QaT7MOatw+8g2ujFwqTmvL8zJ6XSaTRN3lwuQlhEIBZ2OF1XtudSR9PGybNjirDwVM7B4WOJuSffgT1/R6ZZt+3PyO/nn73+jd2g+0ubDJlrJqFqc17UA2NbNw1lJFg8htumxFV+iieCqD/O+ef2Fr+jOHr3RWPKeb2g1hMHpf/Z05obQgz5IxWM8pNWvKYoaBrQaR6fDEwtn79J/37v7QLFnOEGZ3V5Oq5mgtt8rW8Y688Hu1/JrW8+tUyC5Lt2t0y5b0xjOeFVk4S5FTQgFA0zu8NDwrHtHn80/037v/TR9PP9Le9R5V6zWqY5B/rrCzbEXjSyrClSsdj9NSIUNrK1lpyYFussgWYUpo3BomJMxzq3i9FdumFc56exjgjHn70GY+mUxRNp2mzdyWDOP5P17/K71YfEWruXX5okfg1GpHloXzjEsXBmRJ3a3LeB0XpQu2nj/SHye/0+eTj7R/uc9WdIUarsMJVYHBz/xZgrW+V/zcxKh1etwNwBqbwJQ2w1lXp7vA9Mnb3klmpNFVvAvirrpx3fTB51J79Z5bxenjYds0wlk+OWD354ezuhYVpeIxxnIqmaWd5W16s/6avl/7SQa9X80vUyqRleE89eOcRSCbsnA2hOJsFghY0Y1mg86Lp7R//ZU+Hn+g3bPPdHhzTGcM7evyNblN1RV8luCMO0WxaTJQ8tkELc5naHkhQ/l0SuYbRLUS2ElqFDJvgeUHlcjb3klmpNEV38JZfahDqXidTh8PaO2ci+MkFp8csPvzwlmnmxPjBa16FtLztJxdpbWFDXqz9pp2Vl/TNoO5kFmS3n+mb9lKnlcnF60MeUVbhG6k6GV4UTqn45tD+u0IAyv9Sr8c/MrWdU2s6FmCM4RioyeETSXjtLm0QMvzyr2BSob80FVtvHDu7tF7bg0gJWybRjjjOejtzwlnU0m2ltHt+vv17+mHzb/QT5v/QCv5NYbyogxOpEeM636dW0EWzkMKRb3m1KlSL7IlfUZ7V2xJn36QHob7Vwd0hpHvGNTQrIBaAMwgxkubtcUsW89Zms+qWSaQY9rvPD44Gyus3nNrAClhm4Xzw+AM6bvVx4HQs28pt0RbhS3aXnpFr1feyFjLywxmTB+ViCUlnVWwLJyHFIq6+c1+W7umk+Ix/Xb4M/168Av9cfKJzm7PyGk4MpfhrMxnqCo/0XwuLf7n1UKWkokYicfZwlnkv+egKjfpcNaCFRxhazgWjdPG/Dq9W39LP27+RN+vYYzlTYZyVtKpq+P0xrOz6pWF8wgyCxQG+K+5NbqqXNJp6YQ+nX6iD8cf6MPhBzrnuGKt2Cm8QZVhWoR7xN1hGMf5TII2VvOUSyflp+wcE8t/635Qibw0naRGGo04C2f1oQ6l4nU6fbznhnOQsqm8jBD3/fp39HbtLe0sv6PFzCLNp+alzTJ69+HKLJTvl4XziPIXrCa6gjOkT4pHtHv2hd4f/ElfL7/Swe0BXVeuZdJZp+l6BXz6CqQUHtzb3BxbRXFpuVFgK3o+k+3AoBeYAXngbe8kM9J4TOocQ69DFs7y0TneU8MZknRqiQNcWmivHKNsMiNDdq4vwIWxTT9sfk8vC69oLb8hfmU0jdPy1yGrYFk4f4M6xZSzUCDdqFGpdkvvz/6kX49/pl/2/0Z7l4dUrNao1WpyZk9vkzt5ORiNsNWcFv/zxvI82hjKNuSP5owfVCK9TX3wQjeNx6TO/nodsnCWj87xngPOkKTlT7xviPEvpEwyTa+Wd+jHzR/ou7UfaXsRgxPlKSmWcnc2Egvk0WTh/I1CMdWFTs9neF4+o+PbI/py9kkG+N8732fL+oTOyhfUbLak9ce0QRrFCJU1Ho1Js7qtlQXxPWN0McyCbuHcVVCVmwg486H5EYsVjFHhljJLtDK/RluFlwznbdpe2aGV7Botphdlu26FYdYRq+Fl4fyNUlUA5ba38KHp3U3lhvYvv9Ivez/Tb8e/0O9nv1O1Xqca5jJ03akDNIR7Qrfu9aV5WsimKeVNCGvh3FVQlQs9nFkRvp5YPErJWJKysSy9XXtH3238SD+u/5XW5zdpIbMg6UxZMD9cFs5PJPSQctiKLtcrDOkr2rvck5Hv0CX86yVb01fHVHfqXlp+BL4KPInCbaDipxNxms+kaK2AQfkxPsIcJkmW7X5QibwS2CmIRhqNOAtn9aEOpeJ1On28x4IzhLww8xXKJtO0trBKLxbZSl7Ypperr2ljYZPmU4uUjqfExWFB/HiycH4imRYDltGb8OzmhD5e/Cnto/88/kBnZQyoVCSnAUsaHVkmu2CjILUZMmj3nIjFaHM5TyuLmHAzJnF8g114mPJKYKcgGmm6sFCfXeSZcd30vXBGfHeP3nOreL0V2yycu3DWwngpyXhCXvat5ldpZ+01vVp6Q68Wdmh5fpXy6XxPObdwfjxZOD+T4OaAP7rSKAuUP579Sb8d/0q/HP1CFzeXdFspUlsmnFXdXYMq0KQIl45itVaYp6WFLBXyaZkQdjxwhtRevedWcfp42Gbh3AtnvEPIpzK0nFuiH7f+St+t/0g7S2/ZUl6gdCwls7CbL/ysHlcWzs8oVBdkd9Wp0kXpTEa62734JG2j0dPwsnJFlXqV6o4j6ScV0FLJOeQyaVrMZRjSWcqkEhTjyg543Lktb70TbcBMw+LhcO7u0QtJFa+3Ytusw1lLtcBI0WJmnl4Wtmmbgby9/Io2FraokFmhRDTe0zTO6mlk4fyMQnUxf/Y5TczEUqb/9fHf6b+//hd9uvxAx8VTuioWuQKhoinITZpwxbh2zJicScXpxcqi9CBMJtSodQa3lLxb7NypATOd9GFwNlZYFs794QyhbML9lE3naW1hmV5vvKJ/2PwX+svqv1KKLeUYW8pa/rJs9fiycH5mqSqjhJeGmFD2rHjG4ZSObmBJ79Kn0490eH1Ep6VzarhNaXpnAmsSJHfJfxLxCC3NZ2VQpEUOEb6POyXOW+9EG/eqEfcwOOt4tVcvJFWcPh62TSOc5ZMDdtdw7sQjjn/NwI2Gge+Xsyu0Nr9OOytvZZqotcVVWmJLeTG1xNDGAEXd+7BgfnpZOD+zTDhDupDDir6pXNIehiY9eU9/Hv5Jn86/0FXtVlp8NBo1Vcl8FT3MQscUzHiRTcdphcG8vrQg1hcGW+8pdt5iJ8a4R404C2f1oQ6l4nU6fbxh4AxhGUuALSZMTccylI1n6NXqa3q7/o5eL38nTePwsk+7L8xya8H8PLJwHrNQ6FHY8RgwK3jdrVGtUaEPhx/p/dGf9OHqPX253qWDq0NqshUNCkyKq0MXrVh0TiaERdtnzH6Riqu2z52i1/vBC93KrxH3cDh39+iFpIrXW7FtFtwaEGYjgRKxBK0vbtBm7gVtZbfpzcY72ll/Rcl4WiZUFWsZZZP/WSA/vyycx6yggo+4s6tzOr0+poPyPn25+ETv2Zq+KJ/TZflahibFGNI+loROUrA8SGTTCeXeyOdoPpOWrZ2S5312CqIBM32LD4OzscKaRTjj07sDSYfR4pLRBC1kCrSSW6fXa29oc/4FLSdXaXVxjQrzhcDyaOH8/LJwDpG86tSpCHg0aIJ3cL1HPx/9N/169Av9efqeoX1OxUqFmk2XE4W70qB04eUm2j2n00naZOt5dT7PP6m5wvOlC0y8EtgpiMY9acRZOKsPdSgVr9Pp4/nhbArbXI5LJ9K0mF6gHzb+Sj8irP9EhdyyNInrlDvv+BbI45WFc4iFSoLHU66X6aJyTie3R9LT8MPhe/p6vkunxVMq1StUD/lMLLgHuC7j0QitLizQ0kKOcmhaF8WEsHzd3qV37sCAmUachbP6UIdS8TqdPl4PnEW8E6/H2VrGUJ5oCodxMLYWX9Bqfl1eAC5mC9IdG/5nC+NwycI5xPL/nCw3ynRVuqQ/Dn+jDyfv6cvlBwb2GZ2VrqjWqJPLlnRYIY1ihtYpi7kc/3TO0cpCVrp5623gTefKDcBoxD0MzojvB0kVr7di2zTA2VRsLk4JcWEs0NrCJlvLf6GdlXf0kgGtmsap/If8Zc1q/LJwnhCh8qBJHXoZlmoM6eolnVWO6f3R7/Qbw/rj2S6dFy+ojXeGxiMNS29DFDO03kgnE5TPYGCkPH9iqqJYZ1tHBsw0bh4OZ0jtFRY4Y5s/7lvgDOGaAGeMBKchu5RdZmv5Bb1ZfUPbyzu0Of+S5tOL0kJD0llrOdSycJ4Q+S0bNL0rOkXav/pKX04/0Z9H72V40tPiOZXqRaq6VanQgEA44KwAgk4OsJgxKFIhn6FcOsVb+RotnL0lpFefw8JZ+e7VMgYgyibzVMgWaHPxJUP5NX9u0WpujfLJeWstT5AsnCdYeHQtNpVrbl1GvPvt8Bf6X1/+Q9pKn5ZOyXUYAj5LetwChAHognRMyYh7IzYH37NGDssAl0achbP6ULsxVnkToAxJ5xDeHuV8LORXaHvpNf315T/SDn9uLryUtsoIZicSq/DLwnnCBesHvtybyjWdly7o8OaIPp9+oI8nf9Bx+ZQuS1dUrBbJdZsChHGDGucHJDClVSGfpfVCnhLxmPdykBP4oKURZ+GsPmSbN6wFxhyKx2KUSqRoIV2gpdwqvVp8Sy8Xt+WFH1wYuWROyoi1kCdPFs4TLH+lw6Nssqn85fSjzAr+6fKzdGA5vDiiUrVE9UZDLO1mL4OeVVLY+DoBaLR33lxaoFwmIa4OAMsPLX2pFs7qA7tJo7dYRF72ZVNZ/hWySC+Wdmh75Q29Xfie1rIb8utElw2UE8gsK1bhl4XzFEkqIf9H07tS9YYt5xM6uNij3w5+p68Xn+nr7Z50YKk7Lj/48VnROC2uFdbz4nyalvI5KuSycu1qexciGnHTBOegKmfCGUKSDpxxKM9axpcaelim2VrOxgu0Mf+Cvt/6gTYWN2k5t8ZxOUpGk5wQ/3vPazVZsnCeUuGxSvvo0rnMCr7LVvTu1Sc6vD6m09sLuhVXR2NsVjR8z9HYHGWTcVpZnKfVhbzMN4hWBCYj9eKswRnH0+lksCiGs1jKiRwtzy9LWEys0Xp+i3ZWXlMhU6B0MiPpIevKmHxZOE+xZNQ7hgtmBr+qXNJZ6Zj+6+t/0s/7P9P70890XbmlNiacHUMR0OeEJYjZujEwP2buTkRjcs3a96wR93A494Okitdbwwpn5A8C3BQL6UXaWtim7zZ/oLcb39NScoVy8TxhMCn7wm/6ZOE8I2q4dSo3Smw5H9LexVf6dPaRvohFvctWdIkq9ZqX8nmEQoeih9K3kE3SUj7D1mCeUqlkF7AMNY24h8HZWGGFFc5znaQqvh1Rn3N80EQ8RbnUPG0ubEnLC/TwW1vYoJX8iowmF4t0m8ZZTZcsnGdMGKsDA/wfXO/Trwd/p3//8u90eHVE58VLGUwJ43U0n6lIoOjBvZGMx6U798byvAzKj3nrGIsCNc2th8EZ8f0gqeL1VmwbK5wRxcnE+I1i7j4MrRqjxcwSrc2/oL9uoGncG1pd3FAjxrGlbDXdsnCeIcEPiccNQFcbVboqX9BJ8Zit6E9iSaMJ3snNGRVrVUYLo4lJIcXDB5fHkhya/6EXYyIWEdfGYi5LuXTSG/P5MeAMqb16Iani9PGw7bngjG06DgNAKSnYRvkTU0Qt5JdpvbCpmsYt7FAhvSSTrKbYklYtMSD/ca2mSRbOMySAUAuWKXzRjtug/dt9ac3xx8Fv9PXsKx3cnNBtrUhFtrBbDHL+Q081yD+KH64KgEaLjcV8mpbnc9LuOcKoYoxJuumFM/zJ6EAyR6kYfzGl8rSSX2Uwb9GLlVe0Nf+K1jLrFGMr2vQpe3vLX6vplIXzjMkEtIgfv9N0ZdLZ89tTadXxx9Gv9PvRH/Tx7AvVWxhQqUmtJu93BzKPI10E4d5YyKVoY3mB0okkxSNo+6ysfS0Tn5MKZ70/YAvvRCwakZYqLxbf0Mult/R25Ttaz29QIbskLTSike7cfVq8p7dkNa2ycJ5BaUCbFRydV2qNmrTqOC2il+Fn+sRh72qXjorHdF0qMsSfZoB/E1a5VJJWCzlayGQom0rLNrOEmqcfDs79IOlBV/6qbc9nOat7jTN0MQ7Gcm6FNjAjyeI2bcy/lKE8c8l5NUCRcW9Bz81qemXhbHWn0mP9vHROh1d79O+7/06/Hv5Cu+e7VKlVqeG6hNHxnqL5XZMhl4zFZEqr5QWG1nxW4uFS6YK4q/vh3HuNYYAzXnVG2FKORmOUSWRpNbdB79Z+oL9u/ZNAOZ9a6DwHq9mWhbNVoOqOanp3Vjqjg6t9+nz+ga3pXZkdHON1lBsVLjyP28sQx5JR6+IxWmE4ry3mKRaLdyaE7UXnMHDuBeVzwtlrDSfN4nQcXv6lYhnKJeZpo7BFW4tb9GJxR0aMK2SX+YspJQPjW1lBFs5WfQULGlbybe2aDm736cPxB/rj6D3tsxV9UjxlS7pMNdcRn/VjSBVFBiKzDF261xnQmXSakgxrIPIOFL3VsMHZBDNaYcT4yyUeS1AqnqGlzAqtsLW8vfJKBihan99iCzpjm8ZZ3ZGFs1VfaXcHWmzUmw26qdzQRemC3h/+Sn8e/0Hvz/6gs+Il3VYrj2ZBozgy6yibTNJCJk0rhXkZlB/oAibN4jocnLvAfQ44o+OIfPI3TIvhjO7omXhaBr5/ufiGdpbf0nZhh/Ip/uJJZBnacU4TVfvIXysrJQtnq74CnBlP3hoG+Heo2qjR6c2huDq+XHwWX/TXqz3xUWNoUnQq+ZZmdyiNAD1aL2CkuvXCorR9hvUMi9rsIHM/nHuL9lPCWQlfIUjI+/EiXvZhluuN+XWxkNHDDzNeL+WWpSUKJlXVwhHMq7OysnC2Gkraitawhk/6qnJFf5z8Sn/f+//oZ7amv1zskdNoolm08h+DpqxRrGqk1EUSL8/WFhdoOZ+nnPQcnAslnLuKULStBm+a4+UXy9v0Zu17+m7tB3rJYJ5PLXSaxfnz08rKLwtnqwcJvQzrLlwdl3RROaNPp59k9LuvF1/o4OaYTq7PGD/oZ+jBbARrGgVS7UO0kE7TQi5Hq4t5sZ5hnOoSez+cdbwC7GPBmSuNRCi3BadhGMP1E+F/i9klWsmv0UbuJb0obNPG4gtaTC/IaHLxaELSW1kNIwtnq29Wi6F2dnNCB9d79P7sT3p//Cf9efyeivUKVetofucwzHvBd59gbaNkomldngG9UVikTDpJ8Thabqg044OzWmnzyTA1FJrFJeaS8mLvxfILmSZqu/CdtMJYzBRwFElvZTWKLJytHqzuT3OMeueIq6PilOnr9Wf69fQXer/3nj6ffKWL8oXMczhK0zsUS6TEsTOJBFuj82xBZyiXS40I5y5wvwXOEACN64pEON6zgOPRJKWjOXqz/I7ernxPW0svaTmHZnEZ6d2H4TytC8PqIbJwtnqwAJ0g4FxWz+mwtE+fjz7T7glcHXt0fHsiLw0Bcafl8s6DQSWFEoBmYKLtL6znpXyWlhZz0uxM3An3wrm3aH8rnCEAOhGLy2wj+dQiLaaXpZv1zhJaYbwRt0YmkfZSW1k9XBbOVo8usRT5f6lxRWfFE/rj4A/6+97P9B97/0m3tRKVnRpTDmm6sMTLwyCrWhdPtN5Yms/RRmGBEom4DIykyfpUcIbaXjM5+JUhfClkYimazxTYWv6Rdpbf0PbyFi2kGMrx+Y5FbWX1rbJwtnoyua0GVRtluipds+V8JD7pP47/pE9nnxnaZ1SqVWRW8EGuDl08AT1Yz8u5HC3kM5ROJXibgvFTwbktQG7Jiz40Rc7F8rSYWuMviA2Zs28jv02FzBJfV44S0ZQd+N7qUWXhbPUscpo1qjhF+u+9v7EV/TcZQxqujptykepOQ8bsGCS0hkjHk5RJpWTcZ/iflZWKMadVGuhb4AxFtBsjEpEXfgBugkM6yefNbtKL+bf0YvUVbRW2aD5ZUJOpWlk9gSycrZ5FaNHRart0W72hi8oVfb34RB9P39NvB7/S4fUJnd1eCUxhRQe5OLAeY2DGI1HpmFLI5xiYbKlGOK1h8H4LnKULiXcAJIUrYz5RoJXsGu2svFNN4/IvKJNEpxg1pKntdm31VLJwtnpGqXYLbtOhi/KZuDk+nHyg3bNdDvt0znGYFRztpwXUQKcH1G4xnaPVfJ4WGc6wnhOxKG/rQrYXzti3S+5BcEYDaoAZg95HMJRnIkuL6SVazW3JMJ4vFl/xeVdkklXtf7ayekpZOFs9m3STMgitMBpNl0Fcod3zL/Tn0R/0H7v/Ke6Os/IluWjRARkvDmE94wWdjLuRzYgFneZlNG1TMA+CM6QQ7IczYsViZtZK8zjeF/P2JZMpell4TT+s/pW2C29pPb/pDXoPgEc698F7yKeV1VPIwtlqLALgUPQA6ZvqNZ0XL2j34gt9xVgdF7tsVR9wOKQ6A7zd9KxcAJhDnCEJQK8WFiifyVAmmVDdurtmsGiQ5azdF9iKYUrRXK+Qxohx6zLT9fr8Jq2x1QxLGQMUSdM9C2OrZ5SFs9VY5Lc+4ZMu1W/p5OaUdk8/0M8HP9PPh7/QVfWW48vkGoP8o8jGYxFamp+npVyWCrkcxwG+cqiO/EVbw1n17IPFHOEQo1QsSZl4jraX3tGr5Xf0bvk7WkwXKMHxVlbjkoWzVSgEWDfZSkZPwkqtRCelI9q73qPfD36jD6cf6Yit6FKtKk3v0BUcLgZYzEu5PK0sLlAUs4vA5WAU5+5y10cMMGONd6dUIsP7r9LWwja9KOzQWnaLCik1y3WMLWn7ss9qnLJwtgqlKk6FbutX9P74PX08/kCfzz7S4c0xnd5cUKXBkG460qpjIZulVYYzQI0JYlGc4arQvmc1ezdaYkhrZTUORjRB+fS8zN23WXhJmwznzfltysXn2YpOqR2trMYsC2er0Mh0dQhk201qMISvype0e/6J/n7wd/rPr/9NZzendFm+JqfZpEwqSYV8VoYVnU9jQlhYzBrKXcGqjs7FKRvPS5drzNv3auU1Q/klpRNZikViYinLuY3rsLIalyycrUItgBJN664Z0EfXBzKHIQb6P7w+lLE6qk6Z3HaD5jMpyqZSAmEI1nOcreR4PEnpeFp8yplEXjqSoPXFen5D5u3Lp+YpEsHI0RbEVuGShbNVaAUwm9B0mg2qOTU6uP1KXy936cvpJwb1AZ0WTygRj8h4z/E5zJiCfeYolUxRLp2nQm6ZCpkVKqRWZELVrYWX0usv4k0PBfnPZWU1blk4W02EAE8UVXTjxrCk5XqZbmu34vJAh5Zmq0GttiPtkAFdhHQiQ9lkjvKZBcrH85SMsQWdgAWdlnQWxlZhloWz1UTIb9liHU3rqk6VSvUbqrk1chjQEMAco6iMtZyKZSidxNjKvXP2WVmFXRbOVhMr05pGO2nEKCmIKyuakS6ftlmc1WTJwtnKysoqhLLmhJWVlVUIZeFsZWVlFUJZOFtZWVmFTkT/P/1JrKHE/HUHAAAAAElFTkSuQmCC;" vertex="1" parent="1">
                    <mxGeometry x="490" y="340" width="97.21" height="98.83" as="geometry"/>
                </mxCell>
                <mxCell id="10" value="Backend" style="text;html=1;strokeColor=none;fillColor=none;align=center;verticalAlign=middle;whiteSpace=wrap;rounded=0;" vertex="1" parent="1">
                    <mxGeometry x="498.6" y="438.83" width="80" height="30" as="geometry"/>
                </mxCell>
                <mxCell id="11" value="Google Account Data From Web Browser&lt;br&gt;&amp;amp;&lt;br&gt;App ClientID" style="text;html=1;strokeColor=none;fillColor=none;align=center;verticalAlign=middle;whiteSpace=wrap;rounded=0;" vertex="1" parent="1">
                    <mxGeometry x="130" y="220" width="120" height="70" as="geometry"/>
                </mxCell>
                <mxCell id="13" value="google Credential" style="text;html=1;strokeColor=none;fillColor=none;align=center;verticalAlign=middle;whiteSpace=wrap;rounded=0;" vertex="1" parent="1">
                    <mxGeometry x="285" y="260" width="75" height="30" as="geometry"/>
                </mxCell>
                <mxCell id="15" value="google Credential" style="text;html=1;strokeColor=none;fillColor=none;align=center;verticalAlign=middle;whiteSpace=wrap;rounded=0;" vertex="1" parent="1">
                    <mxGeometry x="320" y="360" width="75" height="30" as="geometry"/>
                </mxCell>
                <mxCell id="17" value="google Credential&lt;br&gt;&amp;amp;&lt;br&gt;App ClientID" style="text;html=1;strokeColor=none;fillColor=none;align=center;verticalAlign=middle;whiteSpace=wrap;rounded=0;" vertex="1" parent="1">
                    <mxGeometry x="393.61" y="230" width="75" height="60" as="geometry"/>
                </mxCell>
                <mxCell id="20" value="JWT token" style="text;html=1;strokeColor=none;fillColor=none;align=center;verticalAlign=middle;whiteSpace=wrap;rounded=0;" vertex="1" parent="1">
                    <mxGeometry x="320" y="430" width="75" height="30" as="geometry"/>
                </mxCell>
                <mxCell id="21" value="Google User Data" style="text;html=1;strokeColor=none;fillColor=none;align=center;verticalAlign=middle;whiteSpace=wrap;rounded=0;" vertex="1" parent="1">
                    <mxGeometry x="501.11" y="220" width="75" height="60" as="geometry"/>
                </mxCell>
            </root>
        </mxGraphModel>
    </diagram>
</mxfile>